<svg width="83" height="79" viewBox="0 0 83 79" fill="none" xmlns="http://www.w3.org/2000/svg">
<g filter="url(#filter0_ddddii_1604_18661)">
<rect x="29.5996" y="58.6895" width="47.306" height="21.8799" rx="10.94" transform="rotate(-45 29.5996 58.6895)" fill="#F0F7F7"/>
<g clip-path="url(#clip0_1604_18661)">
<path d="M50.1783 62.6447C52.6805 60.1426 52.6805 56.0859 50.1783 53.5838C47.6762 51.0817 43.6195 51.0817 41.1174 53.5838C38.6153 56.0859 38.6153 60.1426 41.1174 62.6447C43.6195 65.1468 47.6762 65.1468 50.1783 62.6447Z" stroke="#010F10" stroke-width="1.26685"/>
<path d="M42.1376 58.8504L46.5085 54.4795L47.7507 55.7217L43.3798 60.0926L42.1376 58.8504ZM45.0956 58.9979L46.6483 57.4452L50.4369 61.2338L48.8842 62.7866L45.0956 58.9979Z" fill="#010F10"/>
</g>
<path d="M55.0537 51.1583C55.138 50.2304 55.1908 49.4765 55.2118 48.8966C55.2277 48.3115 55.1828 47.7658 55.0774 47.2597C54.972 46.7536 54.7716 46.353 54.4764 46.0578C54.2076 45.7889 53.9334 45.6413 53.654 45.6149C53.3746 45.5886 53.1031 45.7072 52.8395 45.9708C52.5759 46.2344 52.4626 46.527 52.4995 46.8485C52.5311 47.1649 52.6972 47.4785 52.9977 47.7896L51.9222 48.865C51.3107 48.2113 51.0181 47.5444 51.0445 46.8644C51.0761 46.179 51.366 45.5622 51.9143 45.0139C52.5153 44.413 53.1374 44.1125 53.7805 44.1125C54.4184 44.1072 54.9983 44.3655 55.5202 44.8874C55.9314 45.2986 56.2135 45.8021 56.3664 46.3978C56.5193 46.9935 56.5931 47.5734 56.5878 48.1375C56.5772 48.6963 56.5377 49.4001 56.4692 50.2489L58.802 47.9161L59.7193 48.8334L55.8128 52.7398L54.9904 51.9174L55.0537 51.1583ZM57.5385 45.2574C56.6264 44.3453 56.0755 43.4676 55.8857 42.6241C55.7012 41.7753 55.9912 40.9687 56.7556 40.2043C57.52 39.4399 58.324 39.1526 59.1674 39.3424C60.0162 39.5269 60.8966 40.0751 61.8086 40.9872C62.7259 41.9045 63.2795 42.7901 63.4693 43.6442C63.6643 44.4929 63.3796 45.2995 62.6152 46.0639C61.8508 46.8284 61.0416 47.1157 60.1875 46.9259C59.3388 46.7308 58.4557 46.1747 57.5385 45.2574ZM60.7174 42.0784C60.3272 41.6883 59.974 41.3878 59.6577 41.177C59.3414 40.9555 59.0225 40.8369 58.7009 40.8211C58.3846 40.8 58.0788 40.9371 57.7836 41.2323C57.4884 41.5275 57.3487 41.8359 57.3645 42.1575C57.3856 42.4738 57.5042 42.7928 57.7203 43.1144C57.9365 43.4254 58.2396 43.776 58.6297 44.1661C59.0304 44.5667 59.3915 44.8804 59.7131 45.1071C60.0294 45.3285 60.3483 45.4471 60.6699 45.463C60.9862 45.4735 61.292 45.3312 61.5872 45.0359C61.8824 44.7407 62.0248 44.435 62.0142 44.1186C61.9984 43.7971 61.8798 43.4781 61.6584 43.1618C61.4317 42.8402 61.118 42.4791 60.7174 42.0784ZM62.6507 40.1451C61.7387 39.2331 61.1877 38.3553 60.998 37.5118C60.8134 36.6631 61.1034 35.8565 61.8678 35.0921C62.6322 34.3277 63.4362 34.0403 64.2797 34.2301C65.1284 34.4146 66.0088 34.9629 66.9209 35.8749C67.8382 36.7922 68.3917 37.6779 68.5815 38.5319C68.7765 39.3807 68.4919 40.1873 67.7275 40.9517C66.963 41.7161 66.1538 42.0034 65.2998 41.8137C64.451 41.6186 63.568 41.0624 62.6507 40.1451ZM65.8296 36.9662C65.4395 36.5761 65.0863 36.2756 64.77 36.0647C64.4536 35.8433 64.1347 35.7247 63.8131 35.7089C63.4968 35.6878 63.191 35.8249 62.8958 36.1201C62.6006 36.4153 62.4609 36.7237 62.4767 37.0453C62.4978 37.3616 62.6164 37.6805 62.8326 38.0021C63.0487 38.3132 63.3518 38.6637 63.7419 39.0539C64.1426 39.4545 64.5037 39.7682 64.8253 39.9949C65.1416 40.2163 65.4606 40.3349 65.7821 40.3507C66.0985 40.3613 66.4042 40.2189 66.6994 39.9237C66.9947 39.6285 67.137 39.3227 67.1265 39.0064C67.1106 38.6848 66.992 38.3659 66.7706 38.0496C66.5439 37.728 66.2303 37.3669 65.8296 36.9662Z" fill="#010F10"/>
</g>
<path d="M25.0652 55.4284C24.965 55.5286 24.8543 55.6024 24.733 55.6499C24.6118 55.6938 24.4861 55.714 24.3561 55.7105C24.2278 55.7052 24.103 55.6771 23.9818 55.6261C23.8623 55.5734 23.7542 55.4987 23.6576 55.4021C23.5275 55.272 23.4379 55.1244 23.3887 54.9593C23.3395 54.7941 23.3351 54.628 23.3755 54.4611C23.416 54.2941 23.5038 54.143 23.6391 54.0077C23.7674 53.8794 23.9106 53.7959 24.0688 53.7573C24.2252 53.7169 24.3772 53.723 24.5248 53.7757L24.4062 54.005C24.2972 53.9734 24.1883 53.9734 24.0793 54.005C23.9704 54.0332 23.8737 54.0894 23.7894 54.1737C23.698 54.2651 23.6383 54.3723 23.6101 54.4953C23.582 54.6183 23.5864 54.744 23.6233 54.8723C23.662 54.9988 23.734 55.1148 23.8395 55.2202C23.9431 55.3239 24.06 55.3951 24.19 55.4337C24.3201 55.4724 24.4484 55.4794 24.5749 55.4548C24.6996 55.4284 24.8077 55.3696 24.8991 55.2782C24.9588 55.2184 25.0054 55.1508 25.0388 55.0752C25.0739 54.9979 25.0942 54.9215 25.0994 54.8459C25.1047 54.7668 25.0933 54.6992 25.0652 54.6429L25.2945 54.5191C25.3349 54.6087 25.3525 54.7088 25.3472 54.8195C25.3419 54.9267 25.3156 55.0339 25.2681 55.1411C25.2207 55.2448 25.153 55.3406 25.0652 55.4284ZM26.4884 54.0052C26.39 54.1036 26.2802 54.1765 26.1589 54.224C26.0377 54.2679 25.9138 54.2881 25.7873 54.2846C25.6607 54.2776 25.5386 54.2486 25.4209 54.1976C25.3014 54.1449 25.1942 54.0711 25.0993 53.9762C25.0009 53.8778 24.9262 53.7697 24.8752 53.652C24.8225 53.5325 24.7944 53.4095 24.7909 53.283C24.7856 53.1547 24.8058 53.0308 24.8515 52.9113C24.8972 52.7883 24.9692 52.6776 25.0676 52.5792C25.1661 52.4808 25.2759 52.4096 25.3971 52.3657C25.5166 52.32 25.6405 52.2998 25.7688 52.305C25.8953 52.3085 26.0183 52.3367 26.1378 52.3894C26.2556 52.4403 26.3636 52.515 26.462 52.6134C26.5569 52.7083 26.6307 52.8155 26.6835 52.935C26.7344 53.0528 26.7625 53.1758 26.7678 53.304C26.7731 53.4288 26.7529 53.5527 26.7072 53.6757C26.6615 53.7952 26.5886 53.905 26.4884 54.0052ZM25.2838 53.797C25.3857 53.8989 25.5008 53.97 25.6291 54.0105C25.7574 54.0474 25.8839 54.0526 26.0087 54.0263C26.1317 53.9982 26.2389 53.9384 26.3303 53.847C26.4216 53.7557 26.4805 53.6476 26.5069 53.5228C26.5332 53.3981 26.5271 53.2707 26.4884 53.1406C26.448 53.0088 26.3777 52.8928 26.2775 52.7927C26.1756 52.6908 26.0596 52.6205 25.9296 52.5818C25.7996 52.5431 25.6722 52.537 25.5474 52.5633C25.4226 52.5897 25.3145 52.6486 25.2232 52.74C25.1318 52.8313 25.0738 52.9403 25.0492 53.0668C25.0264 53.1916 25.0343 53.319 25.0729 53.449C25.1098 53.5773 25.1801 53.6933 25.2838 53.797ZM25.5282 51.0642L25.7075 50.885L27.3206 52.4982C27.3892 52.5667 27.4463 52.5992 27.492 52.5957C27.5377 52.5922 27.5781 52.5729 27.6132 52.5377C27.6449 52.5061 27.673 52.4709 27.6976 52.4323C27.7222 52.3936 27.7424 52.3593 27.7582 52.3295L27.9348 52.4428C27.9155 52.4903 27.8856 52.543 27.8452 52.601C27.8065 52.6572 27.7696 52.7029 27.7345 52.738C27.6536 52.8189 27.5649 52.8602 27.4682 52.8619C27.3734 52.8619 27.2846 52.8206 27.202 52.738L25.5282 51.0642ZM26.2464 50.3461L26.4256 50.1668L28.0388 51.78C28.1074 51.8485 28.1645 51.881 28.2102 51.8775C28.2558 51.874 28.2963 51.8547 28.3314 51.8195C28.363 51.7879 28.3912 51.7528 28.4158 51.7141C28.4404 51.6754 28.4606 51.6412 28.4764 51.6113L28.653 51.7246C28.6337 51.7721 28.6038 51.8248 28.5634 51.8828C28.5247 51.939 28.4878 51.9847 28.4527 52.0199C28.3718 52.1007 28.2831 52.142 28.1864 52.1437C28.0915 52.1437 28.0028 52.1024 27.9202 52.0199L26.2464 50.3461ZM29.5003 50.9933C29.4019 51.0917 29.2921 51.1646 29.1708 51.2121C29.0478 51.2577 28.9231 51.2788 28.7965 51.2753C28.6683 51.27 28.5435 51.2419 28.4222 51.191C28.3027 51.1382 28.1938 51.0627 28.0954 50.9643C27.9671 50.836 27.8784 50.6893 27.8292 50.5241C27.7817 50.3571 27.7782 50.1902 27.8186 50.0233C27.8573 49.8546 27.9425 49.7043 28.0743 49.5725C28.2096 49.4372 28.3599 49.352 28.525 49.3168C28.692 49.2799 28.858 49.2861 29.0232 49.3353C29.1867 49.3827 29.3316 49.4697 29.4582 49.5962C29.4722 49.6103 29.4863 49.6244 29.5003 49.6384C29.5126 49.6507 29.5214 49.6613 29.5267 49.67L28.3511 50.8457C28.4583 50.9353 28.5734 50.9959 28.6964 51.0275C28.8194 51.0557 28.9406 51.0557 29.0601 51.0275C29.1796 50.9959 29.2833 50.9362 29.3712 50.8483C29.4608 50.7587 29.5223 50.6515 29.5557 50.5267C29.5908 50.4002 29.5873 50.2842 29.5451 50.1788L29.7428 50.0654C29.7797 50.1586 29.7956 50.2605 29.7903 50.3712C29.785 50.4819 29.7578 50.5917 29.7086 50.7007C29.6594 50.8061 29.59 50.9037 29.5003 50.9933ZM28.2166 50.7218L29.2315 49.7069C29.1243 49.6138 29.0092 49.5532 28.8862 49.5251C28.7649 49.4952 28.6454 49.497 28.5277 49.5303C28.4099 49.5602 28.3063 49.62 28.2166 49.7096C28.127 49.7992 28.0673 49.9029 28.0374 50.0206C28.0058 50.1366 28.0049 50.257 28.0348 50.3817C28.0646 50.503 28.1253 50.6163 28.2166 50.7218ZM31.05 49.4436C30.9499 49.5437 30.8391 49.6176 30.7179 49.665C30.5966 49.7089 30.471 49.7291 30.341 49.7256C30.2127 49.7204 30.0879 49.6922 29.9667 49.6413C29.8472 49.5886 29.7391 49.5139 29.6424 49.4172C29.5124 49.2872 29.4228 49.1396 29.3736 48.9744C29.3244 48.8092 29.32 48.6431 29.3604 48.4762C29.4008 48.3093 29.4887 48.1581 29.624 48.0228C29.7523 47.8945 29.8955 47.8111 30.0536 47.7724C30.21 47.732 30.362 47.7381 30.5097 47.7909L30.391 48.0202C30.2821 47.9886 30.1731 47.9886 30.0642 48.0202C29.9552 48.0483 29.8586 48.1045 29.7742 48.1889C29.6829 48.2803 29.6231 48.3875 29.595 48.5105C29.5669 48.6335 29.5713 48.7591 29.6082 48.8874C29.6468 49.0139 29.7189 49.1299 29.8243 49.2353C29.928 49.339 30.0449 49.4102 30.1749 49.4489C30.3049 49.4875 30.4332 49.4945 30.5597 49.4699C30.6845 49.4436 30.7926 49.3847 30.884 49.2933C30.9437 49.2336 30.9903 49.1659 31.0237 49.0904C31.0588 49.013 31.079 48.9366 31.0843 48.861C31.0896 48.782 31.0781 48.7143 31.05 48.6581L31.2793 48.5342C31.3198 48.6238 31.3373 48.724 31.3321 48.8347C31.3268 48.9419 31.3004 49.0491 31.253 49.1563C31.2055 49.2599 31.1379 49.3557 31.05 49.4436ZM32.4677 47.8414C32.4589 47.8607 32.4466 47.8924 32.4308 47.9363C32.415 47.9802 32.3912 48.0285 32.3596 48.0813C32.328 48.134 32.2876 48.1849 32.2384 48.2341C32.1874 48.2851 32.1294 48.3238 32.0644 48.3501C32.0011 48.3747 31.937 48.3809 31.872 48.3686C31.8052 48.3545 31.7428 48.3185 31.6848 48.2605L30.7016 47.2773L30.5118 47.4671L30.3695 47.3248L30.5593 47.135L30.0954 46.6711L30.2746 46.4918L30.7385 46.9557L31.0548 46.6394L31.1972 46.7818L30.8809 47.0981L31.814 48.0312C31.8667 48.0769 31.9212 48.0962 31.9774 48.0892C32.0354 48.0804 32.0855 48.0549 32.1277 48.0127C32.1769 47.9635 32.2138 47.9108 32.2384 47.8546C32.2612 47.7966 32.2735 47.7597 32.2753 47.7439L32.4677 47.8414ZM33.8581 47.4262C33.8845 47.4034 33.9091 47.3806 33.9319 47.3577C33.9565 47.3366 33.9724 47.319 33.9794 47.305C33.997 47.2804 34.0049 47.2479 34.0031 47.2075C34.0014 47.167 33.9838 47.1038 33.9504 47.0177C33.917 46.9316 33.866 46.8068 33.7975 46.6434L31.8258 45.8684L32.0156 45.6786L33.7079 46.364L32.983 44.7113L33.1623 44.532L34.2219 47.015C34.243 47.0607 34.2553 47.1099 34.2588 47.1627C34.2641 47.2171 34.2562 47.2707 34.2351 47.3234C34.2175 47.3762 34.1832 47.4298 34.1323 47.4842C34.1182 47.5018 34.1015 47.5185 34.0822 47.5343C34.0664 47.5501 34.0453 47.5677 34.0189 47.587L33.8581 47.4262ZM35.3486 45.145C35.2502 45.2434 35.1403 45.3164 35.0191 45.3638C34.8978 45.4077 34.7739 45.4279 34.6474 45.4244C34.5209 45.4174 34.3988 45.3884 34.281 45.3374C34.1615 45.2847 34.0543 45.2109 33.9595 45.116C33.861 45.0176 33.7864 44.9095 33.7354 44.7918C33.6827 44.6723 33.6546 44.5493 33.651 44.4228C33.6458 44.2945 33.666 44.1706 33.7117 44.0511C33.7574 43.9281 33.8294 43.8174 33.9278 43.719C34.0262 43.6206 34.1361 43.5494 34.2573 43.5055C34.3768 43.4598 34.5007 43.4396 34.629 43.4449C34.7555 43.4484 34.8785 43.4765 34.998 43.5292C35.1157 43.5802 35.2238 43.6549 35.3222 43.7533C35.4171 43.8482 35.4909 43.9553 35.5436 44.0748C35.5946 44.1926 35.6227 44.3156 35.628 44.4439C35.6333 44.5686 35.613 44.6925 35.5674 44.8155C35.5217 44.935 35.4487 45.0449 35.3486 45.145ZM34.144 44.9368C34.2459 45.0387 34.361 45.1099 34.4893 45.1503C34.6176 45.1872 34.7441 45.1925 34.8688 45.1661C34.9919 45.138 35.099 45.0782 35.1904 44.9869C35.2818 44.8955 35.3407 44.7874 35.367 44.6627C35.3934 44.5379 35.3872 44.4105 35.3486 44.2804C35.3082 44.1486 35.2379 44.0327 35.1377 43.9325C35.0358 43.8306 34.9198 43.7603 34.7898 43.7216C34.6597 43.683 34.5323 43.6768 34.4076 43.7032C34.2828 43.7295 34.1747 43.7884 34.0833 43.8798C33.992 43.9712 33.934 44.0801 33.9094 44.2066C33.8865 44.3314 33.8944 44.4588 33.9331 44.5888C33.97 44.7171 34.0403 44.8331 34.144 44.9368ZM35.7248 43.5826L34.9182 42.7761L35.0974 42.5968L35.8724 43.3718C36.0288 43.5282 36.172 43.6187 36.3021 43.6433C36.4339 43.6661 36.5525 43.6248 36.6579 43.5194C36.7282 43.4491 36.7809 43.3665 36.8161 43.2716C36.8512 43.1732 36.8661 43.0704 36.8609 42.9632C36.8538 42.8543 36.8257 42.7488 36.7765 42.6469L35.9119 41.7823L36.0912 41.6031L37.2484 42.7602C37.273 42.7848 37.2967 42.798 37.3195 42.7998C37.3406 42.7998 37.3626 42.7901 37.3854 42.7708L37.5278 42.9131C37.5084 42.936 37.4926 42.9535 37.4803 42.9658C37.4698 42.9799 37.4592 42.9922 37.4487 43.0027C37.41 43.0344 37.3652 43.0511 37.3142 43.0528C37.265 43.0528 37.222 43.0361 37.1851 43.0027L36.9953 42.8235C37.041 42.9887 37.0419 43.153 36.9979 43.3164C36.9558 43.4781 36.8749 43.6187 36.7554 43.7382C36.6113 43.8823 36.4523 43.9411 36.2783 43.9148C36.1044 43.8884 35.9198 43.7777 35.7248 43.5826ZM37.3399 40.6706C37.224 40.7936 37.1519 40.9325 37.1238 41.0871C37.0974 41.24 37.1212 41.3902 37.195 41.5378L38.049 42.3919L37.8698 42.5711L36.4965 41.1978L36.6652 41.0291L36.9946 41.3586C36.9454 41.2145 36.9296 41.0739 36.9472 40.9368C36.9665 40.798 37.0166 40.6812 37.0974 40.5863C37.1133 40.5669 37.1273 40.5511 37.1396 40.5388C37.1537 40.5248 37.166 40.5142 37.1765 40.5072L37.3399 40.6706ZM39.8811 40.6125C39.7686 40.725 39.6456 40.8111 39.512 40.8709C39.3785 40.9306 39.2388 40.9579 39.0929 40.9526L39.0402 40.7523C39.1896 40.747 39.3196 40.7224 39.4303 40.6784C39.541 40.631 39.6403 40.5633 39.7282 40.4755C39.8354 40.3683 39.9013 40.2602 39.9259 40.1513C39.9487 40.0406 39.9197 39.9448 39.8389 39.864C39.7844 39.8095 39.7264 39.7849 39.6649 39.7901C39.6034 39.7919 39.5331 39.8147 39.454 39.8587C39.375 39.8991 39.2827 39.9509 39.1773 40.0142C39.056 40.0827 38.9488 40.1354 38.8557 40.1724C38.7625 40.2057 38.6773 40.2172 38.6 40.2066C38.5227 40.1926 38.448 40.1495 38.3759 40.0775C38.2863 39.9878 38.2345 39.8921 38.2204 39.7901C38.2064 39.6847 38.2231 39.5784 38.2705 39.4712C38.318 39.3605 38.39 39.2568 38.4867 39.1602C38.5921 39.0547 38.7019 38.9783 38.8161 38.9308C38.9304 38.8834 39.0428 38.8641 39.1535 38.8728L39.1878 39.0811C39.0824 39.0741 38.9822 39.0916 38.8873 39.1338C38.7924 39.1725 38.7037 39.2331 38.6211 39.3157C38.5649 39.3719 38.5192 39.4334 38.484 39.5002C38.4471 39.5652 38.4295 39.632 38.4313 39.7005C38.4331 39.7655 38.4638 39.8279 38.5236 39.8877C38.5728 39.9369 38.6237 39.9632 38.6764 39.9668C38.7274 39.9685 38.7871 39.9544 38.8557 39.9246C38.9225 39.8929 39.0024 39.8516 39.0955 39.8007C39.2273 39.7251 39.3468 39.6636 39.454 39.6162C39.5595 39.567 39.6561 39.5441 39.744 39.5476C39.8318 39.5512 39.9171 39.5942 39.9997 39.6768C40.1279 39.8051 40.1798 39.9536 40.1552 40.1223C40.1306 40.291 40.0392 40.4544 39.8811 40.6125ZM40.1721 39.4781C40.0859 39.3919 40.0367 39.2935 40.0244 39.1828C40.0104 39.0704 40.0297 38.9544 40.0824 38.8349C40.1351 38.7119 40.2186 38.5933 40.3328 38.479C40.3996 38.4123 40.4743 38.3481 40.5569 38.2866C40.6395 38.2251 40.7194 38.1768 40.7968 38.1416L40.6808 38.0257C40.5648 37.9097 40.4383 37.8517 40.3012 37.8517C40.1641 37.8517 40.035 37.9123 39.9137 38.0336C39.8399 38.1074 39.7811 38.1944 39.7371 38.2945C39.6932 38.3912 39.6589 38.5045 39.6343 38.6346L39.4393 38.5766C39.4674 38.4254 39.5096 38.2919 39.5658 38.1759C39.6203 38.0582 39.6923 37.9545 39.7819 37.8649C39.9506 37.6962 40.1325 37.611 40.3276 37.6092C40.5226 37.6074 40.7054 37.6918 40.8758 37.8622L41.5111 38.4975C41.5357 38.5221 41.5594 38.5353 41.5823 38.537C41.6034 38.537 41.6262 38.5265 41.6508 38.5054L41.7931 38.6477C41.7756 38.6688 41.7606 38.6873 41.7483 38.7031C41.736 38.7189 41.7255 38.7295 41.7167 38.7347C41.671 38.7769 41.6236 38.7962 41.5744 38.7927C41.5252 38.7892 41.4847 38.7734 41.4531 38.7453L41.3503 38.6477C41.3679 38.7883 41.3494 38.9298 41.295 39.0721C41.2387 39.2127 41.1596 39.334 41.0577 39.4359C40.9699 39.5237 40.8714 39.5852 40.7625 39.6204C40.6535 39.652 40.5472 39.6564 40.4436 39.6336C40.3399 39.6072 40.2494 39.5554 40.1721 39.4781ZM41.1974 38.6636C41.1922 38.6196 41.1834 38.581 41.1711 38.5476C41.1588 38.5142 41.1438 38.4887 41.1263 38.4711L40.9259 38.2708C40.8433 38.3077 40.7634 38.3525 40.6861 38.4052C40.6105 38.4562 40.5402 38.5142 40.4752 38.5792C40.3469 38.7075 40.2687 38.8367 40.2406 38.9667C40.2125 39.0967 40.2423 39.2057 40.3302 39.2935C40.3812 39.3445 40.4427 39.3796 40.5147 39.399C40.585 39.4166 40.6606 39.4148 40.7414 39.3937C40.8205 39.3709 40.8943 39.3252 40.9628 39.2566C41.0489 39.1705 41.1122 39.0739 41.1526 38.9667C41.1948 38.8577 41.2097 38.7567 41.1974 38.6636ZM40.1982 36.3942L40.3774 36.215L41.9906 37.8282C42.0592 37.8967 42.1163 37.9292 42.162 37.9257C42.2077 37.9222 42.2481 37.9029 42.2832 37.8677C42.3148 37.8361 42.343 37.8009 42.3676 37.7623C42.3922 37.7236 42.4124 37.6894 42.4282 37.6595L42.6048 37.7728C42.5855 37.8203 42.5556 37.873 42.5152 37.931C42.4765 37.9872 42.4396 38.0329 42.4045 38.068C42.3236 38.1489 42.2349 38.1902 42.1382 38.1919C42.0433 38.1919 41.9546 38.1506 41.872 38.068L40.1982 36.3942ZM42.3266 37.3235C42.2405 37.2374 42.1913 37.139 42.179 37.0283C42.1649 36.9158 42.1843 36.7998 42.237 36.6803C42.2897 36.5573 42.3732 36.4387 42.4874 36.3245C42.5542 36.2577 42.6289 36.1936 42.7114 36.1321C42.794 36.0706 42.874 36.0222 42.9513 35.9871L42.8353 35.8711C42.7194 35.7551 42.5928 35.6971 42.4558 35.6971C42.3187 35.6971 42.1895 35.7578 42.0683 35.879C41.9945 35.9528 41.9356 36.0398 41.8917 36.14C41.8477 36.2366 41.8135 36.35 41.7889 36.48L41.5938 36.422C41.6219 36.2709 41.6641 36.1373 41.7203 36.0214C41.7748 35.9036 41.8469 35.7999 41.9365 35.7103C42.1052 35.5416 42.2871 35.4564 42.4821 35.4546C42.6772 35.4529 42.8599 35.5372 43.0304 35.7077L43.6656 36.3429C43.6902 36.3675 43.714 36.3807 43.7368 36.3825C43.7579 36.3825 43.7807 36.3719 43.8053 36.3509L43.9477 36.4932C43.9301 36.5143 43.9152 36.5327 43.9029 36.5485C43.8906 36.5644 43.88 36.5749 43.8712 36.5802C43.8256 36.6224 43.7781 36.6417 43.7289 36.6382C43.6797 36.6347 43.6393 36.6188 43.6077 36.5907L43.5049 36.4932C43.5224 36.6338 43.504 36.7752 43.4495 36.9176C43.3933 37.0582 43.3142 37.1794 43.2123 37.2813C43.1244 37.3692 43.026 37.4307 42.917 37.4658C42.8081 37.4975 42.7018 37.5019 42.5981 37.479C42.4944 37.4527 42.4039 37.4008 42.3266 37.3235ZM43.352 36.509C43.3467 36.4651 43.3379 36.4264 43.3256 36.393C43.3133 36.3596 43.2984 36.3342 43.2808 36.3166L43.0805 36.1163C42.9979 36.1532 42.9179 36.198 42.8406 36.2507C42.765 36.3017 42.6948 36.3596 42.6297 36.4247C42.5015 36.5529 42.4233 36.6821 42.3951 36.8121C42.367 36.9422 42.3969 37.0511 42.4848 37.139C42.5357 37.19 42.5972 37.2251 42.6693 37.2444C42.7396 37.262 42.8151 37.2602 42.896 37.2392C42.975 37.2163 43.0488 37.1706 43.1174 37.1021C43.2035 37.016 43.2667 36.9193 43.3072 36.8121C43.3493 36.7032 43.3643 36.6021 43.352 36.509ZM43.7392 34.2713C43.6233 34.3943 43.5512 34.5332 43.5231 34.6878C43.4967 34.8407 43.5205 34.9909 43.5943 35.1385L44.4483 35.9926L44.2691 36.1718L42.8958 34.7985L43.0645 34.6298L43.3939 34.9593C43.3447 34.8152 43.3289 34.6746 43.3465 34.5376C43.3658 34.3987 43.4159 34.2819 43.4967 34.187C43.5126 34.1676 43.5266 34.1518 43.5389 34.1395C43.553 34.1255 43.5653 34.1149 43.5758 34.1079L43.7392 34.2713ZM45.694 35.5904C45.7204 35.5675 45.745 35.5447 45.7678 35.5218C45.7924 35.5008 45.8082 35.4832 45.8153 35.4691C45.8328 35.4445 45.8407 35.412 45.839 35.3716C45.8372 35.3312 45.8196 35.2679 45.7863 35.1818C45.7529 35.0957 45.7019 34.9709 45.6334 34.8075L43.6617 34.0325L43.8515 33.8428L45.5438 34.5281L44.8189 32.8754L44.9981 32.6961L46.0578 35.1792C46.0788 35.2249 46.0911 35.2741 46.0947 35.3268C46.0999 35.3813 46.092 35.4349 46.0709 35.4876C46.0534 35.5403 46.0191 35.5939 45.9681 35.6484C45.9541 35.6659 45.9374 35.6826 45.9181 35.6984C45.9022 35.7143 45.8812 35.7318 45.8548 35.7512L45.694 35.5904ZM46.7155 32.9346C46.6294 32.8485 46.5802 32.7501 46.5679 32.6394C46.5538 32.5269 46.5732 32.4109 46.6259 32.2914C46.6786 32.1684 46.7621 32.0498 46.8763 31.9356C46.9431 31.8688 47.0178 31.8047 47.1003 31.7432C47.1829 31.6817 47.2629 31.6333 47.3402 31.5982L47.2242 31.4822C47.1083 31.3662 46.9817 31.3083 46.8447 31.3083C46.7076 31.3083 46.5784 31.3689 46.4572 31.4901C46.3834 31.5639 46.3245 31.6509 46.2806 31.7511C46.2366 31.8477 46.2024 31.9611 46.1778 32.0911L45.9827 32.0331C46.0108 31.882 46.053 31.7484 46.1092 31.6325C46.1637 31.5147 46.2358 31.4111 46.3254 31.3214C46.4941 31.1527 46.676 31.0675 46.871 31.0657C47.0661 31.064 47.2488 31.1483 47.4193 31.3188L48.0545 31.954C48.0791 31.9787 48.1029 31.9918 48.1257 31.9936C48.1468 31.9936 48.1696 31.983 48.1942 31.962L48.3366 32.1043C48.319 32.1254 48.3041 32.1438 48.2918 32.1597C48.2795 32.1755 48.2689 32.186 48.2601 32.1913C48.2145 32.2335 48.167 32.2528 48.1178 32.2493C48.0686 32.2458 48.0282 32.2299 47.9966 32.2018L47.8938 32.1043C47.9113 32.2449 47.8929 32.3863 47.8384 32.5287C47.7822 32.6693 47.7031 32.7905 47.6012 32.8924C47.5133 32.9803 47.4149 33.0418 47.3059 33.0769C47.197 33.1086 47.0907 33.113 46.987 33.0901C46.8833 33.0638 46.7928 33.0119 46.7155 32.9346ZM47.7409 32.1201C47.7356 32.0762 47.7268 32.0375 47.7145 32.0041C47.7022 31.9707 47.6873 31.9453 47.6697 31.9277L47.4694 31.7274C47.3868 31.7643 47.3068 31.8091 47.2295 31.8618C47.1539 31.9128 47.0836 31.9707 47.0186 32.0358C46.8903 32.164 46.8121 32.2932 46.784 32.4232C46.7559 32.5533 46.7858 32.6622 46.8737 32.7501C46.9246 32.8011 46.9861 32.8362 47.0582 32.8555C47.1285 32.8731 47.204 32.8713 47.2849 32.8503C47.3639 32.8274 47.4377 32.7817 47.5063 32.7132C47.5924 32.6271 47.6556 32.5304 47.6961 32.4232C47.7382 32.3143 47.7532 32.2132 47.7409 32.1201ZM49.1351 31.3585C49.0226 31.471 48.8996 31.5571 48.766 31.6169C48.6325 31.6766 48.4928 31.7038 48.3469 31.6986L48.2942 31.4982C48.4436 31.493 48.5736 31.4684 48.6843 31.4244C48.795 31.377 48.8943 31.3093 48.9822 31.2215C49.0894 31.1143 49.1553 31.0062 49.1799 30.8973C49.2027 30.7865 49.1737 30.6908 49.0929 30.6099C49.0384 30.5555 48.9804 30.5309 48.9189 30.5361C48.8574 30.5379 48.7871 30.5607 48.708 30.6047C48.629 30.6451 48.5367 30.6969 48.4313 30.7602C48.31 30.8287 48.2028 30.8814 48.1097 30.9183C48.0166 30.9517 47.9313 30.9631 47.854 30.9526C47.7767 30.9385 47.702 30.8955 47.63 30.8234C47.5403 30.7338 47.4885 30.6381 47.4744 30.5361C47.4604 30.4307 47.4771 30.3244 47.5245 30.2172C47.572 30.1065 47.644 30.0028 47.7407 29.9061C47.8461 29.8007 47.9559 29.7243 48.0702 29.6768C48.1844 29.6294 48.2968 29.61 48.4076 29.6188L48.4418 29.8271C48.3364 29.82 48.2362 29.8376 48.1413 29.8798C48.0464 29.9184 47.9577 29.9791 47.8751 30.0617C47.8189 30.1179 47.7732 30.1794 47.738 30.2462C47.7011 30.3112 47.6836 30.378 47.6853 30.4465C47.6871 30.5115 47.7178 30.5739 47.7776 30.6337C47.8268 30.6829 47.8777 30.7092 47.9305 30.7127C47.9814 30.7145 48.0412 30.7004 48.1097 30.6706C48.1765 30.6389 48.2564 30.5976 48.3496 30.5467C48.4814 30.4711 48.6009 30.4096 48.708 30.3622C48.8135 30.313 48.9101 30.2901 48.998 30.2936C49.0859 30.2971 49.1711 30.3402 49.2537 30.4228C49.382 30.5511 49.4338 30.6996 49.4092 30.8683C49.3846 31.037 49.2932 31.2004 49.1351 31.3585ZM51.0328 30.2516C51.0591 30.2288 51.0837 30.2059 51.1066 30.1831C51.1312 30.162 51.147 30.1444 51.154 30.1304C51.1716 30.1058 51.1795 30.0733 51.1777 30.0328C51.176 29.9924 51.1584 29.9292 51.125 29.8431C51.0916 29.7569 51.0407 29.6322 50.9721 29.4688L49.0005 28.6938L49.1903 28.504L50.8825 29.1893L50.1576 27.5366L50.3369 27.3574L51.3965 29.8404C51.4176 29.8861 51.4299 29.9353 51.4334 29.988C51.4387 30.0425 51.4308 30.0961 51.4097 30.1488C51.3921 30.2015 51.3579 30.2551 51.3069 30.3096C51.2928 30.3272 51.2761 30.3439 51.2568 30.3597C51.241 30.3755 51.2199 30.3931 51.1935 30.4124L51.0328 30.2516ZM52.5232 27.9704C52.4248 28.0688 52.315 28.1417 52.1937 28.1892C52.0725 28.2331 51.9486 28.2533 51.822 28.2498C51.6955 28.2428 51.5734 28.2138 51.4557 28.1628C51.3362 28.1101 51.229 28.0363 51.1341 27.9414C51.0357 27.843 50.961 27.7349 50.91 27.6172C50.8573 27.4977 50.8292 27.3747 50.8257 27.2482C50.8204 27.1199 50.8406 26.996 50.8863 26.8765C50.932 26.7535 51.004 26.6428 51.1024 26.5444C51.2009 26.446 51.3107 26.3748 51.4319 26.3309C51.5514 26.2852 51.6753 26.265 51.8036 26.2702C51.9301 26.2737 52.0531 26.3019 52.1726 26.3546C52.2904 26.4055 52.3984 26.4802 52.4968 26.5786C52.5917 26.6735 52.6655 26.7807 52.7183 26.9002C52.7692 27.018 52.7973 27.141 52.8026 27.2692C52.8079 27.394 52.7877 27.5179 52.742 27.6409C52.6963 27.7604 52.6234 27.8702 52.5232 27.9704ZM51.3186 27.7622C51.4205 27.8641 51.5356 27.9353 51.6639 27.9757C51.7922 28.0126 51.9187 28.0178 52.0435 27.9915C52.1665 27.9634 52.2737 27.9036 52.365 27.8122C52.4564 27.7209 52.5153 27.6128 52.5417 27.488C52.568 27.3633 52.5619 27.2359 52.5232 27.1058C52.4828 26.974 52.4125 26.858 52.3123 26.7579C52.2104 26.656 52.0944 26.5857 51.9644 26.547C51.8343 26.5083 51.7069 26.5022 51.5822 26.5286C51.4574 26.5549 51.3493 26.6138 51.258 26.7052C51.1666 26.7965 51.1086 26.9055 51.084 27.032C51.0611 27.1568 51.0691 27.2842 51.1077 27.4142C51.1446 27.5425 51.2149 27.6585 51.3186 27.7622ZM52.8994 26.408L52.0928 25.6014L52.2721 25.4222L53.047 26.1972C53.2034 26.3535 53.3466 26.444 53.4767 26.4687C53.6085 26.4915 53.7271 26.4502 53.8325 26.3448C53.9028 26.2745 53.9555 26.1919 53.9907 26.097C54.0258 25.9986 54.0408 25.8958 54.0355 25.7886C54.0285 25.6796 54.0003 25.5742 53.9511 25.4723L53.0866 24.6077L53.2658 24.4285L54.423 25.5856C54.4476 25.6102 54.4713 25.6234 54.4941 25.6252C54.5152 25.6252 54.5372 25.6155 54.56 25.5962L54.7024 25.7385C54.6831 25.7613 54.6672 25.7789 54.6549 25.7912C54.6444 25.8053 54.6338 25.8176 54.6233 25.8281C54.5846 25.8598 54.5398 25.8764 54.4889 25.8782C54.4397 25.8782 54.3966 25.8615 54.3597 25.8281L54.1699 25.6489C54.2156 25.8141 54.2165 25.9784 54.1726 26.1418C54.1304 26.3035 54.0496 26.444 53.9301 26.5635C53.786 26.7076 53.6269 26.7665 53.453 26.7401C53.279 26.7138 53.0945 26.6031 52.8994 26.408ZM56.4438 24.0498C56.3295 24.1641 56.1969 24.237 56.0457 24.2686C55.8964 24.2985 55.7514 24.2959 55.6108 24.2607L56.4569 25.1068L56.2777 25.2861L54.3429 23.3513L54.5037 23.1905L54.7699 23.4568C54.7383 23.3162 54.7418 23.1738 54.7805 23.0297C54.8174 22.8839 54.8877 22.7591 54.9914 22.6554C55.0863 22.5606 55.1935 22.4938 55.3129 22.4551C55.4307 22.4147 55.5519 22.3989 55.6767 22.4077C55.8015 22.4165 55.9227 22.4481 56.0405 22.5026C56.1582 22.5535 56.2628 22.6247 56.3541 22.7161C56.4824 22.8444 56.5747 22.9893 56.6309 23.151C56.6871 23.3092 56.7012 23.4673 56.6731 23.6255C56.645 23.7836 56.5685 23.9251 56.4438 24.0498ZM56.2355 23.9418C56.3111 23.8662 56.3638 23.7836 56.3937 23.694C56.4218 23.6026 56.4306 23.5095 56.42 23.4146C56.4112 23.3179 56.3858 23.2257 56.3436 23.1378C56.2997 23.0482 56.2425 22.9682 56.1723 22.898C56.0984 22.8241 56.015 22.767 55.9218 22.7266C55.8305 22.6844 55.7356 22.6616 55.6372 22.6581C55.5388 22.6546 55.4439 22.6686 55.3525 22.7003C55.2611 22.7319 55.1794 22.7837 55.1073 22.8558C55.0617 22.9015 55.023 22.9577 54.9914 23.0245C54.9597 23.0913 54.9378 23.1642 54.9255 23.2433C54.9132 23.3188 54.9123 23.3917 54.9228 23.462C54.9334 23.5323 54.958 23.5938 54.9966 23.6466L55.4184 24.0683C55.5115 24.1052 55.6082 24.1263 55.7083 24.1316C55.8067 24.1351 55.9025 24.1219 55.9956 24.092C56.0888 24.0586 56.1687 24.0086 56.2355 23.9418ZM56.837 22.8131C56.7509 22.727 56.7017 22.6286 56.6894 22.5179C56.6753 22.4054 56.6947 22.2894 56.7474 22.1699C56.8001 22.0469 56.8836 21.9283 56.9978 21.8141C57.0646 21.7473 57.1392 21.6832 57.2218 21.6217C57.3044 21.5602 57.3844 21.5119 57.4617 21.4767L57.3457 21.3607C57.2297 21.2447 57.1032 21.1868 56.9662 21.1868C56.8291 21.1868 56.6999 21.2474 56.5787 21.3686C56.5049 21.4424 56.446 21.5294 56.4021 21.6296C56.3581 21.7262 56.3239 21.8396 56.2993 21.9696L56.1042 21.9116C56.1323 21.7605 56.1745 21.627 56.2307 21.511C56.2852 21.3932 56.3573 21.2896 56.4469 21.1999C56.6156 21.0312 56.7975 20.946 56.9925 20.9442C57.1876 20.9425 57.3703 21.0268 57.5408 21.1973L58.176 21.8326C58.2006 21.8572 58.2244 21.8703 58.2472 21.8721C58.2683 21.8721 58.2911 21.8615 58.3157 21.8405L58.4581 21.9828C58.4405 22.0039 58.4256 22.0223 58.4133 22.0382C58.401 22.054 58.3904 22.0645 58.3816 22.0698C58.336 22.112 58.2885 22.1313 58.2393 22.1278C58.1901 22.1243 58.1497 22.1084 58.118 22.0803L58.0152 21.9828C58.0328 22.1234 58.0144 22.2648 57.9599 22.4072C57.9037 22.5478 57.8246 22.669 57.7227 22.7709C57.6348 22.8588 57.5364 22.9203 57.4274 22.9555C57.3185 22.9871 57.2122 22.9915 57.1085 22.9686C57.0048 22.9423 56.9143 22.8904 56.837 22.8131ZM57.8624 21.9986C57.8571 21.9547 57.8483 21.916 57.836 21.8826C57.8237 21.8492 57.8088 21.8238 57.7912 21.8062L57.5909 21.6059C57.5083 21.6428 57.4283 21.6876 57.351 21.7403C57.2754 21.7913 57.2051 21.8492 57.1401 21.9143C57.0118 22.0425 56.9336 22.1717 56.9055 22.3017C56.8774 22.4318 56.9073 22.5407 56.9952 22.6286C57.0461 22.6796 57.1076 22.7147 57.1797 22.734C57.25 22.7516 57.3255 22.7499 57.4064 22.7288C57.4854 22.7059 57.5592 22.6602 57.6278 22.5917C57.7139 22.5056 57.7771 22.4089 57.8176 22.3017C57.8597 22.1928 57.8747 22.0918 57.8624 21.9986ZM59.2566 21.237C59.1441 21.3495 59.0211 21.4356 58.8875 21.4954C58.754 21.5551 58.6143 21.5823 58.4684 21.5771L58.4157 21.3767C58.5651 21.3715 58.6951 21.3469 58.8058 21.3029C58.9165 21.2555 59.0158 21.1878 59.1037 21.1C59.2109 20.9928 59.2768 20.8847 59.3014 20.7758C59.3242 20.665 59.2952 20.5693 59.2144 20.4884C59.1599 20.434 59.1019 20.4094 59.0404 20.4146C58.9789 20.4164 58.9086 20.4392 58.8295 20.4832C58.7505 20.5236 58.6582 20.5754 58.5528 20.6387C58.4315 20.7072 58.3243 20.7599 58.2312 20.7968C58.1381 20.8302 58.0528 20.8417 57.9755 20.8311C57.8982 20.8171 57.8235 20.774 57.7515 20.7019C57.6618 20.6123 57.61 20.5166 57.5959 20.4146C57.5819 20.3092 57.5986 20.2029 57.646 20.0957C57.6935 19.985 57.7655 19.8813 57.8622 19.7847C57.9676 19.6792 58.0774 19.6028 58.1917 19.5553C58.3059 19.5079 58.4183 19.4886 58.529 19.4973L58.5633 19.7056C58.4579 19.6985 58.3577 19.7161 58.2628 19.7583C58.1679 19.797 58.0792 19.8576 57.9966 19.9402C57.9404 19.9964 57.8947 20.0579 57.8595 20.1247C57.8226 20.1897 57.8051 20.2565 57.8068 20.325C57.8086 20.39 57.8393 20.4524 57.8991 20.5122C57.9483 20.5614 57.9992 20.5877 58.0519 20.5912C58.1029 20.593 58.1627 20.5789 58.2312 20.5491C58.298 20.5174 58.3779 20.4761 58.4711 20.4252C58.6029 20.3496 58.7223 20.2881 58.8295 20.2407C58.935 20.1915 59.0316 20.1686 59.1195 20.1721C59.2074 20.1756 59.2926 20.2187 59.3752 20.3013C59.5035 20.4296 59.5553 20.5781 59.5307 20.7468C59.5061 20.9155 59.4147 21.0789 59.2566 21.237ZM60.5308 19.9628C60.4183 20.0753 60.2953 20.1614 60.1617 20.2212C60.0282 20.2809 59.8885 20.3081 59.7426 20.3029L59.6899 20.1025C59.8393 20.0973 59.9693 20.0727 60.08 20.0287C60.1907 19.9813 60.29 19.9136 60.3779 19.8258C60.4851 19.7186 60.551 19.6105 60.5756 19.5016C60.5984 19.3908 60.5694 19.2951 60.4886 19.2142C60.4341 19.1598 60.3761 19.1352 60.3146 19.1404C60.2531 19.1422 60.1828 19.165 60.1037 19.209C60.0247 19.2494 59.9324 19.3012 59.827 19.3645C59.7057 19.433 59.5985 19.4857 59.5054 19.5226C59.4123 19.556 59.327 19.5675 59.2497 19.5569C59.1724 19.5429 59.0977 19.4998 59.0257 19.4278C58.936 19.3381 58.8842 19.2424 58.8701 19.1404C58.8561 19.035 58.8728 18.9287 58.9202 18.8215C58.9677 18.7108 59.0397 18.6071 59.1364 18.5105C59.2418 18.405 59.3516 18.3286 59.4658 18.2811C59.5801 18.2337 59.6925 18.2144 59.8032 18.2231L59.8375 18.4314C59.7321 18.4243 59.6319 18.4419 59.537 18.4841C59.4421 18.5228 59.3534 18.5834 59.2708 18.666C59.2146 18.7222 59.1689 18.7837 59.1337 18.8505C59.0968 18.9155 59.0792 18.9823 59.081 19.0508C59.0828 19.1158 59.1135 19.1782 59.1733 19.238C59.2225 19.2872 59.2734 19.3135 59.3261 19.317C59.3771 19.3188 59.4369 19.3047 59.5054 19.2749C59.5722 19.2432 59.6521 19.2019 59.7453 19.151C59.8771 19.0754 59.9965 19.0139 60.1037 18.9665C60.2092 18.9173 60.3058 18.8944 60.3937 18.8979C60.4816 18.9014 60.5668 18.9445 60.6494 19.0271C60.7777 19.1554 60.8295 19.3039 60.8049 19.4726C60.7803 19.6413 60.6889 19.8047 60.5308 19.9628Z" fill="#010F10"/>
<path d="M12.3782 19.9166L12.8882 19.4066L14.9555 21.4739L16.418 20.0115L16.8652 20.4588L14.8928 22.4312L12.3782 19.9166ZM14.8461 17.4486L16.9875 15.3073L17.4348 15.7545L15.8034 17.3859L16.3054 17.8878L17.7501 16.4431L18.17 16.863L16.7253 18.3078L17.4251 19.0076L19.0902 17.3425L19.5359 17.7881L17.3608 19.9632L14.8461 17.4486ZM18.7926 14.3967L17.8643 15.325L17.4171 14.8777L19.7837 12.5111L20.2309 12.9584L19.3026 13.8867L21.37 15.954L20.86 16.464L18.7926 14.3967ZM20.5012 11.4847C20.558 11.4278 20.6192 11.3849 20.6846 11.356C20.7511 11.326 20.8192 11.3115 20.8889 11.3125C20.9576 11.3125 21.0262 11.3276 21.0949 11.3576C21.1635 11.3876 21.2289 11.4337 21.2911 11.496C21.4316 11.6365 21.518 11.8193 21.5502 12.0446C21.5823 12.2677 21.5566 12.5208 21.4729 12.8039L21.0434 12.7283C21.0659 12.6543 21.0831 12.5867 21.0949 12.5256C21.1077 12.4634 21.1147 12.406 21.1158 12.3535C21.1179 12.2998 21.1152 12.25 21.1077 12.2038C21.1002 12.1556 21.089 12.1078 21.0739 12.0607C21.0214 12.1132 20.9661 12.1534 20.9082 12.1813C20.8514 12.2081 20.7945 12.2242 20.7377 12.2296C20.6808 12.2328 20.6267 12.2258 20.5752 12.2087C20.5237 12.1894 20.4781 12.1599 20.4385 12.1202C20.3988 12.0805 20.3698 12.0354 20.3516 11.985C20.3333 11.9325 20.3264 11.8783 20.3307 11.8225C20.336 11.7657 20.3526 11.7083 20.3805 11.6504C20.4084 11.5925 20.4486 11.5372 20.5012 11.4847ZM23.5934 12.2344C23.736 12.1947 23.8749 12.1491 24.0101 12.0977C24.1452 12.044 24.2777 11.9813 24.4074 11.9094C24.5362 11.8365 24.6632 11.7523 24.7887 11.6568C24.9153 11.5603 25.0413 11.4493 25.1668 11.3238C25.318 11.1726 25.4371 11.0342 25.524 10.9087C25.6098 10.7822 25.6688 10.6685 25.7009 10.5677C25.7331 10.4647 25.7401 10.3741 25.7219 10.2958C25.7047 10.2164 25.6677 10.1483 25.6109 10.0914C25.5197 10.0003 25.4097 9.96649 25.281 9.99008C25.1513 10.0126 25.007 10.1032 24.8483 10.262C24.7785 10.3317 24.7099 10.41 24.6423 10.4969C24.5737 10.5827 24.505 10.6706 24.4364 10.7607C24.3688 10.8497 24.3013 10.9377 24.2337 11.0246C24.1661 11.1093 24.0985 11.1854 24.031 11.253C23.9184 11.3656 23.7956 11.4595 23.6626 11.5346C23.5306 11.6086 23.3955 11.6568 23.2571 11.6794C23.1198 11.7008 22.9842 11.6917 22.8501 11.652C22.716 11.6123 22.5911 11.5346 22.4752 11.4187C22.4066 11.3501 22.3476 11.2729 22.2983 11.1871C22.25 11.1002 22.2157 11.0058 22.1953 10.9039C22.1749 10.7999 22.1712 10.6889 22.184 10.5709C22.1958 10.4518 22.2285 10.3269 22.2822 10.196C22.3369 10.0641 22.4141 9.9268 22.5138 9.78415C22.6136 9.63936 22.7412 9.4892 22.8967 9.33368C23.0094 9.22106 23.129 9.11434 23.2555 9.01352C23.381 8.91163 23.5086 8.81832 23.6384 8.73358C23.7693 8.64778 23.9007 8.57109 24.0326 8.50352C24.1634 8.43488 24.2911 8.37696 24.4155 8.32977L24.6037 8.96526C24.5018 9.00494 24.3973 9.05267 24.29 9.10844C24.1817 9.16314 24.0733 9.22535 23.965 9.29507C23.8567 9.36478 23.7494 9.44201 23.6432 9.52674C23.5371 9.60933 23.4346 9.69996 23.336 9.79863C23.1955 9.93914 23.0898 10.0652 23.019 10.1767C22.9493 10.2872 22.9037 10.3853 22.8823 10.4711C22.8597 10.5559 22.8576 10.6288 22.8758 10.6899C22.8941 10.7489 22.9225 10.7977 22.9611 10.8363C23.0362 10.9114 23.1316 10.9393 23.2475 10.92C23.3622 10.8996 23.4888 10.8202 23.6272 10.6819C23.6829 10.6261 23.743 10.5585 23.8073 10.4792C23.8717 10.3977 23.9387 10.3124 24.0085 10.2234C24.0792 10.1333 24.1522 10.0432 24.2273 9.95308C24.3023 9.86084 24.379 9.77557 24.4573 9.69728C24.6053 9.54926 24.7528 9.43504 24.8997 9.35459C25.0478 9.27308 25.1915 9.22482 25.3309 9.2098C25.4693 9.19371 25.6023 9.2098 25.7299 9.25806C25.8565 9.30526 25.9739 9.38302 26.0822 9.49135C26.227 9.63614 26.3225 9.79917 26.3686 9.98043C26.4147 10.1595 26.4147 10.3505 26.3686 10.5532C26.3225 10.7537 26.2324 10.9618 26.0983 11.1774C25.9632 11.3919 25.7884 11.6064 25.5738 11.8209C25.4323 11.9625 25.2848 12.0918 25.1314 12.2087C24.9791 12.3266 24.8247 12.4318 24.6681 12.524C24.5115 12.6141 24.3544 12.6929 24.1967 12.7605C24.039 12.8259 23.8851 12.879 23.735 12.9198L23.5934 12.2344ZM11.9257 30.4878L14.3438 28.0698C14.6392 27.7744 14.9278 27.5495 15.2097 27.395C15.4915 27.2367 15.7599 27.1402 16.0147 27.1054C16.2696 27.0707 16.508 27.0948 16.73 27.1778C16.952 27.257 17.1509 27.3844 17.3266 27.5601C17.6142 27.8477 17.7754 28.1904 17.8102 28.5881C18.1422 28.5032 18.4579 28.508 18.7571 28.6026C19.0564 28.6972 19.3315 28.87 19.5825 29.121C19.7929 29.3314 19.9474 29.5573 20.0458 29.7986C20.1462 30.038 20.1848 30.2909 20.1617 30.5573C20.1385 30.8199 20.0497 31.094 19.8952 31.3798C19.7408 31.6616 19.5149 31.9512 19.2176 32.2485L16.452 35.0141L11.9257 30.4878ZM16.4346 29.454C16.5138 29.3748 16.5939 29.3005 16.675 29.231C16.6808 28.9781 16.6045 28.7725 16.4462 28.6142C16.2821 28.4501 16.091 28.3883 15.8728 28.4289C15.6547 28.4655 15.422 28.6074 15.1749 28.8545L13.6517 30.3778L14.5812 31.3074L16.4346 29.454ZM18.4415 31.4261C18.6886 31.179 18.8228 30.9386 18.844 30.705C18.8672 30.4695 18.7822 30.2552 18.5892 30.0621C18.3961 29.8691 18.1809 29.7832 17.9434 29.8044C17.7079 29.8237 17.4665 29.9569 17.2194 30.204L15.3487 32.0748L16.5707 33.2969L18.4415 31.4261ZM17.37 25.0435L21.2244 21.1891L22.0295 21.9942L19.0931 24.9306L19.9966 25.8341L22.5971 23.2336L23.3529 23.9894L20.7524 26.59L22.0121 27.8497L25.0094 24.8524L25.8116 25.6546L21.8963 29.5698L17.37 25.0435ZM24.2159 22.6399C23.8974 22.3214 23.6599 21.9642 23.5035 21.5685C23.3452 21.1708 23.2786 20.7547 23.3037 20.3203C23.3288 19.8859 23.4495 19.4429 23.6657 18.9911C23.8838 18.5374 24.2092 18.0943 24.6416 17.6619C24.798 17.5055 24.9631 17.3578 25.1368 17.2188C25.3106 17.076 25.4911 16.9456 25.6783 16.8279C25.8675 16.7082 26.0616 16.603 26.2604 16.5122C26.4593 16.4176 26.661 16.3414 26.8657 16.2834L27.1379 17.4013C27.0124 17.4341 26.8811 17.4823 26.744 17.5461C26.605 17.6078 26.4651 17.6841 26.3241 17.7748C26.1832 17.8617 26.0442 17.9602 25.9071 18.0702C25.772 18.1783 25.6426 18.2942 25.5191 18.4177C25.2333 18.7034 25.0152 18.995 24.8646 19.2923C24.7121 19.5877 24.6242 19.8782 24.6011 20.1639C24.576 20.4477 24.6136 20.7209 24.714 20.9835C24.8144 21.246 24.9727 21.4854 25.1889 21.7017C25.4129 21.9256 25.661 22.0888 25.9332 22.1911C26.2054 22.2934 26.4873 22.3339 26.7788 22.3127C27.0703 22.2915 27.3657 22.2085 27.6649 22.0637C27.9622 21.9169 28.248 21.7065 28.5221 21.4324C28.7403 21.2142 28.916 20.9902 29.0492 20.7605C29.1805 20.5288 29.2683 20.3001 29.3127 20.0742C29.3571 19.8483 29.3581 19.6292 29.3156 19.4168C29.2712 19.2025 29.1824 19.0017 29.0492 18.8145L27.468 20.3956L26.7122 19.6398L29.1187 17.2333L29.1216 17.2362V17.2304C29.4015 17.4138 29.6419 17.6252 29.8427 17.8646C30.0434 18.1001 30.1998 18.3569 30.3118 18.6349C30.4238 18.9091 30.4894 19.1986 30.5087 19.5037C30.528 19.8087 30.4971 20.1195 30.416 20.4362C30.333 20.7509 30.1979 21.0675 30.0106 21.386C29.8214 21.7026 29.5762 22.0115 29.2751 22.3127C28.8542 22.7336 28.415 23.0492 27.9574 23.2597C27.5018 23.4682 27.051 23.5811 26.605 23.5985C26.1591 23.6159 25.7305 23.5425 25.3193 23.3784C24.91 23.2124 24.5422 22.9662 24.2159 22.6399ZM28.1196 14.294L29.0434 13.3702L33.5697 17.8965L32.6459 18.8202L28.1196 14.294ZM30.2104 12.2031L31.1284 11.2851L35.4259 9.94141L33.949 8.4645L34.867 7.5465L39.3933 12.0728L38.4753 12.9908L36.399 10.9144L32.1101 12.2668L35.6547 15.8114L34.7367 16.7294L30.2104 12.2031Z" fill="#010F10"/>
<path d="M5.70866 36.0846L5.05586 26.9924L14.8009 36.7374L5.70866 36.0846Z" fill="#010F10"/>
<defs>
<filter id="filter0_ddddii_1604_18661" x="22.6101" y="18.2497" width="64.2988" height="64.2988" filterUnits="userSpaceOnUse" color-interpolation-filters="sRGB">
<feFlood flood-opacity="0" result="BackgroundImageFix"/>
<feColorMatrix in="SourceAlpha" type="matrix" values="0 0 0 0 0 0 0 0 0 0 0 0 0 0 0 0 0 0 127 0" result="hardAlpha"/>
<feOffset dx="2.32984" dy="2.32984"/>
<feGaussianBlur stdDeviation="3.02879"/>
<feColorMatrix type="matrix" values="0 0 0 0 0.737255 0 0 0 0 0.74902 0 0 0 0 0.752941 0 0 0 0.9 0"/>
<feBlend mode="normal" in2="BackgroundImageFix" result="effect1_dropShadow_1604_18661"/>
<feColorMatrix in="SourceAlpha" type="matrix" values="0 0 0 0 0 0 0 0 0 0 0 0 0 0 0 0 0 0 127 0" result="hardAlpha"/>
<feOffset dx="-2.32984" dy="-2.32984"/>
<feGaussianBlur stdDeviation="2.32984"/>
<feColorMatrix type="matrix" values="0 0 0 0 0.996078 0 0 0 0 0.996078 0 0 0 0 0.996078 0 0 0 0.9 0"/>
<feBlend mode="normal" in2="effect1_dropShadow_1604_18661" result="effect2_dropShadow_1604_18661"/>
<feColorMatrix in="SourceAlpha" type="matrix" values="0 0 0 0 0 0 0 0 0 0 0 0 0 0 0 0 0 0 127 0" result="hardAlpha"/>
<feOffset dx="2.32984" dy="-2.32984"/>
<feGaussianBlur stdDeviation="2.32984"/>
<feColorMatrix type="matrix" values="0 0 0 0 0.737255 0 0 0 0 0.74902 0 0 0 0 0.752941 0 0 0 0.1 0"/>
<feBlend mode="normal" in2="effect2_dropShadow_1604_18661" result="effect3_dropShadow_1604_18661"/>
<feColorMatrix in="SourceAlpha" type="matrix" values="0 0 0 0 0 0 0 0 0 0 0 0 0 0 0 0 0 0 127 0" result="hardAlpha"/>
<feOffset dx="-2.32984" dy="2.32984"/>
<feGaussianBlur stdDeviation="2.32984"/>
<feColorMatrix type="matrix" values="0 0 0 0 0.737255 0 0 0 0 0.74902 0 0 0 0 0.752941 0 0 0 0.1 0"/>
<feBlend mode="normal" in2="effect3_dropShadow_1604_18661" result="effect4_dropShadow_1604_18661"/>
<feBlend mode="normal" in="SourceGraphic" in2="effect4_dropShadow_1604_18661" result="shape"/>
<feColorMatrix in="SourceAlpha" type="matrix" values="0 0 0 0 0 0 0 0 0 0 0 0 0 0 0 0 0 0 127 0" result="hardAlpha"/>
<feOffset dx="-0.465968" dy="-0.465968"/>
<feGaussianBlur stdDeviation="0.465968"/>
<feComposite in2="hardAlpha" operator="arithmetic" k2="-1" k3="1"/>
<feColorMatrix type="matrix" values="0 0 0 0 0.737255 0 0 0 0 0.74902 0 0 0 0 0.752941 0 0 0 0.3 0"/>
<feBlend mode="normal" in2="shape" result="effect5_innerShadow_1604_18661"/>
<feColorMatrix in="SourceAlpha" type="matrix" values="0 0 0 0 0 0 0 0 0 0 0 0 0 0 0 0 0 0 127 0" result="hardAlpha"/>
<feOffset dx="0.465968" dy="0.465968"/>
<feGaussianBlur stdDeviation="0.465968"/>
<feComposite in2="hardAlpha" operator="arithmetic" k2="-1" k3="1"/>
<feColorMatrix type="matrix" values="0 0 0 0 0.996078 0 0 0 0 0.996078 0 0 0 0 0.996078 0 0 0 0.3 0"/>
<feBlend mode="normal" in2="effect5_innerShadow_1604_18661" result="effect6_innerShadow_1604_18661"/>
</filter>
<clipPath id="clip0_1604_18661">
<rect width="15.3769" height="15.3769" fill="white" transform="translate(34.7744 58.1133) rotate(-45)"/>
</clipPath>
</defs>
</svg>
