<svg width="79" height="75" viewBox="0 0 79 75" fill="none" xmlns="http://www.w3.org/2000/svg">
<mask id="mask0_1604_19185" style="mask-type:alpha" maskUnits="userSpaceOnUse" x="0" y="21" width="54" height="54">
<rect x="0.535156" y="50.3438" width="40.7597" height="34.324" transform="rotate(-45 0.535156 50.3438)" fill="#D9D9D9"/>
</mask>
<g mask="url(#mask0_1604_19185)">
<path d="M-14.3361 111.226L-23.6177 101.945C-23.6177 101.945 -1.81134 83.8753 -1.50074 83.4194C-1.10753 82.8411 0.537984 80.0986 2.67418 76.5019C3.34329 75.3768 4.06031 74.1675 4.80211 72.9135C6.80614 69.525 8.9919 65.8127 10.8918 62.5844C13.7434 57.7503 15.9424 53.9785 15.9424 53.9785L23.8098 61.8459C23.8098 61.8459 21.8206 65.6689 19.1954 70.6071C14.9313 78.6348 8.98859 89.6099 7.18117 91.9162C4.25691 95.6434 -14.3361 111.226 -14.3361 111.226Z" fill="#37474F"/>
<path d="M1.57041 83.8497C2.60794 82.2041 3.4687 80.4347 4.38894 78.7182C6.26134 75.2377 8.12659 71.7534 9.98468 68.2652C10.9143 66.5227 11.8428 64.7781 12.7702 63.0313C13.2361 62.149 13.7036 61.2684 14.1662 60.3829C14.6288 59.4974 15.0369 58.63 15.5209 57.7725C15.7159 57.4256 15.5259 57.533 15.2797 57.9741C14.7824 58.8613 14.2818 59.7485 13.7928 60.6406C12.8247 62.4084 11.8604 64.1778 10.9 65.9489C8.98569 69.4734 7.0797 73.0029 5.18196 76.5374C4.22923 78.3073 3.27761 80.0784 2.32709 81.8506C1.88162 82.7057 1.38508 83.5333 0.840177 84.3288C0.250043 85.1363 -0.431899 85.8726 -1.19194 86.5228C-2.70198 87.8544 -14.9178 97.6449 -17.999 100.217C-18.3905 100.543 -18.7788 100.868 -19.1637 101.2C-19.2943 101.311 -19.2249 101.41 -19.096 101.308C-15.9966 98.8195 -5.42963 90.4829 -2.37981 87.9552C-1.61488 87.3224 -0.840031 86.6963 -0.137879 85.9941C0.509419 85.3449 1.08238 84.6257 1.57041 83.8497Z" fill="#382626"/>
<path opacity="0.1" d="M22.9121 60.958C18.1408 64.6356 9.17634 71.5184 2.66862 76.5061C7.8596 67.7664 15.9385 53.9844 15.9385 53.9844L22.9121 60.958Z" fill="#010F10"/>
<path d="M23.5497 61.5965C23.5497 61.5965 19.6044 65.1783 15.7616 67.2996C15.446 67.4764 15.1222 67.6515 14.8166 67.7953C13.7088 67.3232 12.5602 66.9533 11.3851 66.69C11.3851 66.69 8.26591 69.6275 4.79976 72.9152C0.922222 76.5912 -3.39478 80.6967 -4.26544 81.6136C-7.53004 85.0335 -24.4858 101.345 -24.4858 101.345L-33.8038 92.0996C-33.8038 92.0996 -13.5239 74.8234 -12.3129 73.5926C-10.3618 71.6084 -1.19745 63.3758 5.51513 57.3869C7.96767 55.191 10.57 53.1683 13.3032 51.3335L23.5497 61.5965Z" fill="#37474F"/>
<path d="M12.2649 53.0001C6.92191 58.0127 1.55747 63.0037 -3.84828 67.9469C-9.25403 72.89 -27.1663 88.7108 -30.3665 91.2864C-30.3847 91.3046 -30.3649 91.3409 -30.3368 91.3162C-24.5246 86.8554 -18.4613 81.1986 -12.9597 76.3611C-7.45817 71.5237 -2.05903 66.574 3.29385 61.5746C6.32054 58.7462 9.3274 55.8946 12.3425 53.0546C12.3772 53.02 12.3062 52.9588 12.2649 53.0001Z" fill="#382626"/>
<path d="M14.9212 67.9115C13.7421 67.3554 12.5165 66.9037 11.2585 66.5617C11.2486 66.558 11.2377 66.5583 11.2281 66.5627C11.2185 66.567 11.211 66.575 11.2073 66.5848C11.2035 66.5947 11.2039 66.6056 11.2082 66.6152C11.2126 66.6248 11.2205 66.6323 11.2304 66.636C12.4381 67.1168 13.6458 67.6306 14.8783 68.047C14.8929 68.0447 14.9065 68.0383 14.9177 68.0287C14.9289 68.0191 14.9372 68.0066 14.9416 67.9925C14.9461 67.9784 14.9465 67.9634 14.9429 67.9491C14.9393 67.9348 14.9318 67.9218 14.9212 67.9115Z" fill="#382626"/>
<path d="M20.5752 62.8436C20.6017 62.8172 20.5554 62.7577 20.5224 62.7907C19.6507 63.6559 18.7318 64.4722 17.7699 65.2359C17.3272 65.596 14.7515 67.4514 14.1534 66.5394C14.0526 66.3858 14.1039 66.209 14.2608 66.0124C14.4947 65.7862 14.7581 65.5928 15.0439 65.4374C15.5941 65.0591 16.1277 64.6642 16.6415 64.2396C17.6056 63.4612 18.479 62.5767 19.2453 61.6029C19.2518 61.5963 19.2555 61.5874 19.2555 61.5781C19.2555 61.5688 19.2518 61.5599 19.2453 61.5533C19.2387 61.5467 19.2298 61.543 19.2205 61.543C19.2112 61.543 19.2023 61.5467 19.1957 61.5533C18.0013 62.7803 16.7089 63.908 15.3314 64.9253C14.6573 65.4044 13.4711 65.9529 14.0378 66.6914C14.6045 67.4299 16.5077 66.4287 16.9885 66.1132C18.3324 65.1981 19.54 64.0973 20.5752 62.8436Z" fill="#382626"/>
<path d="M14.1243 66.6072C13.8972 66.7033 13.6765 66.8136 13.4634 66.9376C13.2836 67.0197 13.1205 67.1346 12.9827 67.2763C12.9562 67.3028 12.9926 67.3424 13.024 67.3408C13.2257 67.2949 13.4195 67.2192 13.5989 67.1161C13.8104 67.0203 14.0235 66.9261 14.2267 66.8187C14.2497 66.8024 14.2661 66.7784 14.273 66.7512C14.28 66.7239 14.2771 66.695 14.2648 66.6697C14.2526 66.6443 14.2317 66.6242 14.206 66.6127C14.1803 66.6013 14.1513 66.5994 14.1243 66.6072Z" fill="#382626"/>
<path d="M33.6806 49.0232C34.4704 57.0459 32.8166 68.6851 29.2744 70.1522C26.8838 71.1418 26.8442 61.3876 27.1068 61.0853C27.3067 60.8623 29.7106 53.1948 31.1826 48.5407C32.6547 43.8867 33.5154 47.3446 33.6806 49.0232Z" fill="#DD6A57"/>
<path d="M33.6806 49.0232C34.4704 57.0459 32.8166 68.6851 29.2744 70.1522C26.8838 71.1418 26.8442 61.3876 27.1068 61.0853C27.3067 60.8623 29.7106 53.1948 31.1826 48.5407C32.6547 43.8867 33.5154 47.3446 33.6806 49.0232Z" fill="#F0F7F7"/>
<path opacity="0.1" d="M31.1868 48.5446C29.7148 53.1986 27.3142 60.8628 27.111 61.0924C26.9673 61.2527 26.9144 64.134 27.2647 66.6221L32.6027 46.2101C32.226 46.1705 31.7535 46.7619 31.1868 48.5446Z" fill="#010F10"/>
<path d="M21.9395 66.1978L9.53204 53.7903C9.53864 53.7176 10.0326 52.4207 10.4886 52.0804C12.1143 50.871 26.0599 43.6992 29.4203 43.4877C31.3302 43.3654 33.0219 45.7676 32.8551 46.9224C32.1 51.9102 25.7361 63.3594 23.7089 65.4427C23.2777 65.8839 22.0006 66.1961 21.9395 66.1978Z" fill="#F0F7F7"/>
<path d="M28.7133 48.4566L30.448 48.0105L30.2878 49.5652L29.2602 50.1335L28.4671 49.4429L28.7133 48.4566Z" fill="#382626"/>
<path d="M28.4665 49.4429L19.9019 57.2475L18.9023 61.1152L22.3883 59.549L29.2595 50.1335L28.4665 49.4429Z" fill="#382626"/>
<path d="M30.4473 48.0098C27.5924 52.0343 21.7455 59.7944 17.4484 61.8942C18.8576 61.1458 20.0438 60.0455 21.1838 58.9452C22.3238 57.8449 23.3977 56.6553 24.4385 55.4493C26.5317 53.0454 28.5159 50.5458 30.4473 48.0098Z" fill="#382626"/>
<path opacity="0.1" d="M21.9431 51.1431L21.6556 49.6198L23.7819 47.8834L25.9445 50.2509L23.7786 52.0269L21.9431 51.1431ZM21.7861 49.6644L22.0471 51.0555L23.7604 51.8832L25.7743 50.2294L23.7686 48.0354L21.7861 49.6644Z" fill="#010F10"/>
<path opacity="0.1" d="M26.8039 56.0279L26.3414 54.5972L28.1752 52.4957L29.8571 53.9694L28.0612 56.0296L26.8039 56.0279ZM26.4735 54.6236L26.8899 55.9123L28.0083 55.9139L29.7001 53.971L28.195 52.6543L26.4735 54.6236Z" fill="#010F10"/>
<path d="M28.3377 52.3078L29.9832 53.6724L30.2261 53.2974L28.6368 52.0087L28.3377 52.3078Z" fill="#FFC727"/>
<path d="M26.4572 48.468C26.2286 48.6836 25.9815 48.8788 25.7188 49.0512C25.5255 49.1354 25.0777 48.8034 25.0777 48.8034C25.0777 48.8034 24.8415 48.359 24.9142 48.2202C25.1471 47.9818 25.3997 47.7635 25.6692 47.5676C25.7495 47.6642 25.8511 47.7409 25.9661 47.7916C26.081 47.8424 26.2062 47.8658 26.3317 47.86C26.2901 47.9624 26.2798 48.0748 26.3022 48.1831C26.3245 48.2913 26.3785 48.3905 26.4572 48.468Z" fill="#FFC727"/>
<path d="M8.50223 54.5843L21.293 67.375L22.2033 66.4647L9.41255 53.6739L8.50223 54.5843Z" fill="#382626"/>
<path d="M17.7905 64.3711L15.2297 61.8103L16.6406 60.3994L19.2014 62.9602L17.7905 64.3711ZM15.8906 61.8103L17.7905 63.7103L18.5406 62.9602L16.6406 61.0603L15.8906 61.8103Z" fill="#F0F7F7"/>
<path d="M27.1631 42.5589C19.2048 41.2652 7.4863 42.1888 5.79287 45.6401C4.65456 47.9613 14.3839 48.6139 14.7011 48.3661C14.9374 48.1794 22.7453 46.2695 27.4786 45.0849C32.212 43.9004 28.8284 42.8298 27.1631 42.5589Z" fill="#DD6A57"/>
<path d="M27.1631 42.5589C19.2048 41.2652 7.4863 42.1888 5.79287 45.6401C4.65456 47.9613 14.3839 48.6139 14.7011 48.3661C14.9374 48.1794 22.7453 46.2695 27.4786 45.0849C32.212 43.9004 28.8284 42.8298 27.1631 42.5589Z" fill="#F0F7F7"/>
<path d="M25.5031 45.5705C21.9543 46.6477 18.3378 47.5844 14.7081 48.3593C18.2569 47.2821 21.8734 46.3453 25.5031 45.5705Z" fill="#382626"/>
<path d="M24.8144 46.1073C24.3203 46.2677 23.7907 46.2838 23.2878 46.1536C23.7405 46.1371 24.365 46.0974 24.8144 46.1073Z" fill="#382626"/>
<path d="M17.6067 37.4907L24.2686 70.8604L26.1268 70.4894L19.4649 37.1197L17.6067 37.4907Z" fill="#382626"/>
<path d="M16.9491 67.2967L23.3027 66.0283L22.9318 64.1701L16.5782 65.4385L16.9491 67.2967Z" fill="#382626"/>
<path d="M28.3038 70.3635C26.6731 69.6118 26.2568 68.5247 23.6745 61.8848C23.3177 60.9662 28.3368 56.489 29.1034 57.2126C30.3095 58.3559 31.9434 63.6873 32.0425 64.0507C32.8009 67.1584 29.414 70.8757 28.3038 70.3635Z" fill="#DD6A57"/>
<path d="M20.4163 54.4307C19.9405 55.1245 20.6641 55.6037 20.6641 55.6037C20.3072 55.6914 19.9926 55.902 19.7753 56.1984C19.4184 56.737 20.1057 57.5201 20.1057 57.5201C19.7552 57.6889 19.4639 57.9595 19.2697 58.2966C18.9773 58.8468 19.5555 59.7488 19.5555 59.7488C19.3197 60.0815 19.2113 60.4878 19.2499 60.8938C19.3969 61.9726 20.9103 62.6665 21.8751 63.0993C23.3108 63.742 25.979 63.899 26.5672 64.0245L29.8301 58.2834C29.5607 57.7278 29.1793 57.234 28.71 56.8328C27.3949 55.7524 25.2785 54.5876 24.5301 54.3051C23.3273 53.8822 20.8806 53.7483 20.4163 54.4307Z" fill="#DD6A57"/>
<path d="M20.7539 55.5241C21.9088 55.5885 22.9843 55.99 24.078 56.3303C24.0815 56.3329 24.0842 56.3365 24.0855 56.3406C24.0869 56.3448 24.087 56.3492 24.0857 56.3534C24.0844 56.3576 24.0819 56.3613 24.0785 56.3639C24.075 56.3666 24.0708 56.3681 24.0664 56.3683C22.981 56.0164 21.8394 55.8859 20.744 55.5769C20.7143 55.5703 20.7143 55.5307 20.7539 55.5241Z" fill="#382626"/>
<path d="M20.1636 57.4619C20.4273 57.5027 20.6841 57.5794 20.9269 57.6899C21.1896 57.784 21.4523 57.8848 21.71 57.9905C22.2288 58.202 22.7426 58.4217 23.2515 58.6597C23.268 58.6762 23.263 58.7076 23.2366 58.6977C22.7211 58.4895 22.199 58.2879 21.6737 58.1029C21.411 58.0087 21.1516 57.9112 20.8823 57.827C20.6271 57.7603 20.3804 57.6644 20.1471 57.5412C20.1366 57.539 20.1274 57.5327 20.1215 57.5237C20.1156 57.5147 20.1135 57.5038 20.1157 57.4933C20.1179 57.4827 20.1242 57.4735 20.1332 57.4676C20.1422 57.4618 20.1531 57.4597 20.1636 57.4619Z" fill="#382626"/>
<path d="M19.577 59.7702C19.8133 59.8089 20.0409 59.8889 20.2495 60.0064L20.95 60.2972C21.4175 60.4905 21.8851 60.6838 22.3642 60.8655C22.3677 60.8681 22.3703 60.8717 22.3717 60.8758C22.3731 60.88 22.3732 60.8845 22.3719 60.8886C22.3706 60.8928 22.3681 60.8965 22.3646 60.8992C22.3612 60.9018 22.357 60.9033 22.3526 60.9035C21.8685 60.7267 21.3812 60.5533 20.9004 60.3732C20.6625 60.2807 20.4229 60.1898 20.1867 60.0956C19.9607 60.0344 19.7474 59.9332 19.5572 59.7966C19.5537 59.794 19.5514 59.7901 19.5508 59.7857C19.5502 59.7814 19.5513 59.777 19.5539 59.7735C19.5565 59.77 19.5605 59.7676 19.5648 59.767C19.5691 59.7664 19.5735 59.7675 19.577 59.7702Z" fill="#382626"/>
<path d="M30.5039 59.1357L25.1428 66.7339C25.1428 66.7339 27.3566 70.7683 28.6188 70.5073C29.8811 70.2463 32.0552 67.7317 32.2221 65.1329C32.3592 63.0265 30.5039 59.1357 30.5039 59.1357Z" fill="#F0F7F7"/>
<path d="M31.319 60.4126L30.0254 57.6816L24.2463 65.5623L25.7249 67.9364L31.319 60.4126Z" fill="#F0F7F7"/>
<path d="M30.9727 60.877C29.4179 63.2367 27.73 65.506 25.9172 67.6738C27.4725 65.3173 29.1586 63.0497 30.9677 60.8819L30.9727 60.877Z" fill="#382626"/>
<path d="M29.7293 58.0867C29.8251 57.9281 29.9275 57.7728 30.0283 57.6191C30.5339 58.5377 31.0014 59.4778 31.4541 60.4261C31.4227 60.4575 31.2724 60.6706 31.2426 60.7103L31.2592 60.6012C31.4558 61.1514 31.6408 61.7032 31.7911 62.2666C31.9557 62.8264 32.074 63.3989 32.1447 63.9782C31.996 63.4164 31.8126 62.8663 31.6243 62.3178C31.4359 61.7693 31.2278 61.1844 31.013 60.6161C31.0378 60.5913 31.1931 60.3732 31.2195 60.3369L31.2063 60.4558C30.78 59.5439 30.367 58.6253 29.9903 57.6902L30.0465 57.6968C29.9408 57.8257 29.8334 57.9529 29.7227 58.0801L29.7293 58.0867Z" fill="#382626"/>
<path d="M32.2865 63.139C32.1379 62.9242 31.9759 62.6533 31.8405 62.4286C31.7942 62.3493 31.7446 62.27 31.7033 62.1824C32.0103 62.4173 32.2183 62.7585 32.2865 63.139Z" fill="#382626"/>
<path d="M5.64988 46.223C6.02656 47.9214 7.95789 49.9981 15.0092 51.072C15.9823 51.219 19.2518 45.3391 18.3762 44.751C16.995 43.8192 11.4439 43.3896 11.0606 43.383C7.84059 43.3186 5.38223 45.0335 5.64988 46.223Z" fill="#DD6A57"/>
<path d="M25.3085 46.2975C25.33 47.1385 24.4627 47.1434 24.4627 47.1434C24.7133 47.412 24.8623 47.7597 24.884 48.1264C24.8939 48.7774 23.8828 49.0681 23.8828 49.0681C24.0837 49.4011 24.1803 49.7867 24.1603 50.1751C24.1124 50.788 23.131 51.2374 23.131 51.2374C23.1482 51.6448 23.018 52.0448 22.7643 52.3641C22.0522 53.1918 20.4067 52.9473 19.3642 52.7904C17.8063 52.5541 15.4883 51.2275 14.92 51.016L15.3016 44.4191C15.8291 44.0971 16.4175 43.8879 17.0298 43.8045C18.658 43.6546 20.2987 43.709 21.9134 43.9664C23.1641 44.2522 25.2887 45.4715 25.3085 46.2975Z" fill="#DD6A57"/>
<path d="M24.4341 47.0259C23.428 46.4526 22.3078 46.2048 21.2059 45.8959C21.1794 45.8893 21.1712 45.9306 21.1943 45.9339C22.2963 46.2296 23.3222 46.7401 24.4126 47.0771C24.4457 47.097 24.4556 47.0474 24.4341 47.0259Z" fill="#382626"/>
<path d="M23.8791 48.9848C23.6376 48.8731 23.3819 48.7953 23.1191 48.7535C22.8498 48.6924 22.5755 48.6362 22.293 48.5883C21.7412 48.4793 21.1911 48.3884 20.636 48.3124C20.6128 48.3091 20.6013 48.3471 20.6277 48.3504C21.1778 48.4611 21.7247 48.5751 22.2616 48.699C22.5293 48.7618 22.7969 48.8246 23.0745 48.9006C23.3256 48.9818 23.5849 49.035 23.8477 49.0592C23.8575 49.0633 23.8686 49.0634 23.8786 49.0594C23.8885 49.0554 23.8964 49.0476 23.9005 49.0377C23.9047 49.0278 23.9048 49.0167 23.9008 49.0068C23.8967 48.9969 23.8889 48.989 23.8791 48.9848Z" fill="#382626"/>
<path d="M23.106 51.2321C22.8866 51.1384 22.6533 51.0815 22.4154 51.0636L21.662 50.9315C21.1598 50.8389 20.6575 50.7464 20.1586 50.6374C20.1539 50.6373 20.1493 50.6389 20.1456 50.6418C20.1418 50.6447 20.1392 50.6487 20.138 50.6533C20.1369 50.6579 20.1373 50.6627 20.1393 50.667C20.1412 50.6713 20.1445 50.6748 20.1487 50.677C20.6542 50.7894 21.1581 50.91 21.667 51.019C21.9148 51.0719 22.1626 51.1248 22.4137 51.1743C22.6367 51.2424 22.8699 51.2709 23.1027 51.2586C23.1056 51.258 23.1082 51.2565 23.1102 51.2544C23.1123 51.2522 23.1135 51.2495 23.1139 51.2466C23.1143 51.2436 23.1137 51.2407 23.1123 51.2381C23.1109 51.2355 23.1087 51.2334 23.106 51.2321Z" fill="#382626"/>
<path d="M13.578 50.9756L13.5301 43.5691C13.5301 43.5691 10.8256 43.0719 9.23291 43.475C7.64026 43.8781 5.81962 44.5753 5.59328 45.8193C5.36694 47.0634 7.07358 49.8208 13.578 50.9756Z" fill="#F0F7F7"/>
<path d="M13.1515 51.2866L15.7304 51.7905L15.5156 43.249L12.9053 43.0937L13.1515 51.2866Z" fill="#F0F7F7"/>
<path d="M13.1446 51.0983C12.911 48.5535 12.8359 45.9966 12.9199 43.4424C13.1559 45.9854 13.2326 48.5407 13.1496 51.0934L13.1446 51.0983Z" fill="#382626"/>
<path d="M15.5362 43.8506C15.5147 43.6506 15.4998 43.4507 15.48 43.2459L15.5114 43.2773C15.0752 43.2707 14.6391 43.2508 14.2045 43.2393L12.8977 43.1748L12.9886 43.084C12.9968 43.2343 13.0051 43.3979 13.0001 43.5383C11.936 43.4119 10.8649 43.3539 9.79337 43.3648C10.8331 43.2406 11.8838 43.2379 12.9241 43.3566L12.8316 43.4491C12.825 43.3004 12.8217 43.1484 12.8201 42.9981L12.9126 43.0047L14.2211 43.0906C14.6655 43.1319 15.1099 43.1633 15.5543 43.2145C15.5527 43.4243 15.551 43.6341 15.5428 43.8439L15.5362 43.8506Z" fill="#382626"/>
<path d="M11.3583 43.3339C11.076 43.296 10.7996 43.2227 10.5356 43.1158C10.6803 43.091 10.8287 43.0976 10.9707 43.1353C11.1126 43.1729 11.2449 43.2406 11.3583 43.3339Z" fill="#382626"/>
<path d="M15.7184 51.3889C15.7399 51.5359 15.7531 51.6846 15.7696 51.83L15.7234 51.8234C14.8526 51.7182 13.9895 51.557 13.1395 51.341L13.0982 51.3294L13.0949 51.2897C13.0899 51.1526 13.0833 51.0171 13.0849 50.88L13.1114 50.9065C12.743 50.8189 12.8024 50.8189 13.1395 50.8486C13.1676 50.9924 13.1841 51.1345 13.2072 51.2798L13.1593 51.2319C13.5955 51.2881 14.02 51.3624 14.4562 51.455C14.8924 51.5475 15.3087 51.6466 15.7432 51.7507L15.7052 51.7887C15.7118 51.6532 15.7168 51.5194 15.7283 51.3856L15.7184 51.3889Z" fill="#382626"/>
<path d="M31.0269 48.0517C30.1116 47.6056 29.7515 45.3621 30.0042 43.9858C30.0224 43.8917 30.6833 43.287 31.4498 42.5138C31.9174 42.0463 32.4213 41.5027 32.8442 40.9839C32.9318 40.8765 35.4695 44.4484 35.4695 44.4484C34.7509 44.9496 34.0958 45.536 33.5183 46.1947C33.4615 46.2678 33.4112 46.3458 33.368 46.4277C33.358 46.4376 33.3481 46.4475 33.3366 46.4591C33.0788 46.9283 31.9108 48.4796 31.0269 48.0517Z" fill="#DD6A57"/>
<path d="M33.0303 41.1562C32.4636 42.1624 31.2741 44.743 32.989 46.2068C33.0975 46.3021 33.2142 46.3878 33.3376 46.4629C33.3497 46.453 33.3607 46.4419 33.3706 46.4298C33.4136 46.3478 33.4639 46.2698 33.521 46.1969C34.0981 45.5367 34.754 44.9497 35.4738 44.4489C35.4738 44.4489 33.6383 41.87 33.0303 41.1562Z" fill="#382626"/>
<path d="M36.3143 36.841C34.9067 37.525 32.2699 41.0572 32.2963 42.488C32.3227 44.573 33.9468 46.5142 36.116 46.1194C38.2175 45.7394 41.5631 41.082 41.3962 39.6133C41.1467 37.4507 38.3943 35.8283 36.3143 36.841Z" fill="#DD6A57"/>
<path d="M37.1585 41.4778C37.1585 41.4778 37.132 41.4745 37.1238 41.4861C36.9536 41.7289 36.7173 41.9751 36.4447 41.8941C36.4447 41.8941 36.4315 41.9073 36.4332 41.9057C36.7339 42.0775 37.0362 41.7355 37.1585 41.4778Z" fill="#382626"/>
<path d="M37.1348 41.073C36.7829 40.7641 36.1716 41.4976 36.5037 41.79C36.8358 42.0825 37.4355 41.3374 37.1348 41.073Z" fill="#382626"/>
<path d="M38.4721 42.56C38.4721 42.56 38.4803 42.5847 38.4737 42.5947C38.2771 42.8177 38.0937 43.1068 38.2391 43.3513L38.2276 43.3629C38.0095 43.1151 38.2573 42.7351 38.4721 42.56Z" fill="#382626"/>
<path d="M38.8785 42.4806C39.2684 42.7516 38.6951 43.5198 38.3366 43.2604C37.9781 43.0011 38.5464 42.2477 38.8785 42.4806Z" fill="#382626"/>
<path d="M37.1385 40.4341C37.2435 40.5127 37.3527 40.5855 37.4656 40.6522C37.569 40.7459 37.7014 40.8013 37.8406 40.8092C37.8822 40.803 37.9208 40.7836 37.9505 40.7538C37.9803 40.7241 37.9997 40.6855 38.0059 40.6439C38.0056 40.5545 37.9812 40.4668 37.9352 40.39C37.8893 40.3133 37.8235 40.2503 37.7448 40.2078C37.5979 40.0975 37.4158 40.0447 37.2327 40.0591C37.1932 40.0674 37.1568 40.0866 37.1277 40.1145C37.0987 40.1425 37.078 40.178 37.0682 40.2171C37.0584 40.2563 37.0598 40.2973 37.0722 40.3357C37.0846 40.3741 37.1076 40.4082 37.1385 40.4341Z" fill="#382626"/>
<path d="M39.4567 42.5009C39.3667 42.4064 39.2818 42.3071 39.2023 42.2035C39.0967 42.1116 39.0246 41.9873 38.9975 41.8499C38.9978 41.8053 39.0126 41.762 39.0397 41.7265C39.0669 41.691 39.1048 41.6653 39.1478 41.6533C39.2353 41.6442 39.3236 41.658 39.4041 41.6934C39.4846 41.7287 39.5546 41.7844 39.6071 41.8549C39.7356 41.9854 39.8105 42.1593 39.8169 42.3423C39.8159 42.3836 39.8032 42.4237 39.7803 42.458C39.7573 42.4924 39.725 42.5194 39.6872 42.5361C39.6495 42.5527 39.6077 42.5583 39.5669 42.552C39.526 42.5458 39.4878 42.528 39.4567 42.5009Z" fill="#382626"/>
<path d="M35.294 43.519C35.3073 43.6181 35.3007 43.737 35.3783 43.8114C35.4645 43.8808 35.5649 43.9304 35.6724 43.9568C35.6724 43.9568 35.6856 43.97 35.6724 43.9766C35.6025 43.9951 35.5289 43.9942 35.4596 43.9738C35.3903 43.9534 35.3279 43.9144 35.2792 43.8609C35.2422 43.8113 35.2209 43.7518 35.2179 43.69C35.215 43.6282 35.2306 43.5669 35.2627 43.514C35.2693 43.4942 35.3007 43.5123 35.294 43.519Z" fill="#382626"/>
<path d="M35.8025 43.3403C36.1178 43.6328 36.4504 43.9059 36.7988 44.1581L37.1969 43.598C37.2349 43.6856 37.4431 44.1019 37.5141 44.0044C38.1419 43.1894 38.686 42.3132 39.1382 41.3891C39.1613 41.366 39.1101 41.3346 39.0903 41.361C38.5104 42.1028 38.0478 42.9619 37.4794 43.7153C37.4065 43.5655 37.3131 43.4264 37.2019 43.3023C37.0437 43.4918 36.8975 43.691 36.7641 43.8987C36.4712 43.6768 36.1668 43.4706 35.8521 43.2808C35.8075 43.2758 35.786 43.3238 35.8025 43.3403Z" fill="#382626"/>
<path d="M33.4458 39.8476C34.0141 40.1913 34.9079 39.7634 35.7869 38.8845C36.4477 38.2236 37.6091 37.4455 38.4038 37.9791C39.2877 38.5755 39.1027 39.4181 39.5933 39.8526C40.0444 40.2508 40.5499 39.8179 40.8638 40.1318C41.1777 40.4457 41.0158 41.0372 40.6061 41.8137C41.1397 40.91 41.5924 40.0079 41.5362 39.5255C41.2884 37.3645 38.4881 35.5752 36.4097 36.5863C35.5985 36.9845 34.3247 38.5392 33.4458 39.8476Z" fill="#382626"/>
<path d="M34.3621 39.9169C34.3621 39.9169 34.6777 38.2499 33.9937 38.0285C33.3097 37.8072 32.3565 39.755 32.6753 40.4836C32.7103 40.5797 32.7642 40.6679 32.8339 40.7427C32.9037 40.8175 32.9878 40.8776 33.0812 40.9192C33.1747 40.9608 33.2755 40.9832 33.3778 40.985C33.4801 40.9868 33.5817 40.968 33.6765 40.9297L34.3621 39.9169Z" fill="#DD6A57"/>
<path d="M33.7373 38.5918L33.7241 38.605C33.9339 39.1287 33.7852 39.6574 33.5506 40.1497C33.567 40.0916 33.5706 40.0305 33.5611 39.9708C33.5516 39.9111 33.5293 39.8542 33.4957 39.8039C33.4621 39.7537 33.418 39.7113 33.3664 39.6797C33.3149 39.6482 33.2571 39.6282 33.1971 39.6211C33.1871 39.6112 33.1756 39.6425 33.1871 39.6508C33.2723 39.6964 33.3412 39.7673 33.3844 39.8537C33.4276 39.9401 33.4429 40.0377 33.4284 40.1332C33.4014 40.2911 33.3577 40.4456 33.2978 40.5942C33.2797 40.6454 33.3557 40.6883 33.3837 40.6371C33.8777 40.1729 34.1867 39.1502 33.7373 38.5918Z" fill="#382626"/>
<path d="M33.3188 46.5665L30.7217 47.604L30.8571 43.031L29.4677 43.0987C29.4677 43.0987 27.9048 48.9571 28.0816 48.8035L30.421 48.0303L30.3681 50.2078L33.0941 47.4256L33.3188 46.5665Z" fill="#F0F7F7"/>
<path d="M31.7911 48.9143C32.2256 48.4401 32.6733 47.9759 33.0847 47.4819C33.1012 47.4654 33.0814 47.4323 33.0533 47.4505C32.518 47.7875 30.8725 49.6082 30.4479 50.0129C30.4512 49.9204 30.4479 48.0304 30.4248 48.0535C30.0134 48.1345 28.3018 48.6896 28.1548 48.7573C28.4042 47.8305 29.2485 44.3858 29.4054 43.4226C29.4087 43.3962 29.3691 43.3863 29.3625 43.4094C29.0386 44.328 27.8706 48.9358 27.9069 48.9556C28.7467 48.7232 29.5739 48.4475 30.3851 48.1295C30.3471 48.4979 30.2364 50.4921 30.3091 50.4293C30.8298 49.9511 31.3245 49.4453 31.7911 48.9143Z" fill="#382626"/>
<path d="M34.0872 36.735C34.0691 36.9217 34.6638 37.2356 34.7183 37.3165L34.867 37.9179C34.867 37.9179 38.3448 37.7609 38.994 37.9906C39.6433 38.2202 41.8671 40.14 41.8671 40.14L42.9872 39.2313C42.9872 39.2313 44.5204 39.2974 44.9681 38.8299C45.2424 38.5556 43.3226 35.8164 40.8081 35.0002C37.603 33.9759 34.1831 35.7074 34.0872 36.735Z" fill="#37474F"/>
<path d="M34.7185 37.3167L34.8672 37.9181C34.8672 37.9181 38.3449 37.7611 38.9942 37.9907C39.6435 38.2204 41.8689 40.1418 41.8689 40.1418C41.8689 40.1418 42.908 39.3141 42.9873 39.2315C42.9873 39.2315 40.529 36.8227 39.1974 36.7797C37.8658 36.7368 35.9526 36.7368 34.7185 37.3167Z" fill="#382626"/>
<path d="M42.2997 38.438C42.0814 38.6541 41.849 38.8555 41.6042 39.0411C41.4241 39.1484 40.9698 38.9386 40.9698 38.9386C40.9698 38.9386 40.6823 38.5256 40.7401 38.3786C40.9418 38.1138 41.1656 37.8668 41.4092 37.6401C41.5005 37.7261 41.6106 37.7896 41.7308 37.8255C41.851 37.8613 41.978 37.8686 42.1015 37.8466C42.0728 37.9537 42.0764 38.0669 42.1116 38.1721C42.1469 38.2773 42.2123 38.3698 42.2997 38.438Z" fill="#FFC727"/>
<path d="M34.8675 37.9176C34.8675 37.9176 36.4949 38.2728 37.3804 38.8213C38.1371 39.2938 40.1857 40.7081 40.7094 41.1591C41.4744 41.8183 43.4735 41.8315 43.3875 41.316C43.2504 40.4619 39.8206 38.2745 39.0012 37.9606C37.734 37.4765 34.8675 37.9176 34.8675 37.9176Z" fill="#37474F"/>
<path d="M35.6352 37.8239C35.5986 37.8624 35.5514 37.8892 35.4996 37.9009C35.4478 37.9126 35.3936 37.9087 35.344 37.8896C35.2944 37.8706 35.2516 37.8373 35.2209 37.7939C35.1903 37.7505 35.1732 37.699 35.1718 37.6458C35.1704 37.5927 35.1848 37.5404 35.2131 37.4954C35.2415 37.4505 35.2825 37.415 35.3311 37.3934C35.3796 37.3718 35.4335 37.365 35.4858 37.374C35.5382 37.383 35.5867 37.4073 35.6253 37.4439C35.6512 37.468 35.672 37.4971 35.6865 37.5293C35.7011 37.5616 35.709 37.5964 35.71 37.6318C35.7109 37.6672 35.7048 37.7024 35.6919 37.7354C35.6791 37.7683 35.6598 37.7984 35.6352 37.8239Z" fill="#F0F7F7"/>
</g>
<path d="M47.4327 14.309C47.6595 14.0822 47.9138 13.9132 48.1955 13.8018C48.4786 13.6891 48.7748 13.6417 49.084 13.6596C49.3932 13.6775 49.7086 13.7634 50.0302 13.9173C50.3532 14.0726 50.6686 14.3042 50.9765 14.612C51.0878 14.7233 51.1929 14.8408 51.2919 14.9645C51.3936 15.0882 51.4863 15.2167 51.5702 15.35C51.6554 15.4847 51.7303 15.6228 51.7949 15.7644C51.8622 15.9059 51.9165 16.0496 51.9577 16.1952L51.162 16.389C51.1386 16.2997 51.1043 16.2062 51.0589 16.1087C51.0149 16.0097 50.9606 15.9101 50.8961 15.8097C50.8342 15.7094 50.7641 15.6105 50.6858 15.5129C50.6088 15.4167 50.5264 15.3246 50.4384 15.2366C50.235 15.0332 50.0275 14.8779 49.8158 14.7707C49.6056 14.6622 49.3987 14.5996 49.1953 14.5831C48.9933 14.5653 48.7988 14.5921 48.6119 14.6635C48.425 14.735 48.2546 14.8477 48.1007 15.0016C47.9412 15.1611 47.8251 15.3377 47.7523 15.5314C47.6794 15.7252 47.6506 15.9259 47.6657 16.1334C47.6808 16.3409 47.7399 16.5512 47.843 16.7642C47.9474 16.9759 48.0972 17.1793 48.2924 17.3744C48.4477 17.5297 48.6071 17.6548 48.7707 17.7496C48.9356 17.8431 49.0984 17.9056 49.2592 17.9372C49.42 17.9688 49.576 17.9695 49.7272 17.9393C49.8797 17.9077 50.0227 17.8444 50.156 17.7496L49.0304 16.624L49.5685 16.086L51.2816 17.7991L51.2795 17.8011H51.2836C51.1531 18.0004 51.0026 18.1715 50.8321 18.3145C50.6645 18.4574 50.4817 18.5687 50.2838 18.6484C50.0886 18.7281 49.8825 18.7749 49.6653 18.7886C49.4482 18.8023 49.2269 18.7804 49.0015 18.7226C48.7775 18.6635 48.5521 18.5673 48.3254 18.434C48.1 18.2993 47.8801 18.1248 47.6657 17.9104C47.3661 17.6108 47.1414 17.2981 46.9916 16.9724C46.8431 16.6481 46.7628 16.3272 46.7504 16.0097C46.738 15.6922 46.7902 15.3871 46.9071 15.0944C47.0252 14.803 47.2005 14.5412 47.4327 14.309ZM51.665 18.5825C51.9083 18.3392 52.1756 18.1612 52.4669 18.0485C52.7583 17.9358 53.0565 17.8877 53.3616 17.9042C53.6695 17.9207 53.9759 18.0018 54.281 18.1475C54.5875 18.2945 54.8782 18.5055 55.1531 18.7804C55.4265 19.0538 55.6368 19.3438 55.7839 19.6503C55.9309 19.9568 56.012 20.2633 56.0271 20.5697C56.045 20.8762 55.9976 21.1751 55.8849 21.4665C55.7722 21.7578 55.5942 22.0252 55.351 22.2684C55.1063 22.513 54.837 22.6931 54.5428 22.8085C54.2501 22.9226 53.9491 22.9721 53.6399 22.957C53.3321 22.9432 53.0235 22.8642 52.7143 22.7199C52.4064 22.5742 52.1158 22.3646 51.8423 22.0911C51.5674 21.8163 51.3571 21.5249 51.2115 21.217C51.0685 20.9092 50.9895 20.6007 50.9744 20.2914C50.9606 19.9836 51.0108 19.6833 51.1249 19.3906C51.2403 19.0965 51.4204 18.8271 51.665 18.5825ZM52.3185 19.2359C52.1522 19.4022 52.0319 19.5816 51.9577 19.774C51.8849 19.9678 51.854 20.165 51.865 20.3656C51.8787 20.5663 51.9323 20.7642 52.0258 20.9594C52.1206 21.1559 52.2532 21.3394 52.4236 21.5098C52.594 21.6802 52.7768 21.8121 52.972 21.9056C53.1685 22.0004 53.3664 22.054 53.5657 22.0664C53.7663 22.0774 53.9636 22.0465 54.1573 21.9736C54.3511 21.9008 54.5312 21.7812 54.6975 21.6149C54.8638 21.4486 54.9826 21.2693 55.0541 21.0769C55.1256 20.8845 55.1537 20.69 55.1386 20.4935C55.1249 20.2956 55.0692 20.0997 54.9716 19.9059C54.8754 19.7135 54.7421 19.5321 54.5717 19.3617C54.4013 19.1913 54.2192 19.0573 54.0254 18.9597C53.833 18.8635 53.6372 18.8078 53.4379 18.7927C53.2414 18.7776 53.0469 18.8058 52.8545 18.8772C52.6634 18.9501 52.4848 19.0697 52.3185 19.2359ZM59.4781 24.3382L58.2886 23.1487L58.8617 22.5756L61.8941 25.608L61.3211 26.1811L60.1316 24.9917L57.4825 27.6407L56.829 26.9872L59.4781 24.3382ZM60.8016 27.719C61.0448 27.4758 61.3121 27.2978 61.6035 27.1851C61.8948 27.0724 62.1931 27.0243 62.4982 27.0408C62.806 27.0573 63.1125 27.1384 63.4176 27.284C63.7241 27.4311 64.0147 27.6421 64.2896 27.9169C64.5631 28.1904 64.7734 28.4804 64.9204 28.7869C65.0675 29.0933 65.1486 29.3998 65.1637 29.7063C65.1816 30.0128 65.1341 30.3117 65.0214 30.6031C64.9087 30.8944 64.7308 31.1617 64.4875 31.405C64.2429 31.6496 63.9735 31.8296 63.6794 31.9451C63.3867 32.0592 63.0857 32.1086 62.7765 32.0935C62.4686 32.0798 62.1601 32.0007 61.8509 31.8564C61.543 31.7108 61.2523 31.5012 60.9788 31.2277C60.704 30.9528 60.4937 30.6615 60.348 30.3536C60.2051 30.0458 60.1261 29.7372 60.111 29.428C60.0972 29.1201 60.1474 28.8199 60.2614 28.5271C60.3769 28.233 60.5569 27.9636 60.8016 27.719ZM61.4551 28.3725C61.2888 28.5388 61.1685 28.7182 61.0943 28.9106C61.0214 29.1043 60.9905 29.3016 61.0015 29.5022C61.0153 29.7029 61.0689 29.9008 61.1623 30.0959C61.2571 30.2925 61.3898 30.4759 61.5602 30.6463C61.7306 30.8168 61.9134 30.9487 62.1085 31.0421C62.3051 31.137 62.503 31.1906 62.7023 31.2029C62.9029 31.2139 63.1001 31.183 63.2939 31.1102C63.4877 31.0373 63.6677 30.9178 63.834 30.7515C64.0003 30.5852 64.1192 30.4058 64.1907 30.2134C64.2621 30.021 64.2903 29.8266 64.2752 29.63C64.2614 29.4321 64.2058 29.2363 64.1082 29.0425C64.012 28.8501 63.8787 28.6687 63.7083 28.4983C63.5379 28.3278 63.3558 28.1938 63.162 28.0963C62.9696 28.0001 62.7737 27.9444 62.5744 27.9293C62.3779 27.9142 62.1834 27.9423 61.991 28.0138C61.8 28.0866 61.6213 28.2062 61.4551 28.3725ZM38.1466 25.4628C38.3754 25.5185 38.5877 25.5494 38.7836 25.5556C38.9815 25.5639 39.1711 25.5432 39.3526 25.4938C39.5319 25.4464 39.7071 25.368 39.8782 25.2588C40.0514 25.1474 40.2277 25.0021 40.407 24.8227L44.5908 20.6389L45.5711 21.6192L41.5635 25.6267C41.3491 25.8411 41.144 26.0277 40.9482 26.1864C40.7544 26.3431 40.5627 26.473 40.373 26.5761C40.1833 26.6833 39.9906 26.7626 39.7947 26.8142C39.601 26.8678 39.3958 26.8976 39.1794 26.9038C38.965 26.9121 38.7351 26.8966 38.4898 26.8574C38.2466 26.8203 37.9796 26.7616 37.6889 26.6812L38.1466 25.4628ZM48.4747 24.5228L49.5137 25.5618L47.0182 32.7327L45.9885 31.703L46.4152 30.5032L43.592 27.68L42.4046 28.1191L41.3718 27.0863L48.4747 24.5228ZM46.8358 29.3096L47.9861 26.0689L44.7733 27.2471L46.8358 29.3096ZM52.4791 28.5273L53.4656 29.5137L48.6324 34.3469L47.646 33.3604L52.4791 28.5273ZM54.7179 30.766L55.6982 31.7463L51.7246 35.7198L54.5355 38.5307L53.6758 39.3903L49.8848 35.5992L54.7179 30.766Z" fill="#010F10"/>
<path d="M67.2211 10.2946C67.7756 10.3344 68.2167 10.7754 68.2565 11.3299L69.119 23.3423C69.1931 24.3751 67.9449 24.9454 67.2127 24.2132L54.3379 11.3383C53.6057 10.6062 54.1759 9.35795 55.2087 9.4321L67.2211 10.2946Z" fill="#010F10"/>
</svg>
