<svg width="71" height="71" viewBox="0 0 71 71" fill="none" xmlns="http://www.w3.org/2000/svg">
<g clip-path="url(#clip0_1604_19436)">
<rect x="0.634766" y="0.379883" width="70.1492" height="70.1492" rx="1.62665" fill="#55656D"/>
<path d="M-24.9086 92.7673L-24.2508 -34.9724L102.692 92.1088L-24.9086 92.7673Z" fill="#55656D"/>
<path d="M14.9357 35.3756C15.1644 35.4313 15.3766 35.4622 15.5723 35.4684C15.7701 35.4767 15.9597 35.456 16.141 35.4065C16.3202 35.3591 16.4954 35.2807 16.6664 35.1714C16.8395 35.06 17.0156 34.9146 17.1949 34.7352L21.3764 30.5491L22.3561 31.5298L18.3507 35.5396C18.1365 35.7541 17.9315 35.9408 17.7357 36.0996C17.542 36.2563 17.3504 36.3863 17.1609 36.4894C16.9713 36.5967 16.7787 36.6761 16.5829 36.7277C16.3893 36.7813 16.1843 36.8112 15.9679 36.8174C15.7536 36.8256 15.5239 36.8102 15.2787 36.771C15.0356 36.7338 14.7688 36.6751 14.4783 36.5946L14.9357 35.3756ZM23.4285 32.6034L24.4082 33.5842L21.7473 36.2481C21.5289 36.4667 21.364 36.6916 21.2528 36.9226C21.1436 37.1515 21.089 37.3836 21.089 37.6187C21.091 37.8559 21.1487 38.0931 21.262 38.3303C21.3774 38.5655 21.5515 38.7996 21.7843 39.0326C22.0151 39.2636 22.2479 39.4369 22.4828 39.5524C22.7218 39.6679 22.9588 39.7257 23.1936 39.7257C23.4306 39.7277 23.6634 39.6741 23.8921 39.5648C24.1229 39.4534 24.3475 39.2884 24.5659 39.0698L27.2268 36.4059L28.2065 37.3867L25.4281 40.1681C25.1108 40.4858 24.7688 40.7209 24.4021 40.8735C24.0353 41.0262 23.6572 41.0932 23.2678 41.0746C22.8784 41.0561 22.4849 40.9488 22.0872 40.7529C21.6916 40.559 21.3043 40.2723 20.9252 39.8927C20.5461 39.5132 20.2586 39.1244 20.0629 38.7263C19.8692 38.3303 19.7631 37.9374 19.7446 37.5475C19.726 37.1577 19.793 36.7792 19.9455 36.4121C20.0979 36.0449 20.3328 35.7025 20.6501 35.3849L23.4285 32.6034ZM26.2348 42.207C26.311 42.4813 26.3986 42.7484 26.4975 43.0083C26.6005 43.2682 26.721 43.523 26.859 43.7725C26.9992 44.0201 27.1609 44.2645 27.3443 44.5058C27.5297 44.7492 27.743 44.9916 27.984 45.2329C28.2745 45.5237 28.5403 45.7527 28.7814 45.9197C29.0245 46.0847 29.2429 46.1982 29.4366 46.2601C29.6344 46.3219 29.8085 46.3354 29.9589 46.3003C30.1114 46.2673 30.2422 46.1961 30.3514 46.0868C30.5265 45.9115 30.5914 45.7001 30.5461 45.4525C30.5028 45.203 30.3287 44.9255 30.0238 44.6203C29.8899 44.4862 29.7395 44.3542 29.5726 44.2243C29.4077 44.0922 29.2388 43.9602 29.0657 43.8282C28.8947 43.6983 28.7257 43.5683 28.5589 43.4384C28.3961 43.3085 28.2498 43.1785 28.12 43.0486C27.9037 42.832 27.7234 42.5958 27.5792 42.3401C27.437 42.0863 27.3443 41.8265 27.301 41.5604C27.2598 41.2964 27.2773 41.0354 27.3535 40.7776C27.4298 40.5198 27.5792 40.2795 27.8017 40.0567C27.9335 39.9247 28.0819 39.8113 28.2467 39.7164C28.4136 39.6236 28.5949 39.5576 28.7907 39.5184C28.9905 39.4792 29.2038 39.472 29.4304 39.4967C29.6591 39.5194 29.8991 39.5823 30.1505 39.6855C30.4039 39.7906 30.6677 39.9392 30.9417 40.131C31.2198 40.3228 31.5083 40.5683 31.807 40.8673C32.0234 41.0839 32.2284 41.3139 32.4221 41.5573C32.6178 41.7986 32.797 42.0441 32.9598 42.2936C33.1246 42.5453 33.272 42.798 33.4018 43.0517C33.5336 43.3033 33.6449 43.5487 33.7355 43.788L32.5148 44.15C32.4385 43.9541 32.3469 43.7529 32.2397 43.5467C32.1346 43.3384 32.0151 43.13 31.8812 42.9217C31.7473 42.7134 31.5989 42.5071 31.4362 42.3029C31.2775 42.0987 31.1034 41.9017 30.9139 41.712C30.644 41.4418 30.4019 41.2386 30.1876 41.1025C29.9754 40.9684 29.7868 40.8807 29.622 40.8395C29.4592 40.7962 29.3191 40.7921 29.2017 40.8271C29.0884 40.8622 28.9946 40.9168 28.9205 40.9911C28.7762 41.1355 28.7227 41.3191 28.7597 41.5418C28.7989 41.7625 28.9514 42.0059 29.2171 42.272C29.3243 42.3792 29.4541 42.4947 29.6066 42.6185C29.7631 42.7423 29.9269 42.8712 30.098 43.0052C30.271 43.1414 30.4441 43.2816 30.6172 43.426C30.7944 43.5704 30.9582 43.7179 31.1086 43.8685C31.3929 44.1531 31.6123 44.4367 31.7669 44.7193C31.9234 45.0039 32.0162 45.2803 32.045 45.5485C32.0759 45.8145 32.045 46.0703 31.9523 46.3158C31.8616 46.5591 31.7123 46.785 31.5042 46.9933C31.226 47.2718 30.9128 47.4554 30.5646 47.544C30.2205 47.6327 29.8538 47.6327 29.4644 47.544C29.0791 47.4554 28.6794 47.2821 28.2653 47.0243C27.8532 46.7644 27.4411 46.4282 27.029 46.0156C26.7571 45.7434 26.5088 45.4598 26.2842 45.1648C26.0576 44.8719 25.8556 44.5749 25.6785 44.2738C25.5054 43.9726 25.3539 43.6704 25.2241 43.3672C25.0985 43.064 24.9965 42.768 24.9182 42.4793L26.2348 42.207ZM36.3285 47.2377L34.5453 45.4525L35.4044 44.5924L39.9507 49.1436L39.0915 50.0037L37.3082 48.2185L33.3369 52.1942L32.3572 51.2135L36.3285 47.2377ZM4.88708 29.6066L5.97187 30.6926L3.80539 35.8997L9.0068 33.7308L10.0916 34.8168L3.14401 37.5332L2.17357 36.5618L4.88708 29.6066ZM10.6942 35.4201L11.6801 36.4071L6.84959 41.2429L5.8637 40.2559L10.6942 35.4201ZM9.76399 41.2831C9.84022 41.5574 9.92779 41.8245 10.0267 42.0844C10.1297 42.3443 10.2502 42.5991 10.3883 42.8486C10.5284 43.0961 10.6901 43.3406 10.8735 43.5819C11.0589 43.8253 11.2722 44.0676 11.5132 44.309C11.8038 44.5998 12.0695 44.8287 12.3106 44.9958C12.5537 45.1608 12.7721 45.2743 12.9658 45.3362C13.1636 45.398 13.3377 45.4114 13.4881 45.3764C13.6406 45.3434 13.7714 45.2722 13.8806 45.1629C14.0557 44.9876 14.1206 44.7761 14.0753 44.5286C14.0321 44.2791 13.858 44.0016 13.553 43.6964C13.4191 43.5623 13.2687 43.4303 13.1018 43.3003C12.937 43.1683 12.768 43.0363 12.5949 42.9043C12.4239 42.7744 12.255 42.6444 12.0881 42.5145C11.9253 42.3845 11.779 42.2546 11.6492 42.1246C11.4329 41.9081 11.2526 41.6719 11.1084 41.4161C10.9662 41.1624 10.8735 40.9025 10.8302 40.6365C10.789 40.3724 10.8065 40.1115 10.8828 39.8537C10.959 39.5959 11.1084 39.3556 11.3309 39.1328C11.4628 39.0008 11.6111 38.8874 11.7759 38.7925C11.9428 38.6997 12.1241 38.6337 12.3199 38.5945C12.5197 38.5553 12.733 38.5481 12.9596 38.5728C13.1883 38.5955 13.4284 38.6584 13.6797 38.7615C13.9332 38.8667 14.1969 39.0152 14.4709 39.2071C14.7491 39.3989 15.0375 39.6443 15.3363 39.9434C15.5526 40.16 15.7576 40.39 15.9513 40.6334C16.147 40.8747 16.3263 41.1202 16.489 41.3697C16.6539 41.6214 16.8012 41.874 16.931 42.1277C17.0629 42.3794 17.1741 42.6248 17.2648 42.8641L16.044 43.2261C15.9678 43.0301 15.8761 42.829 15.7689 42.6228C15.6639 42.4144 15.5444 42.2061 15.4104 41.9978C15.2765 41.7895 15.1282 41.5832 14.9654 41.379C14.8068 41.1748 14.6327 40.9778 14.4431 40.7881C14.1732 40.5179 13.9311 40.3147 13.7168 40.1786C13.5046 40.0445 13.3161 39.9568 13.1512 39.9156C12.9885 39.8723 12.8484 39.8681 12.7309 39.9032C12.6176 39.9383 12.5239 39.9929 12.4497 40.0672C12.3055 40.2116 12.2519 40.3951 12.289 40.6179C12.3281 40.8386 12.4806 41.082 12.7464 41.3481C12.8535 41.4553 12.9833 41.5708 13.1358 41.6946C13.2924 41.8183 13.4562 41.9473 13.6272 42.0813C13.8003 42.2175 13.9733 42.3577 14.1464 42.5021C14.3236 42.6465 14.4874 42.794 14.6378 42.9445C14.9221 43.2292 15.1416 43.5128 15.2961 43.7954C15.4527 44.08 15.5454 44.3564 15.5742 44.6245C15.6051 44.8906 15.5742 45.1464 15.4815 45.3918C15.3909 45.6352 15.2415 45.8611 15.0334 46.0694C14.7552 46.3479 14.4421 46.5314 14.0939 46.6201C13.7498 46.7088 13.383 46.7088 12.9936 46.6201C12.6083 46.5314 12.2086 46.3582 11.7945 46.1004C11.3824 45.8405 10.9703 45.5043 10.5583 45.0917C10.2863 44.8195 10.038 44.5359 9.81344 44.2409C9.5868 43.948 9.38488 43.651 9.20769 43.3498C9.03462 43.0487 8.88318 42.7465 8.75337 42.4433C8.62769 42.1401 8.5257 41.8441 8.44741 41.5554L9.76399 41.2831ZM19.1377 43.8727L20.1235 44.8597L15.293 49.6955L14.3071 48.7085L19.1377 43.8727ZM21.9717 48.4301L20.1884 46.6449L21.0476 45.7848L25.5938 50.3359L24.7347 51.1961L22.9514 49.4109L18.98 53.3866L18.0003 52.4058L21.9717 48.4301ZM26.5179 51.261L27.5038 52.248L22.6733 57.0838L21.6874 56.0969L26.5179 51.261ZM28.7493 53.4949L29.729 54.4756L31.163 59.067L32.7392 57.4891L33.7189 58.4699L28.8884 63.3057L27.9087 62.3249L30.1246 60.1066L28.6813 55.5245L24.8985 59.3115L23.9188 58.3307L28.7493 53.4949ZM32.3838 61.8794C32.7238 61.5391 33.1049 61.2854 33.5273 61.1183C33.9517 60.9492 34.3958 60.878 34.8593 60.9048C35.3229 60.9316 35.7958 61.0606 36.2779 61.2916C36.7621 61.5246 37.235 61.8722 37.6965 62.3342C37.8634 62.5013 38.021 62.6777 38.1693 62.8633C38.3218 63.0489 38.4609 63.2418 38.5866 63.4419C38.7143 63.644 38.8266 63.8513 38.9234 64.0637C39.0244 64.2762 39.1058 64.4917 39.1676 64.7104L37.9746 65.0012C37.9396 64.8671 37.8881 64.7269 37.8201 64.5804C37.7542 64.4319 37.6728 64.2824 37.5759 64.1318C37.4832 63.9812 37.3781 63.8327 37.2607 63.6863C37.1453 63.5419 37.0217 63.4037 36.8898 63.2717C36.5849 62.9664 36.2738 62.7333 35.9565 62.5725C35.6413 62.4095 35.3312 62.3157 35.0262 62.2909C34.7234 62.2641 34.4318 62.3043 34.1516 62.4116C33.8714 62.5188 33.6159 62.688 33.3851 62.919C33.1461 63.1582 32.972 63.4233 32.8628 63.7141C32.7536 64.0049 32.7104 64.3061 32.733 64.6175C32.7557 64.929 32.8443 65.2446 32.9988 65.5643C33.1554 65.8819 33.38 66.1872 33.6726 66.4801C33.9054 66.7132 34.1444 66.9009 34.3896 67.0432C34.6368 67.1835 34.881 67.2773 35.122 67.3247C35.3631 67.3722 35.597 67.3732 35.8236 67.3278C36.0523 67.2804 36.2666 67.1855 36.4664 67.0432L34.779 65.3539L35.5856 64.5464L38.1539 67.1174L38.1508 67.1205L38.157 67.1205C37.9612 67.4196 37.7356 67.6764 37.4801 67.8909C37.2288 68.1054 36.9547 68.2725 36.658 68.3921C36.3655 68.5118 36.0564 68.5819 35.7309 68.6025C35.4053 68.6232 35.0736 68.5902 34.7357 68.5035C34.3999 68.4148 34.062 68.2705 33.722 68.0704C33.3841 67.8682 33.0545 67.6063 32.733 67.2845C32.2839 66.8349 31.947 66.3656 31.7224 65.8768C31.4999 65.39 31.3794 64.9084 31.3608 64.4319C31.3423 63.9554 31.4206 63.4975 31.5957 63.0582C31.7729 62.6209 32.0356 62.228 32.3838 61.8794Z" fill="#F0F7F7"/>
<rect width="4.98845" height="183.04" rx="2.49423" transform="matrix(0.706721 -0.707492 -0.706721 -0.707492 102.159 102.402)" fill="#010F10"/>
<rect width="5.04939" height="49.8845" transform="matrix(-0.706721 -0.707492 0.706721 -0.707492 12.043 10.4248)" fill="#010F10"/>
<rect width="5.04938" height="39.9076" transform="matrix(-0.706721 -0.707492 0.706721 -0.707492 4.90527 3.28027)" fill="#010F10"/>
<rect width="5.04939" height="59.8614" transform="matrix(-0.706721 -0.707492 0.706721 -0.707492 19.1807 17.5674)" fill="#010F10"/>
<rect width="5.04939" height="69.8382" transform="matrix(-0.706721 -0.707492 0.706721 -0.707492 26.3174 24.7139)" fill="#010F10"/>
<rect width="5.04939" height="79.8151" transform="matrix(-0.706721 -0.707492 0.706721 -0.707492 33.4541 31.8584)" fill="#010F10"/>
<rect width="5.04938" height="89.792" transform="matrix(-0.706721 -0.707492 0.706721 -0.707492 40.1426 38.5527)" fill="#010F10"/>
<rect width="5.04939" height="79.8151" transform="matrix(-0.706721 -0.707492 0.706721 -0.707492 47.7285 46.1484)" fill="#010F10"/>
<rect width="5.04939" height="69.8382" transform="matrix(-0.706721 -0.707492 0.706721 -0.707492 54.8652 53.293)" fill="#010F10"/>
<rect width="5.04938" height="59.8614" transform="matrix(-0.706721 -0.707492 0.706721 -0.707492 62.0029 60.4365)" fill="#010F10"/>
<rect width="5.04939" height="49.8845" transform="matrix(-0.706721 -0.707492 0.706721 -0.707492 69.1396 67.583)" fill="#010F10"/>
<rect width="49.1842" height="18.4441" transform="matrix(0.706721 0.707492 -0.706721 0.707492 36.6895 -2.58301)" fill="#010F10"/>
<path d="M37.8278 6.88615L38.8137 7.87312L33.9831 12.7089L32.9973 11.722L37.8278 6.88615ZM40.0592 9.11997L41.0389 10.1008L42.4729 14.6922L44.0491 13.1142L45.0288 14.095L40.1983 18.9308L39.2186 17.9501L41.4345 15.7317L39.9912 11.1496L36.2084 14.9366L35.2286 13.9558L40.0592 9.11997ZM41.9352 22.2723C42.1639 22.328 42.3761 22.3589 42.5718 22.3651C42.7696 22.3734 42.9592 22.3527 43.1405 22.3032C43.3197 22.2558 43.4949 22.1774 43.6659 22.0681C43.8389 21.9567 44.0151 21.8113 44.1944 21.6318L48.3759 17.4458L49.3556 18.4265L45.3502 22.4363C45.136 22.6508 44.9309 22.8374 44.7352 22.9963C44.5415 23.153 44.3499 23.283 44.1604 23.3861C43.9708 23.4934 43.7782 23.5728 43.5824 23.6243C43.3888 23.678 43.1837 23.7079 42.9674 23.7141C42.7531 23.7223 42.5234 23.7068 42.2782 23.6677C42.0351 23.6305 41.7683 23.5717 41.4778 23.4913L41.9352 22.2723ZM52.2576 21.3317L53.2961 22.3713L50.802 29.5461L49.7728 28.5158L50.1993 27.3154L47.3776 24.4906L46.1909 24.93L45.1586 23.8966L52.2576 21.3317ZM50.6196 26.1211L51.7693 22.8787L48.5582 24.0575L50.6196 26.1211ZM56.2599 25.3384L57.2458 26.3253L52.4153 31.1612L51.4294 30.1742L56.2599 25.3384ZM58.4975 27.5784L59.4772 28.5592L55.5058 32.5349L58.3151 35.3473L57.456 36.2074L53.6669 32.4142L58.4975 27.5784Z" fill="#F0F7F7"/>
</g>
<defs>
<clipPath id="clip0_1604_19436">
<rect x="0.634766" y="0.379883" width="70.1492" height="70.1492" rx="1.62665" fill="white"/>
</clipPath>
</defs>
</svg>
