<svg width="94" height="99" viewBox="0 0 94 99" fill="none" xmlns="http://www.w3.org/2000/svg">
<g clip-path="url(#clip0_1604_18113)">
<path d="M59.6898 82.7888C76.1356 78.3821 87.431 67.2093 84.9188 57.8337C82.4066 48.458 67.0381 44.4298 50.5923 48.8365C34.1464 53.2431 22.851 64.4159 25.3632 73.7916C27.8754 83.1672 43.2439 87.1954 59.6898 82.7888Z" fill="#F0F7F7"/>
<path d="M74.0481 72.5993C77.8492 71.5808 80.4538 68.9761 79.8658 66.7815C79.2778 64.5869 75.7197 63.6334 71.9186 64.6519C68.1175 65.6704 65.5128 68.2752 66.1009 70.4698C66.6889 72.6644 70.247 73.6178 74.0481 72.5993Z" fill="#F0F7F7"/>
<path d="M59.3813 45.8183L76.5041 50.4224C78.9202 51.073 79.444 53.0328 77.6771 54.8002L54.0722 78.3449C45.2291 87.2111 21.0442 78.3417 28.1769 71.4129L51.8024 47.8436C53.5715 46.0743 56.9651 45.1677 59.3813 45.8183Z" fill="#F0F7F7"/>
<path d="M57.1478 36.4402C56.376 36.4468 53.0204 36.24 49.9448 39.2433C49.2161 39.9547 47.7559 41.4233 45.9498 43.2529C45.9498 43.2529 44.1528 46.5143 41.4329 49.015C36.2872 53.7471 32.7419 56.7005 32.7419 56.7005C32.8797 56.7612 33.0276 56.7959 33.178 56.803C35.1494 57.0443 40.4077 59.7976 43.0288 57.9852C46.0821 55.8746 57.1478 36.4402 57.1478 36.4402Z" fill="#7591CD"/>
<path opacity="0.5" d="M34.9461 54.9243C34.9461 54.9243 41.2141 49.9079 42.0461 49.0176C42.6958 48.3357 43.2854 47.599 43.8083 46.8156C44.0567 46.4059 44.2637 47.4986 42.7753 48.9434C40.7832 50.8868 34.9461 54.9243 34.9461 54.9243Z" fill="#F0F7F7"/>
<path d="M43.6536 44.6C43.736 44.9075 43.8777 45.3244 44.0548 45.8735C44.2928 46.6093 44.2899 47.0255 44.0956 47.6931C44.006 47.9991 43.763 48.4851 43.2328 49.048C40.2968 52.1501 32.7421 56.7009 32.7421 56.7009L33.1705 56.8053L42.6518 53.0962L46.1573 49.1606L45.0224 44.5288L44.2689 44.3547L43.6536 44.6Z" fill="#37474F"/>
<path d="M45.0235 44.5286L45.0861 44.7624C45.0623 45.0194 44.9998 45.3807 44.8282 45.5588C44.7367 45.654 44.6207 45.7223 44.493 45.7562C44.2592 45.8189 44.0226 45.7542 43.9597 45.5654C43.9461 45.5146 43.9321 45.4625 43.9099 45.4153C43.7906 45.0564 43.7183 44.817 43.6597 44.5984L44.275 44.3532L45.0235 44.5286Z" fill="#7591CD"/>
<path opacity="0.3" d="M45.0235 44.5286L45.0861 44.7624C45.0623 45.0194 44.9998 45.3807 44.8282 45.5588C44.7367 45.654 44.6207 45.7223 44.493 45.7562C44.2592 45.8189 44.0226 45.7542 43.9597 45.5654C43.9461 45.5146 43.9321 45.4625 43.9099 45.4153C43.7906 45.0564 43.7183 44.817 43.6597 44.5984L44.275 44.3532L45.0235 44.5286Z" fill="#010F10"/>
<path d="M59.0561 37.4724C57.9034 35.9916 56.6092 36.3412 54.5544 37.2172C54.3158 37.318 49.1722 39.9179 46.4353 41.9029C44.3677 43.4022 43.8682 44.2524 43.7125 44.4031C43.3516 44.764 44.1671 44.9814 44.5755 44.635C44.6722 44.9959 44.7654 45.3032 44.8288 45.5804C45.2143 47.2477 45.0104 47.5747 44.4571 48.6764C44.2289 49.1312 43.3851 49.8857 42.9317 50.3286C42.0853 51.1547 42.0173 50.703 39.647 52.4346C38.6309 53.1767 33.7329 56.6779 33.1482 56.8291L50.0735 62.0228L55.5659 64.2217L72.1105 41.7761L59.0561 37.4724Z" fill="#7591CD"/>
<path d="M44.5987 44.6167L45.9894 43.021L62.0164 46.9054L60.132 48.7887L62.4449 57.4101L46.9107 53.2452L44.5987 44.6167Z" fill="#7591CD"/>
<path opacity="0.25" d="M44.5987 44.6167L45.9894 43.021L62.2751 46.2954L65.9627 45.8099L65.8028 48.8982L62.4449 57.4101L46.9107 53.2452L44.5987 44.6167Z" fill="#010F10"/>
<path opacity="0.5" d="M47.8565 41.124C46.8292 41.7684 46.1316 42.1841 46.453 42.2601C46.7743 42.336 53.437 38.4465 54.7731 37.8161C56.1092 37.1857 57.165 36.7802 55.316 36.8534C53.6663 36.9236 52.6988 37.3027 51.8589 37.8737C51.0189 38.4447 49.5242 39.8708 49.5242 39.8708C49.5242 39.8708 53.7211 37.56 53.8843 37.4931C54.0475 37.4262 54.4777 37.3341 53.5018 37.9157C52.5258 38.4973 48.8912 40.4818 47.8565 41.124Z" fill="#F0F7F7"/>
<path opacity="0.3" d="M44.4618 58.7796C44.4618 58.7796 43.4463 54.09 42.6842 50.5596C41.7167 51.4372 41.8203 50.8428 39.6693 52.4121C38.7841 53.0579 34.9506 55.7998 33.593 56.5939L33.1702 56.8053L43.0993 59.8502L44.4618 58.7796Z" fill="#010F10"/>
<path d="M52.0408 56.0672L50.3621 56.4815L47.4307 55.7075C47.1617 55.6522 46.8841 55.6536 46.6156 55.7117C46.3472 55.7698 46.0938 55.8832 45.8717 56.0449L43.1677 58.2594L41.0457 58.7831L41.376 60.0157C41.4131 60.1542 41.5491 60.2703 41.7809 60.3322L48.1641 62.0432C48.4188 62.0987 48.684 62.0818 48.9297 61.9946C49.1754 61.9073 49.3918 61.7531 49.5545 61.5494L52.2385 57.842C52.2993 57.7676 52.3425 57.6804 52.3646 57.5869C52.3868 57.4935 52.3873 57.3962 52.3663 57.3024L52.0408 56.0672Z" fill="#37474F"/>
<path d="M41.45 59.1004L47.8331 60.8114C48.0879 60.8666 48.353 60.8496 48.5986 60.7624C48.8442 60.6752 49.0607 60.5211 49.2236 60.3176L51.9076 56.6102C52.1983 56.2109 52.0456 55.7833 51.5676 55.6567L47.0985 54.4761C46.8295 54.4207 46.5519 54.4222 46.2834 54.4803C46.015 54.5383 45.7616 54.6518 45.5396 54.8135L41.2757 58.3027C40.8948 58.6145 40.9717 58.9725 41.45 59.1004Z" fill="#55656D"/>
<path d="M52.0422 56.0684L52.3715 57.2972C52.3715 57.2972 52.3715 57.2972 52.3651 57.2989C52.3865 57.3928 52.3862 57.4903 52.3641 57.5841C52.342 57.6778 52.2987 57.7653 52.2376 57.8397L49.5533 61.5459C49.3982 61.7454 49.1889 61.8961 48.9504 61.9798L48.6205 60.7484C48.8593 60.6654 49.0688 60.5146 49.2234 60.3145L51.9074 56.6071C51.969 56.5333 52.0131 56.4465 52.0365 56.3532C52.0598 56.2599 52.0618 56.1625 52.0422 56.0684Z" fill="#382626"/>
<path d="M52.4761 55.5601C52.4991 55.6129 52.5075 55.6709 52.5006 55.7281C52.4936 55.7853 52.4715 55.8395 52.4366 55.8853L51.2462 57.0746C51.2838 57.0304 51.3078 56.9762 51.3153 56.9186C51.3229 56.861 51.3136 56.8024 51.2886 56.75L49.1395 49.9493C49.0818 49.7966 48.9906 49.6587 48.8727 49.5458C48.7548 49.4329 48.6131 49.3479 48.458 49.297L44.6269 48.271C44.5668 48.2503 44.5023 48.2455 44.4398 48.257C44.3773 48.2685 44.3188 48.2959 44.27 48.3366L45.4519 47.1564C45.5007 47.113 45.5602 47.0833 45.6243 47.0705C45.6883 47.0576 45.7546 47.0621 45.8164 47.0833L49.645 48.11C49.8001 48.1604 49.9418 48.2451 50.0597 48.3578C50.1777 48.4705 50.2687 48.6083 50.3261 48.761L52.4761 55.5601Z" fill="#382626"/>
<path d="M44.6294 48.2731L48.4592 49.2994C48.6139 49.3502 48.7553 49.4349 48.8731 49.5473C48.9909 49.6597 49.0821 49.797 49.14 49.9492L51.2885 56.7474C51.3781 57.0312 51.2185 57.1979 50.9296 57.1159L45.4771 55.6554C45.3279 55.6075 45.1949 55.5193 45.0927 55.4005C44.9905 55.2818 44.923 55.1372 44.8977 54.9826L44.1697 48.6618C44.1566 48.6014 44.1601 48.5384 44.18 48.4798C44.1999 48.4212 44.2354 48.3691 44.2826 48.3292C44.3299 48.2892 44.3871 48.2629 44.4482 48.253C44.5093 48.2431 44.572 48.25 44.6294 48.2731Z" fill="#37474F"/>
<path d="M50.0623 48.3619L48.8817 49.5472C48.7647 49.4319 48.6218 49.3464 48.4648 49.2979L44.6337 48.2719C44.5736 48.2513 44.5092 48.2464 44.4466 48.258C44.3841 48.2695 44.3256 48.2969 44.2768 48.3376L45.4588 47.1574C45.5076 47.114 45.567 47.0843 45.6311 47.0715C45.6951 47.0586 45.7615 47.063 45.8232 47.0843L49.6518 48.1109C49.8068 48.1604 49.9476 48.2464 50.0623 48.3619Z" fill="#55656D"/>
<path d="M49.2151 47.5171L48.7561 45.8041C48.4262 44.5727 47.25 43.3297 46.1303 43.0291C45.6174 42.8942 45.2056 42.9786 44.9404 43.2295L44.0373 44.1388L44.756 44.9201L45.1612 46.4323C45.2115 46.5858 45.2971 46.7252 45.4112 46.8395C45.5254 46.9537 45.6648 47.0395 45.8182 47.0898L47.0537 47.4207L48.2704 48.7441L49.1641 47.8454C49.2011 47.8002 49.2254 47.7459 49.2343 47.6882C49.2433 47.6305 49.2367 47.5714 49.2151 47.5171Z" fill="#382626"/>
<path d="M46.784 45.469L47.9484 44.3044C47.4386 43.6878 46.7759 43.2021 46.1303 43.0291C45.6174 42.8942 45.2056 42.9786 44.9404 43.2295L44.0373 44.1388L44.756 44.9201L44.8357 45.2174L46.784 45.469Z" fill="#55656D"/>
<path d="M48.3258 48.4119L47.8672 46.7002C47.5369 45.4676 46.3611 44.2259 45.2413 43.9253C44.1216 43.6247 43.4798 44.3809 43.8101 45.6136L44.2687 47.3253C44.3191 47.4791 44.4049 47.6188 44.5193 47.7332C44.6338 47.8476 44.7735 47.9334 44.9273 47.9837L47.9454 48.7917C48.233 48.8686 48.4028 48.6991 48.3258 48.4119Z" fill="#37474F"/>
<path d="M45.1185 49.7039C45.118 51.3309 45.3424 52.9501 45.7853 54.5156C45.8393 54.6735 45.9244 54.8189 46.0356 54.9433C46.1469 55.0677 46.282 55.1685 46.4329 55.2396C47.4154 55.6281 48.4394 55.9021 49.4847 56.0563C49.5465 56.073 49.6117 56.0724 49.6733 56.0547C49.7348 56.037 49.7903 56.0028 49.8338 55.9558C49.8773 55.9088 49.9072 55.8508 49.9201 55.788C49.933 55.7253 49.9285 55.6602 49.9072 55.5999C49.4915 53.7132 49.0537 51.9673 48.5709 50.5467C48.4448 50.2317 48.2031 49.9768 47.8951 49.8343C47.176 49.5562 46.4292 49.3559 45.6675 49.2367C45.5996 49.2241 45.5297 49.2268 45.463 49.2446C45.3963 49.2624 45.3344 49.2949 45.2818 49.3396C45.2292 49.3844 45.1872 49.4403 45.159 49.5033C45.1307 49.5663 45.1169 49.6349 45.1185 49.7039Z" fill="#7591CD"/>
<path opacity="0.15" d="M49.9086 55.767C49.9161 55.7109 49.9137 55.6539 49.9016 55.5986C49.486 53.7119 49.0481 51.966 48.5653 50.5454C48.5052 50.3893 48.4142 50.2469 48.2979 50.1268C48.0435 49.9144 48.5637 52.1353 48.9299 53.4768C49.2962 54.8183 49.6628 56.1406 49.8417 55.9293C49.8491 55.9208 49.8558 55.9117 49.8617 55.9021C49.8814 55.8586 49.8971 55.8133 49.9086 55.767Z" fill="#010F10"/>
<g opacity="0.15">
<path d="M46.0605 54.3154C46.0605 54.3154 46.1077 54.3287 46.1857 54.3554C46.2637 54.3822 46.3779 54.417 46.5123 54.4613C46.7812 54.55 47.1393 54.6611 47.5024 54.7558C47.8656 54.8506 48.2308 54.9325 48.5062 54.9894C48.6496 55.0164 48.7608 55.0452 48.8434 55.0584C48.9259 55.0717 48.9708 55.0869 48.9708 55.0869C48.9708 55.0869 48.9231 55.0916 48.8366 55.0943C48.7502 55.097 48.6328 55.1012 48.49 55.0918C48.3472 55.0824 48.1801 55.0686 48.0032 55.0439C47.9145 55.0281 47.8227 55.0159 47.7298 54.9945C47.6369 54.9731 47.5453 54.9514 47.453 54.9325C47.2687 54.8797 47.0861 54.8238 46.9175 54.7586C46.7652 54.7001 46.616 54.6337 46.4706 54.5597C46.3419 54.4961 46.2403 54.4321 46.1678 54.3902C46.0952 54.3484 46.0605 54.3154 46.0605 54.3154Z" fill="#010F10"/>
<path d="M45.8291 53.4521C45.8291 53.4521 45.8762 53.4654 45.9542 53.4922C46.0322 53.5189 46.1464 53.5537 46.2809 53.598C46.5498 53.6867 46.9075 53.7965 47.2706 53.8913C47.6338 53.986 47.999 54.0679 48.2747 54.1262C48.4178 54.1518 48.529 54.1806 48.6119 54.1952C48.6948 54.2097 48.7394 54.2237 48.7394 54.2237L48.6052 54.231C48.5209 54.2318 48.401 54.2367 48.2586 54.2286C48.0954 54.2208 47.9328 54.2043 47.7714 54.1793C47.6827 54.1636 47.5909 54.1514 47.498 54.13C47.4051 54.1086 47.3138 54.0881 47.2213 54.0679C47.0372 54.0165 46.8544 53.9592 46.6861 53.8954C46.5178 53.8315 46.3657 53.7619 46.2391 53.6964C46.1126 53.6309 46.0088 53.5688 45.9363 53.5269C45.8638 53.4851 45.8291 53.4521 45.8291 53.4521Z" fill="#010F10"/>
<path d="M45.8174 52.6836C45.8174 52.6836 45.86 52.6953 45.9332 52.7193C46.0064 52.7433 46.1112 52.7738 46.2313 52.8151C46.4803 52.8955 46.8103 52.9937 47.1448 53.0729C47.4793 53.1522 47.8189 53.2151 48.076 53.2647L48.3869 53.3271L48.5042 53.3529C48.5042 53.3529 48.4605 53.3578 48.384 53.362C48.3075 53.3661 48.1968 53.3699 48.0653 53.367C47.9146 53.3645 47.7642 53.3543 47.6145 53.3366C47.5323 53.3246 47.4473 53.3174 47.3621 53.2994C47.2769 53.2813 47.1895 53.2653 47.1027 53.2463C47.0159 53.2273 46.9316 53.2023 46.8488 53.1781C46.7661 53.154 46.6854 53.1225 46.6074 53.0957C46.4659 53.0421 46.3276 52.9805 46.193 52.9112C46.0749 52.8516 45.9813 52.7922 45.9162 52.7525C45.8511 52.7127 45.8174 52.6836 45.8174 52.6836Z" fill="#010F10"/>
<path d="M45.6729 51.8535L45.7851 51.8861C45.8548 51.9124 45.9574 51.9394 46.0818 51.9768C46.3205 52.0491 46.64 52.1487 46.9641 52.2198C47.2883 52.291 47.6173 52.3499 47.8654 52.3965L48.1651 52.4524C48.2384 52.4668 48.2794 52.4776 48.2794 52.4776L48.1634 52.4869C48.0891 52.4891 47.982 52.496 47.8549 52.4946C47.7279 52.4933 47.5804 52.4865 47.4206 52.4748C47.3416 52.4646 47.2582 52.4584 47.1763 52.4422C47.0943 52.426 47.0088 52.4122 46.9253 52.3951C46.8417 52.378 46.7586 52.3525 46.6777 52.3252C46.5968 52.2978 46.5179 52.2727 46.4442 52.2516C46.3074 52.2004 46.1737 52.1411 46.0439 52.0742C45.9302 52.0161 45.8396 51.9573 45.7777 51.9194C45.7158 51.8815 45.6729 51.8535 45.6729 51.8535Z" fill="#010F10"/>
<path d="M45.5918 51.0459L45.6979 51.076L45.9729 51.1617C46.2455 51.2494 46.5225 51.3229 46.8028 51.382C47.1073 51.4461 47.4186 51.4894 47.6599 51.531C47.9012 51.5725 48.0506 51.6115 48.0506 51.6115C47.9168 51.6259 47.7824 51.6332 47.6479 51.6336C47.3536 51.6384 47.0596 51.6126 46.7706 51.5568C46.6908 51.5386 46.6124 51.5202 46.5357 51.4985C46.4591 51.4768 46.3862 51.4487 46.3136 51.4218C46.1845 51.3727 46.0586 51.3155 45.9367 51.2504C45.8168 51.1909 45.7015 51.1226 45.5918 51.0459Z" fill="#010F10"/>
<path d="M45.6777 50.2246C45.6777 50.2246 45.814 50.2603 46.0116 50.3218C46.2092 50.3832 46.4683 50.4554 46.7332 50.5139C46.998 50.5723 47.266 50.6217 47.4693 50.6639C47.6727 50.7061 47.808 50.7434 47.808 50.7434C47.6922 50.7593 47.5755 50.7669 47.4586 50.7662C47.2018 50.7685 46.9455 50.7426 46.6943 50.6891C46.6254 50.6708 46.5568 50.6537 46.4904 50.6347C46.424 50.6157 46.3601 50.5907 46.2981 50.5678C46.1855 50.5254 46.0763 50.4745 45.9713 50.4156C45.8682 50.3604 45.77 50.2965 45.6777 50.2246Z" fill="#010F10"/>
</g>
<path d="M45.3774 56.3421C44.5472 56.7307 43.8039 57.4079 43.1206 58.2788C43.0775 58.3276 43.0472 58.3864 43.0323 58.4498C43.0174 58.5132 43.0184 58.5793 43.0353 58.6422C43.0521 58.7051 43.0843 58.7629 43.1289 58.8103C43.1735 58.8578 43.2291 58.8935 43.2909 58.9142C44.529 59.3947 45.8171 59.7349 47.131 59.9282C47.4675 59.9629 47.8041 59.8629 48.0671 59.6502C48.6991 59.0847 49.2435 58.4284 49.6823 57.7028C49.7172 57.644 49.7385 57.5782 49.7447 57.5101C49.7509 57.442 49.7419 57.3734 49.7181 57.3093C49.6944 57.2451 49.6567 57.1871 49.6077 57.1394C49.5587 57.0917 49.4997 57.0556 49.4349 57.0337C48.4607 56.6481 47.4475 56.3693 46.4132 56.2021C46.0617 56.1631 45.706 56.2112 45.3774 56.3421Z" fill="#7591CD"/>
<g opacity="0.2">
<path d="M43.6748 58.4756C43.6748 58.4756 43.7332 58.4749 43.8338 58.4793C43.9344 58.4837 44.0816 58.4892 44.2491 58.5042C44.6738 58.5472 45.0947 58.6225 45.508 58.7294C45.9198 58.8364 46.322 58.9773 46.7105 59.1508C46.8874 59.2296 47.06 59.3174 47.2278 59.414L46.6735 59.2466C46.3428 59.1459 45.9025 59.0173 45.4579 58.9035C45.0134 58.7897 44.5655 58.6837 44.2275 58.6067L43.8193 58.5118C43.7306 58.4906 43.6748 58.4756 43.6748 58.4756Z" fill="#010F10"/>
<path d="M44.3779 57.7734L44.5369 57.7771C44.6379 57.7828 44.7851 57.7883 44.9522 57.8021C45.3768 57.8446 45.7975 57.9194 46.2108 58.026C46.6224 58.1335 47.0246 58.2744 47.4133 58.4474C47.5907 58.5284 47.7639 58.6184 47.9322 58.717L47.378 58.5495C47.0469 58.4475 46.6069 58.3203 46.1624 58.2065C45.7179 58.0927 45.27 57.9866 44.932 57.9096L44.5238 57.8147C44.434 57.7897 44.3779 57.7734 44.3779 57.7734Z" fill="#010F10"/>
<path d="M44.9834 57.1768C44.9834 57.1768 45.0405 57.1764 45.1424 57.1805C45.2443 57.1845 45.3902 57.1903 45.5577 57.2054C45.9822 57.2482 46.403 57.323 46.8162 57.4293C47.2279 57.5366 47.6301 57.6775 48.0187 57.8507C48.1963 57.9315 48.3695 58.0215 48.5377 58.1203C48.5377 58.1203 48.3158 58.0545 47.9834 57.9528C47.6511 57.8512 47.2115 57.7252 46.7679 57.6098C46.3243 57.4944 45.8758 57.3912 45.5378 57.3142L45.1296 57.2193L44.9834 57.1768Z" fill="#010F10"/>
<path d="M45.6719 56.6357C45.6719 56.6357 45.7261 56.6348 45.8197 56.6384C45.9132 56.6419 46.0464 56.6457 46.2046 56.6619C46.5947 56.6986 46.9813 56.7662 47.3607 56.8642C47.7399 56.9605 48.1102 57.0891 48.4675 57.2487C48.6299 57.3223 48.7883 57.4044 48.942 57.4947C48.942 57.4947 48.8907 57.4812 48.7952 57.455C48.6997 57.4289 48.5781 57.392 48.4257 57.347C48.1284 57.2537 47.7176 57.139 47.3096 57.0345C46.9016 56.93 46.4915 56.8329 46.182 56.7606L45.8078 56.6702C45.7235 56.6505 45.6719 56.6357 45.6719 56.6357Z" fill="#010F10"/>
</g>
<path d="M60.86 58.4952L59.1814 58.9096L56.25 58.1355C55.9809 58.0804 55.7033 58.0821 55.4349 58.1404C55.1665 58.1987 54.9132 58.3124 54.6913 58.4742L51.9895 60.6868L49.8688 61.2101L50.1991 62.4427C50.2362 62.5813 50.3722 62.6974 50.6039 62.7592L56.9871 64.4702C57.2419 64.5257 57.507 64.5088 57.7527 64.4216C57.9984 64.3343 58.2148 64.1801 58.3775 63.9764L61.0619 60.2703C61.1225 60.1956 61.1655 60.1081 61.1876 60.0145C61.2096 59.9208 61.2103 59.8234 61.1893 59.7294L60.86 58.4952Z" fill="#37474F"/>
<path d="M50.2693 61.5274L56.6524 63.2384C56.9072 63.2939 57.1724 63.2771 57.4181 63.1898C57.6637 63.1025 57.8802 62.9484 58.0428 62.7446L60.7272 59.0385C61.0176 58.6379 60.8648 58.2103 60.3869 58.0836L55.9191 56.9027C55.65 56.8476 55.3724 56.8493 55.104 56.9076C54.8356 56.9659 54.5824 57.0796 54.3605 57.2414L50.0927 60.7262C49.7141 61.0415 49.791 61.3995 50.2693 61.5274Z" fill="#55656D"/>
<path d="M60.862 58.4959L61.1916 59.7259C61.213 59.8198 61.2127 59.9174 61.1906 60.0111C61.1685 60.1049 61.1252 60.1923 61.0642 60.2668L58.3798 63.9729C58.2247 64.1725 58.0154 64.3231 57.7769 64.4069L57.447 63.1755C57.6855 63.0917 57.8948 62.9411 58.0499 62.7415L60.7318 59.0265C60.7915 58.9532 60.8341 58.8676 60.8566 58.7758C60.8791 58.6841 60.881 58.5884 60.862 58.4959Z" fill="#382626"/>
<path d="M61.2961 57.9883C61.3195 58.0408 61.3281 58.0987 61.3211 58.1558C61.314 58.2128 61.2916 58.2669 61.2562 58.3122L60.0658 59.5015C60.1045 59.4576 60.1297 59.4034 60.1383 59.3456C60.147 59.2877 60.1387 59.2285 60.1146 59.1752L57.9652 52.3786C57.9075 52.2259 57.8164 52.0881 57.6984 51.9752C57.5805 51.8623 57.4388 51.7773 57.2837 51.7263L53.4476 50.7017C53.3877 50.6808 53.3234 50.6759 53.261 50.6876C53.1987 50.6993 53.1405 50.7271 53.0922 50.7683L54.2742 49.5881C54.323 49.5446 54.3825 49.515 54.4465 49.5021C54.5106 49.4893 54.5769 49.4937 54.6387 49.5149L58.4672 50.5416C58.6224 50.5919 58.7643 50.6765 58.8822 50.7892C59.0001 50.902 59.0911 51.0399 59.1483 51.1926L61.2961 57.9883Z" fill="#382626"/>
<path d="M53.4497 50.7006L57.2795 51.727C57.4344 51.7778 57.5759 51.8627 57.6938 51.9753C57.8116 52.088 57.9028 52.2256 57.9606 52.378L60.1091 59.1762C60.1987 59.46 60.0391 59.6267 59.7515 59.5444L54.2989 58.0839C54.1495 58.0363 54.0162 57.9483 53.9137 57.8296C53.8113 57.7109 53.7436 57.5662 53.7183 57.4114L52.9917 51.0957C52.9773 51.035 52.9798 50.9715 52.999 50.9121C53.0182 50.8528 53.0534 50.7998 53.1006 50.759C53.1479 50.7183 53.2054 50.6913 53.267 50.681C53.3285 50.6707 53.3917 50.6775 53.4497 50.7006Z" fill="#37474F"/>
<path d="M58.8834 50.7883L57.6917 51.9779C57.5749 51.8619 57.4318 51.7759 57.2745 51.7274L53.4476 50.7017C53.3877 50.6808 53.3234 50.6759 53.261 50.6876C53.1987 50.6993 53.1405 50.7271 53.0922 50.7683L54.2742 49.5881C54.323 49.5446 54.3825 49.515 54.4465 49.5021C54.5106 49.4893 54.5769 49.4937 54.6387 49.5149L58.4672 50.5416C58.6236 50.5895 58.7663 50.6741 58.8834 50.7883Z" fill="#55656D"/>
<path d="M58.0362 49.9431L57.5779 48.2326C57.2479 47.0013 56.0718 45.7583 54.9511 45.4593C54.4382 45.3243 54.026 45.4075 53.7609 45.6583L52.8565 46.568L53.5756 47.3506L53.9791 48.8564C54.0293 49.0101 54.1151 49.1497 54.2295 49.2639C54.3438 49.3781 54.4836 49.4636 54.6373 49.5136L55.8715 49.8448L57.0882 51.1682L57.982 50.2695C58.0191 50.2247 58.0436 50.1709 58.0531 50.1136C58.0626 50.0563 58.0568 49.9974 58.0362 49.9431Z" fill="#382626"/>
<path d="M55.6035 47.8959L56.7679 46.7313C56.2584 46.116 55.5954 45.629 54.9501 45.4573C54.4373 45.3223 54.0251 45.4056 53.7599 45.6564L52.8555 46.5661L53.5746 47.3486L53.6539 47.6447L55.6035 47.8959Z" fill="#55656D"/>
<path d="M57.1449 50.8381L56.6862 49.1264C56.3559 47.8937 55.1801 46.652 54.0604 46.3514C52.9406 46.0508 52.3001 46.8067 52.6304 48.0394L53.089 49.7511C53.1391 49.9048 53.2247 50.0446 53.3389 50.159C53.4531 50.2735 53.5927 50.3594 53.7463 50.4099L56.7661 51.2188C57.052 51.2947 57.2218 51.1253 57.1449 50.8381Z" fill="#37474F"/>
<path d="M53.9398 52.1302C53.9383 53.7577 54.1624 55.3776 54.6057 56.9435C54.6597 57.1012 54.7448 57.2464 54.856 57.3706C54.9672 57.4947 55.1022 57.5953 55.2529 57.6663C56.2355 58.0547 57.2595 58.3288 58.3047 58.483C58.3664 58.4991 58.4313 58.4982 58.4925 58.4804C58.5537 58.4626 58.6089 58.4285 58.6523 58.3818C58.6956 58.3351 58.7255 58.2775 58.7388 58.2152C58.7521 58.1529 58.7482 58.0881 58.7276 58.0278C58.3103 56.1402 57.8737 54.3939 57.3897 52.9737C57.2636 52.6586 57.0219 52.4038 56.7139 52.2613C55.9949 51.9829 55.2481 51.7825 54.4863 51.6637C54.4186 51.6515 54.3491 51.6546 54.2828 51.6725C54.2164 51.6905 54.1549 51.7229 54.1026 51.7676C54.0503 51.8122 54.0086 51.8679 53.9804 51.9306C53.9523 51.9933 53.9384 52.0615 53.9398 52.1302Z" fill="#7591CD"/>
<path opacity="0.15" d="M58.7279 58.1947C58.7365 58.139 58.7347 58.0822 58.7225 58.0272C58.3053 56.1396 57.8687 54.3934 57.3846 52.9731C57.3256 52.8165 57.2345 52.6739 57.1172 52.5545C56.8628 52.3421 57.3833 54.5643 57.7496 55.9058C58.1159 57.2473 58.4837 58.5693 58.6623 58.3566L58.6823 58.3295C58.701 58.2858 58.7163 58.2407 58.7279 58.1947Z" fill="#010F10"/>
<g opacity="0.15">
<path d="M54.8838 56.7461L55.0089 56.7861C55.0873 56.8142 55.1998 56.848 55.3343 56.8923C55.6045 56.9807 55.9625 57.0917 56.3244 57.1868C56.6863 57.2819 57.0527 57.3635 57.3294 57.4201C57.4728 57.4471 57.584 57.4758 57.6653 57.4894C57.7466 57.5031 57.7928 57.5179 57.7928 57.5179C57.7928 57.5179 57.7463 57.5222 57.6586 57.5253C57.5709 57.5284 57.4548 57.5322 57.312 57.5228C57.149 57.5155 56.9865 57.4995 56.8251 57.4749C56.7365 57.4591 56.6447 57.4469 56.5531 57.4252C56.4614 57.4034 56.3676 57.3836 56.275 57.3635C56.091 57.312 55.9081 57.2548 55.7408 57.1893C55.588 57.1308 55.4384 57.0645 55.2926 56.9907C55.1638 56.9271 55.0622 56.8631 54.991 56.8209C54.9198 56.7787 54.8838 56.7461 54.8838 56.7461Z" fill="#010F10"/>
<path d="M54.6514 55.877L54.7765 55.917C54.8548 55.945 54.9674 55.9789 55.1019 56.0232C55.3721 56.1115 55.7297 56.2213 56.0916 56.3164C56.4535 56.4115 56.82 56.4931 57.097 56.551C57.2404 56.5779 57.3516 56.6067 57.4329 56.6203C57.5142 56.6339 57.5604 56.6488 57.5604 56.6488L57.4262 56.6562C57.3419 56.6569 57.222 56.6618 57.0796 56.6537C56.9164 56.6459 56.7538 56.6295 56.5924 56.6045C56.5037 56.5887 56.4123 56.5778 56.3206 56.556C56.229 56.5343 56.1348 56.5132 56.0426 56.4943C55.8586 56.4429 55.6757 56.3856 55.5087 56.3214C55.3416 56.2572 55.1883 56.188 55.0605 56.1228C54.9327 56.0576 54.8302 55.9952 54.7589 55.953C54.6877 55.9108 54.6514 55.877 54.6514 55.877Z" fill="#010F10"/>
<path d="M54.6367 55.1094C54.6367 55.1094 54.6794 55.1211 54.7525 55.1451C54.8257 55.1691 54.9309 55.2008 55.0509 55.2422C55.2983 55.3216 55.6284 55.4198 55.9628 55.4991C56.2973 55.5783 56.637 55.6412 56.8941 55.6908L57.205 55.7532L57.3222 55.779C57.3222 55.779 57.2803 55.7903 57.2021 55.7881C57.1239 55.7859 57.0152 55.7973 56.8834 55.7931C56.7327 55.7906 56.5822 55.7804 56.4326 55.7627C56.3503 55.7507 56.2653 55.7435 56.1802 55.7255C56.095 55.7075 56.0076 55.6914 55.9211 55.6737C55.8346 55.656 55.7496 55.6284 55.6672 55.6055C55.5848 55.5826 55.5038 55.5499 55.4259 55.5231C55.2841 55.4699 55.1457 55.4083 55.0114 55.3386C54.8945 55.2786 54.7997 55.2196 54.7346 55.1798C54.6695 55.1401 54.6367 55.1094 54.6367 55.1094Z" fill="#010F10"/>
<path d="M54.4951 54.2783C54.4951 54.2783 54.5361 54.2891 54.6077 54.3122C54.6793 54.3352 54.7796 54.3642 54.9041 54.4016C55.1427 54.4739 55.4622 54.5735 55.7864 54.6447C56.1105 54.7158 56.4383 54.7751 56.6877 54.8213L56.9873 54.8772C57.0594 54.8919 57.1004 54.9027 57.1004 54.9027L56.9844 54.912C56.9101 54.9142 56.8033 54.9224 56.6759 54.9198C56.5486 54.9171 56.4014 54.9116 56.2416 54.9C56.1626 54.8898 56.0805 54.8832 55.9972 54.8674C55.914 54.8515 55.8298 54.8373 55.7463 54.8202C55.6627 54.8031 55.5796 54.7777 55.4987 54.7503C55.4178 54.723 55.3389 54.6978 55.2652 54.6767C55.1286 54.6249 54.9953 54.5652 54.8658 54.4977C54.7522 54.4396 54.6615 54.3808 54.5983 54.3433C54.5351 54.3057 54.4951 54.2783 54.4951 54.2783Z" fill="#010F10"/>
<path d="M54.415 53.4707L54.5212 53.5008C54.587 53.5227 54.6819 53.5517 54.7961 53.5865C55.0684 53.6748 55.3451 53.7489 55.6251 53.8084C55.9293 53.8713 56.2409 53.9158 56.4755 53.9578C56.7101 53.9998 56.8662 54.0384 56.8662 54.0384C56.7325 54.0528 56.598 54.0602 56.4635 54.0604C56.1688 54.0654 55.8744 54.0397 55.585 53.984C55.5065 53.9655 55.4267 53.9474 55.3501 53.9257C55.2734 53.904 55.2005 53.8759 55.1279 53.849C54.9986 53.8004 54.8727 53.7431 54.751 53.6776C54.6339 53.6173 54.5216 53.5481 54.415 53.4707Z" fill="#010F10"/>
<path d="M54.4971 52.6514C54.4971 52.6514 54.6346 52.6867 54.8309 52.7485C55.0273 52.8103 55.2879 52.8835 55.5525 52.9406C55.817 52.9977 56.0853 53.0484 56.2887 53.0907C56.492 53.1329 56.6277 53.1714 56.6277 53.1714C56.5121 53.1862 56.3957 53.1933 56.2792 53.1926C56.022 53.195 55.7653 53.1693 55.5136 53.1158C55.4451 53.0988 55.3765 53.0818 55.3098 53.0615C55.243 53.0412 55.1795 53.0174 55.1175 52.9945C55.0048 52.9522 54.8956 52.9013 54.7907 52.8424C54.6879 52.7866 54.5897 52.7227 54.4971 52.6514Z" fill="#010F10"/>
</g>
<path d="M54.1999 58.7686C53.37 59.1584 52.6276 59.8341 51.9431 60.7053C51.9 60.7541 51.8696 60.8129 51.8547 60.8763C51.8398 60.9397 51.8408 61.0058 51.8577 61.0687C51.8746 61.1316 51.9067 61.1893 51.9513 61.2368C51.9959 61.2843 52.0516 61.32 52.1133 61.3407C53.3513 61.8215 54.6395 62.1616 55.9535 62.3547C56.2895 62.3899 56.6257 62.2905 56.8886 62.0783C57.5186 61.5099 58.0609 60.8515 58.498 60.1243C58.5331 60.0656 58.5547 59.9997 58.561 59.9316C58.5673 59.8634 58.5583 59.7947 58.5345 59.7305C58.5108 59.6663 58.473 59.6082 58.4238 59.5606C58.3747 59.5129 58.3155 59.4769 58.2506 59.4551C57.2764 59.0696 56.2632 58.7907 55.2289 58.6236C54.8792 58.588 54.5261 58.6377 54.1999 58.7686Z" fill="#7591CD"/>
<g opacity="0.2">
<path d="M52.4941 60.9004C52.4941 60.9004 52.5525 60.8997 52.6544 60.9038C52.7563 60.9078 52.9009 60.914 53.0697 60.9287C53.4939 60.971 53.9143 61.046 54.327 61.1529C54.7388 61.2599 55.141 61.4009 55.5295 61.5744C55.7066 61.6533 55.8797 61.741 56.048 61.8372L55.4938 61.6698C55.163 61.5691 54.7215 61.4409 54.2769 61.3271C53.8324 61.2133 53.3848 61.1085 53.0481 61.0312L52.6396 60.935C52.5506 60.918 52.4941 60.9004 52.4941 60.9004Z" fill="#010F10"/>
<path d="M53.1973 60.2012L53.3579 60.2058C53.4585 60.2102 53.6044 60.216 53.7731 60.2307C54.1978 60.2732 54.6185 60.3481 55.0317 60.4547C55.4434 60.5621 55.8455 60.7031 56.2342 60.8761C56.4117 60.9571 56.5849 61.047 56.7532 61.1456L56.1989 60.9782C55.8682 60.8775 55.4279 60.7489 54.9834 60.6351C54.5388 60.5213 54.0909 60.4153 53.7542 60.338L53.3448 60.2434C53.2534 60.2175 53.1973 60.2012 53.1973 60.2012Z" fill="#010F10"/>
<path d="M53.8037 59.6035L53.9627 59.6072C54.0649 59.6125 54.2108 59.6184 54.378 59.6321C54.8026 59.6746 55.2233 59.7495 55.6365 59.8561C56.0482 59.9635 56.4504 60.1045 56.8391 60.2775C57.0165 60.3585 57.1897 60.4485 57.358 60.547L56.8101 60.3779C56.4791 60.2759 56.0391 60.1486 55.5942 60.0336C55.1493 59.9185 54.7021 59.815 54.3641 59.738L53.956 59.6431C53.8598 59.6198 53.8037 59.6035 53.8037 59.6035Z" fill="#010F10"/>
<path d="M54.4912 59.0625C54.4912 59.0625 54.5454 59.0616 54.639 59.0651C54.7326 59.0687 54.8657 59.0725 55.0252 59.0883C55.4149 59.1254 55.801 59.1932 56.18 59.291C56.5593 59.3873 56.9295 59.5159 57.2868 59.6754C57.4492 59.7491 57.6076 59.8312 57.7614 59.9215C57.7614 59.9215 57.7101 59.908 57.6212 59.8814L57.2527 59.7717C56.9477 59.6805 56.5437 59.5654 56.1353 59.4596C55.727 59.3538 55.3185 59.2576 55.009 59.1853L54.6347 59.0949C54.5428 59.0773 54.4912 59.0625 54.4912 59.0625Z" fill="#010F10"/>
</g>
<path d="M76.466 49.1909L69.879 47.4256L72.558 44.7465L76.1641 45.8682L76.466 49.1909Z" fill="#7591CD"/>
<path opacity="0.35" d="M76.466 49.1909L69.879 47.4256L72.558 44.7465L76.1641 45.8682L76.466 49.1909Z" fill="#010F10"/>
<path d="M73.8495 49.0482L74.2333 47.202L71.9816 46.5958C71.2661 46.4062 70.4507 46.6669 69.6849 47.4332C68.0576 49.061 67.2653 52.346 67.9141 54.7722C68.2546 56.043 68.9212 56.8178 69.7164 57.046L69.7488 57.055L72.0569 57.6733L72.4613 55.7262C73.7704 54.0393 74.3669 51.2331 73.8495 49.0482Z" fill="#37474F"/>
<path d="M73.8495 49.0482L74.2333 47.202L71.9816 46.5958C71.2661 46.4062 70.4507 46.6669 69.6849 47.4332C68.0576 49.061 67.2653 52.346 67.9141 54.7722C68.2546 56.043 68.9212 56.8178 69.7164 57.046L69.7488 57.055L72.0569 57.6733L72.4613 55.7262C73.7704 54.0393 74.3669 51.2331 73.8495 49.0482Z" fill="#382626"/>
<path d="M76.1513 49.5093C76.7117 51.601 76.1998 54.3314 75.0032 56.0821C75.0031 56.0844 75.0037 56.0866 75.0049 56.0885C74.8226 56.3571 74.6165 56.6087 74.3892 56.8405C72.7619 58.4683 70.9148 57.8218 70.2661 55.3956C69.7754 53.5644 70.1059 51.2395 71.0045 49.51C71.0076 49.5058 71.01 49.501 71.0116 49.4959C71.2779 48.9698 71.6225 48.4871 72.0336 48.0643C73.6558 46.4379 75.5016 47.0847 76.1513 49.5093Z" fill="#37474F"/>
<path d="M72.4256 49.528C73.461 48.492 74.6522 48.9627 75.0853 50.5792C75.5184 52.1956 75.0246 54.3478 73.9943 55.3824C72.964 56.4171 71.7677 55.9477 71.3329 54.325C70.8981 52.7022 71.3848 50.5642 72.4256 49.528Z" fill="#55656D"/>
<path d="M74.0821 51.7336C74.2202 52.5588 73.9375 53.5525 73.4509 53.9526C73.3715 54.0312 73.2703 54.0842 73.1604 54.1047C73.0506 54.1251 72.9371 54.1121 72.8347 54.0673C72.5951 53.9558 72.3999 53.639 72.3245 53.1798C72.1865 52.3546 72.4665 51.3616 72.9574 50.9672C73.065 50.8695 73.2027 50.8114 73.3478 50.8026C73.6871 50.788 73.9824 51.1325 74.0821 51.7336Z" fill="#F0F7F7"/>
<path d="M73.8558 51.6856C73.9925 52.5111 73.7112 53.5045 73.2228 53.8982C73.1154 53.9953 72.9783 54.0532 72.8337 54.0624C72.5941 53.9509 72.3989 53.6341 72.3235 53.1749C72.1855 52.3497 72.4656 51.3567 72.9564 50.9623C73.064 50.8646 73.2018 50.8065 73.3468 50.7978C73.5855 50.9109 73.7781 51.2229 73.8558 51.6856Z" fill="#F0F7F7"/>
<path d="M76.1517 49.5094C76.7122 51.601 76.2003 54.3314 75.0037 56.0822C75.655 54.833 76.1587 52.9002 76.0683 51.211C75.9886 49.7342 75.34 47.756 74.0033 47.5708C72.6666 47.3855 71.3708 48.8781 70.9993 49.4993C71.2692 48.9712 71.6181 48.4873 72.034 48.0644C73.6562 46.438 75.502 47.0847 76.1517 49.5094Z" fill="#55656D"/>
<path d="M74.9218 41.1347C73.7679 39.6542 70.3562 38.7092 69.267 39.6766C68.9277 39.9759 67.9953 40.949 66.809 42.1331C66.809 42.1331 62.9439 46.1651 62.5829 46.5206C62.5829 46.5206 64.7778 45.893 65.3269 45.9393C65.8759 45.9856 65.8796 46.3959 65.8847 46.5471L65.8498 47.4336C66.0245 50.3832 61.9862 52.691 61.3367 53.9724C61.1085 54.4272 60.8754 54.6299 60.4273 55.0769C59.9791 55.5238 57.1717 58.2523 56.7744 58.6503C56.0579 59.3666 54.8526 60.3583 54.8526 60.3583L57.0512 68.5636L69.3209 56.3671C69.2607 56.1421 69.2123 55.9142 69.176 55.6841C68.7151 52.9474 69.8459 49.3293 71.6185 47.5577C73.5411 45.6342 75.7151 46.3674 76.4731 49.1961L76.7847 48.8851C77.8868 47.7372 76.0725 42.6078 74.9218 41.1347Z" fill="#7591CD"/>
<path d="M67.409 45.2588C66.5194 45.4972 66.6069 45.9709 66.5617 46.9663C66.5264 47.7494 66.3447 48.4845 66.7169 48.1505C67.0891 47.8165 68.148 45.8412 68.3505 45.4941C68.7693 44.7799 67.8156 45.1498 67.409 45.2588Z" fill="#010F10"/>
<path d="M70.4543 39.2791C69.9575 39.3006 69.5322 39.4214 69.2562 39.6669C68.9172 39.9675 67.9839 40.9422 66.7975 42.1263L65.2007 43.72L53.5825 40.6183C53.5825 40.6183 56.9524 37.5797 58.1942 36.6736C59.4359 35.7675 69.7848 38.3458 70.4543 39.2791Z" fill="#7591CD"/>
<path opacity="0.5" d="M55.2621 60.809L61.8398 54.2795C61.9348 54.318 62.0187 54.3795 62.0839 54.4586C62.1491 54.5377 62.1935 54.6318 62.2131 54.7324L55.2621 60.809Z" fill="#F0F7F7"/>
<path d="M61.1634 56.3566C61.1573 56.3625 61.1497 56.3666 61.1415 56.3687C61.1333 56.3708 61.1246 56.3708 61.1164 56.3686C61.1082 56.3664 61.1007 56.3622 61.0946 56.3564C61.0884 56.3505 61.0839 56.3431 61.0814 56.335L61.0218 56.1126C60.9768 55.9449 61.1554 55.5947 61.4153 55.3344L61.8019 54.9475C62.064 54.6852 62.3132 54.6089 62.3581 54.7767L62.4068 54.9584C62.4169 54.9958 62.4169 55.0351 62.4068 55.0725C62.3967 55.1099 62.3769 55.144 62.3495 55.1712L61.1634 56.3566Z" fill="#37474F"/>
<path opacity="0.5" d="M65.5092 50.5444C65.1902 50.95 63.2833 52.9115 63.0197 53.1987C63.2516 53.3281 63.4474 53.5135 63.5892 53.738C63.5892 53.738 70.4084 46.9204 71.9135 44.6484C73.4185 42.3765 74.061 40.4637 72.3096 40.0273C71.779 39.8971 71.2587 39.6633 70.7516 40.0225C70.7146 40.0467 70.6827 40.078 70.6577 40.1144C70.6239 40.1845 70.6104 40.2627 70.6187 40.34C70.6362 42.1945 69.5648 43.8736 68.7709 45.4905C67.9934 47.0772 66.6359 49.1121 65.5092 50.5444Z" fill="#F0F7F7"/>
<path opacity="0.15" d="M47.3691 42.1588C47.3691 42.1588 56.2053 36.9064 56.9922 37.1287C57.7791 37.351 49.8199 43.7467 49.8199 43.7467L47.3691 42.1588Z" fill="#010F10"/>
<path opacity="0.15" d="M57.6751 66.1513C57.3819 66.4247 57.1168 65.7098 56.5388 64.3352C55.9607 62.9605 55.3402 60.5635 55.3402 60.5635C55.3918 61.6965 56.1843 64.2626 56.7666 65.8868C57.3488 67.5109 57.6199 67.2721 57.8855 66.9367L64.3184 60.1463L57.6751 66.1513Z" fill="#010F10"/>
<path opacity="0.15" d="M62.2283 53.797C62.2283 53.797 62.812 54.1963 63.1157 55.3298C63.4787 56.6845 64.3555 59.9008 64.3555 59.9008C64.3555 59.9008 63.6498 56.2504 63.4985 55.0911C63.3472 53.9317 62.6095 53.4456 62.6095 53.4456L62.2283 53.797Z" fill="#010F10"/>
<path opacity="0.15" d="M70.2669 48.8713C70.2669 48.8713 69.8098 47.9586 69.4345 47.671C69.0592 47.3834 67.5342 47.5986 67.5342 47.5986C67.5342 47.5986 68.7988 47.6875 69.2106 47.9435C69.6224 48.1995 70.2669 48.8713 70.2669 48.8713Z" fill="#010F10"/>
<path opacity="0.15" d="M74.2163 46.3904C74.2163 46.3904 75.4621 45.1536 75.6298 44.5135C75.7974 43.8734 75.4361 41.9912 75.4361 41.9912C75.4361 41.9912 76.1318 44.0793 75.8956 44.6874C75.6595 45.2955 74.2163 46.3904 74.2163 46.3904Z" fill="#010F10"/>
<path d="M69.5148 43.009C67.9471 42.1501 66.1907 41.6946 64.4872 41.1827C62.7837 40.6708 61.1043 40.1823 59.4049 39.7265C58.004 39.3473 56.6007 38.9797 55.1749 38.6807C54.7937 38.5967 54.4082 38.5341 54.02 38.493L53.874 38.4818L53.8575 38.4862C53.6687 38.4782 53.4331 38.4732 53.1629 38.4762C51.7778 38.4864 49.4605 38.6674 47.554 39.309C45.8924 39.8686 38.4513 46.2358 37.8006 47.5788C37.4944 48.1919 37.2195 48.8202 36.977 49.4611C36.977 49.4611 37.9003 48.2508 38.5264 48.305C39.0313 48.3495 43.1216 50.4393 45.6567 51.0253C48.6795 51.7135 52.7092 52.1184 53.7293 52.2863C54.7495 52.4542 54.4789 53.7062 54.4789 53.7062C54.7208 52.9264 54.8259 52.4951 55.2266 51.9219C55.963 50.8679 59.2494 47.8585 59.301 47.812C59.7564 47.3967 60.2933 47.0808 60.8775 46.8842L64.8903 45.9452L69.1716 43.7615C69.4093 43.6885 69.6246 43.5563 69.7973 43.3773C69.8168 43.2059 69.6575 43.0893 69.5148 43.009Z" fill="#7591CD"/>
<path opacity="0.5" d="M54.8554 52.3524C55.7705 51.0996 56.7799 49.9185 57.8749 48.8194C59.7563 46.9151 60.2759 46.5212 62.5796 45.893C64.3363 45.4141 66.1148 44.9962 67.8792 44.5411C67.9608 44.5269 68.0373 44.4919 68.1012 44.4394C68.1323 44.4119 68.1517 44.3737 68.1555 44.3324C68.1594 44.2912 68.1474 44.25 68.1221 44.2172C68.0793 44.1842 68.0265 44.1667 67.9725 44.1674C66.6426 44.0634 64.6915 44.4269 63.3839 44.1521C62.2607 43.915 61.1491 43.6245 60.0321 43.3341C56.979 42.5327 54.0995 41.7693 51.0023 40.7224C48.1138 39.7475 47.6183 39.3368 46.6633 39.778C44.1082 41.3997 38.3598 46.4035 37.7942 47.5766L37.7875 47.592L37.926 48.0683C37.926 48.0683 38.1036 48.1569 38.416 48.3061C38.4505 48.3014 38.4853 48.3003 38.52 48.3028C38.9777 48.3436 42.3791 50.0636 44.9026 50.8148C45.1527 50.884 45.404 50.9528 45.6533 51.0141C48.2635 51.6058 51.6105 51.9893 53.1397 52.1911C54.1796 52.3006 54.8554 52.3524 54.8554 52.3524Z" fill="#F0F7F7"/>
<path opacity="0.15" d="M68.072 43.9948C67.3479 44.1065 66.6184 44.1801 65.8865 44.2154C65.0602 44.2624 64.199 44.327 63.3807 44.1554C62.2576 43.9183 61.146 43.6278 60.0289 43.3374C56.9771 42.5357 54.0963 41.7726 50.9991 40.7257C48.1122 39.7518 47.6151 39.3402 46.6601 39.7813C46.9372 39.5932 47.2337 39.4352 47.5444 39.3101C49.8248 38.5438 52.6912 38.4349 53.8479 38.4873C54.2921 38.5209 54.733 38.5881 55.1671 38.6882C56.5898 38.9757 57.9948 39.3497 59.3971 39.7339C61.0979 40.1953 62.792 40.6807 64.4794 41.1901C66.1828 41.7021 67.9393 42.1576 69.5069 43.0165C69.649 43.0942 69.8076 43.2083 69.789 43.3726C69.512 43.6811 69.0861 43.7993 68.6803 43.8862C68.4831 43.9228 68.277 43.9616 68.072 43.9948Z" fill="#010F10"/>
<path d="M64.6814 41.8882C61.1142 40.9372 58.5472 40.1609 55.7765 39.4173C54.766 39.1433 53.8432 38.9929 52.641 39.1216C52.016 39.1883 50.9724 39.2786 50.4359 39.4318C49.5314 39.711 50.2032 40.088 52.3144 40.6528C54.4257 41.2176 60.2297 42.9175 61.453 43.2435C62.6763 43.5695 64.5084 43.9721 66.6925 43.7464C68.8766 43.5207 70.5568 43.4628 64.6814 41.8882Z" fill="#55656D"/>
<path d="M65.8885 45.6267C65.186 45.4145 62.7574 46.0339 61.6293 46.2817C60.5346 46.5219 59.8345 46.8879 59.2125 47.474C59.1698 47.5127 59.1274 47.5527 59.0869 47.5949C58.5931 48.1004 55.9699 50.7741 55.1909 51.5317C54.4119 52.2893 54.4464 52.972 54.2495 54.0163C54.0526 55.0606 52.9172 60.9231 52.972 61.6766C53.0268 62.4301 56.2947 59.4733 56.2947 59.4733L61.0045 54.7614C61.1877 54.5761 61.2379 54.5245 61.4564 54.2875C61.6748 54.0506 64.5315 51.0487 65.5461 49.6301C66.0528 48.9236 66.135 48.4985 66.1327 47.4939C66.1321 46.2969 66.3285 45.7594 65.8885 45.6267ZM61.0009 54.1331C60.646 54.5115 59.696 55.3626 58.2986 56.7912C56.5086 58.6247 53.7565 60.9243 53.7373 60.939C53.9595 59.1402 54.7749 54.7417 54.8953 53.8187C55.0157 52.8957 55.1985 52.2311 55.5798 51.8647C56.4181 51.049 59.013 48.5136 59.5087 48.0049C59.5337 47.9791 59.565 47.9601 59.5994 47.9497C59.6338 47.9393 59.6703 47.9378 59.7055 47.9454C59.7406 47.953 59.7733 47.9695 59.8003 47.9932C59.8274 48.0169 59.8479 48.0471 59.86 48.081C59.8878 48.1539 59.9157 48.2431 59.9447 48.3511L61.2355 53.1686C61.295 53.3347 61.3044 53.5146 61.2627 53.686C61.221 53.8574 61.13 54.0129 61.0009 54.1331ZM65.6729 46.1843C65.6886 46.6649 65.7804 48.6493 65.3428 49.2528C65.0038 49.7209 62.9521 51.9146 62.2054 52.7575C61.9108 53.0912 61.7519 52.7932 61.6477 52.4044C61.3839 51.4195 60.8305 49.3545 60.5186 48.1905C60.3319 47.58 60.4228 47.2941 60.9004 47.0736C61.4957 46.7996 65.6474 45.5809 65.6729 46.1843Z" fill="#382626"/>
<path opacity="0.5" d="M61.0011 54.133C60.6462 54.5114 59.6962 55.3626 58.2988 56.7912C56.5088 58.6246 53.7567 60.9243 53.7375 60.939C53.9597 59.1401 54.7751 54.7417 54.8955 53.8187C55.0159 52.8956 55.1987 52.231 55.58 51.8646C56.4183 51.0489 59.0132 48.5135 59.5089 48.0048C59.5339 47.979 59.5652 47.96 59.5996 47.9496C59.634 47.9392 59.6705 47.9377 59.7057 47.9454C59.7408 47.953 59.7735 47.9694 59.8005 47.9931C59.8276 48.0168 59.8481 48.0471 59.8602 48.0809C59.888 48.1539 59.9159 48.2431 59.9449 48.3511L61.2357 53.1685C61.2952 53.3346 61.3046 53.5145 61.2629 53.6859C61.2212 53.8574 61.1302 54.0128 61.0011 54.133Z" fill="#010F10"/>
<path opacity="0.5" d="M65.6731 46.1843C65.6888 46.6649 65.7806 48.6493 65.343 49.2528C65.004 49.7209 62.9523 51.9146 62.2056 52.7575C61.911 53.0912 61.7521 52.7932 61.6479 52.4044C61.3841 51.4195 60.8307 49.3545 60.5188 48.1905C60.3321 47.58 60.423 47.2941 60.9006 47.0736C61.4959 46.7996 65.6476 45.5809 65.6731 46.1843Z" fill="#010F10"/>
<path d="M52.1817 61.5509C50.452 60.8649 46.6496 59.4172 42.8069 58.3684C37.9769 57.0503 33.1795 56.8048 33.1699 56.8047C33.4103 57.2238 34.3152 57.7495 35.4833 58.2714C36.3104 58.6436 37.2282 59.0038 38.272 59.3615C40.7546 60.2599 43.0057 60.7368 43.8384 60.9726C47.9558 61.9587 52.0205 62.4944 52.4317 61.6147C52.4317 61.6147 52.1837 61.5531 52.1817 61.5509Z" fill="#55656D"/>
<path d="M52.4314 61.6151C52.2313 61.5543 45.6068 59.5729 42.5569 58.6972C39.6529 57.8627 33.8733 56.9202 33.1709 56.8047C36.428 56.9937 39.657 57.5178 42.8066 58.3687C46.6493 59.4175 50.7027 60.9274 52.4314 61.6151Z" fill="#37474F"/>
<path d="M33.635 55.0377L33.6509 55.6055C33.5042 56.2373 33.0389 57.1083 32.7898 57.1138C32.5665 57.1191 32.3564 56.8485 32.1908 56.4898C32.1112 56.3185 32.0442 56.1416 31.9904 55.9605C31.8114 55.3738 31.705 53.9245 32.4275 53.3373C32.5003 53.2798 32.5894 53.2467 32.6821 53.243C32.7748 53.2392 32.8663 53.2648 32.9435 53.3162C33.0825 53.3968 33.2001 53.5096 33.2864 53.6452C33.532 54.0179 33.6482 55.011 33.635 55.0377Z" fill="#7591CD"/>
<path opacity="0.3" d="M33.635 55.0377C33.651 55.2704 33.6509 55.6055 33.6509 55.6055C33.5042 56.2373 33.0389 57.1083 32.7898 57.1138C32.5665 57.1191 32.3564 56.8485 32.1908 56.4898C32.1112 56.3185 32.0442 56.1416 31.9904 55.9605C31.8114 55.3738 31.705 53.9245 32.4275 53.3373C32.5003 53.2798 32.5894 53.2467 32.6821 53.243C32.7748 53.2392 32.8663 53.2648 32.9435 53.3162C33.0825 53.3968 33.2001 53.5096 33.2864 53.6452C33.532 54.0179 33.6482 55.011 33.635 55.0377Z" fill="#010F10"/>
<path d="M33.6499 55.6055C33.5032 56.2373 33.0379 57.1083 32.7888 57.1138C32.5655 57.1191 32.3554 56.8485 32.1898 56.4898C32.1102 56.3185 32.0432 56.1416 31.9894 55.9605C31.8104 55.3738 31.704 53.9245 32.4266 53.3373C32.4993 53.2798 32.5884 53.2467 32.6811 53.243C32.7738 53.2392 32.8653 53.2648 32.9425 53.3162L32.8988 53.6003C32.3898 53.9982 32.4724 54.9267 32.7063 55.5859C32.9401 56.2451 33.4141 56.0419 33.6499 55.6055Z" fill="#7591CD"/>
<path opacity="0.35" d="M33.6499 55.6055C33.5032 56.2373 33.0379 57.1083 32.7888 57.1138C32.5655 57.1191 32.3554 56.8485 32.1898 56.4898C32.1102 56.3185 32.0432 56.1416 31.9894 55.9605C31.8104 55.3738 31.704 53.9245 32.4266 53.3373C32.4993 53.2798 32.5884 53.2467 32.6811 53.243C32.7738 53.2392 32.8653 53.2648 32.9425 53.3162L32.8988 53.6003C32.3898 53.9982 32.4724 54.9267 32.7063 55.5859C32.9401 56.2451 33.4141 56.0419 33.6499 55.6055Z" fill="#010F10"/>
<path d="M33.283 53.6405C33.017 53.4761 32.498 53.603 32.2244 54.3151C31.9507 55.0272 32.0825 56.0883 32.1875 56.4851C32.1078 56.3138 32.0409 56.1369 31.9871 55.9558C31.8081 55.3691 31.7017 53.9198 32.4242 53.3326C32.7264 53.0882 33.1038 53.363 33.283 53.6405Z" fill="#37474F"/>
<path d="M57.0432 68.5581L50.4558 66.7915L53.1351 64.1137L56.0639 64.9034L57.0432 68.5581Z" fill="#7591CD"/>
<path opacity="0.35" d="M57.0432 68.5581L50.4558 66.7915L53.1351 64.1137L56.0639 64.9034L57.0432 68.5581Z" fill="#010F10"/>
<path d="M54.4745 68.3675L54.8583 66.5213L52.6066 65.9152C51.8911 65.7255 51.0757 65.9862 50.3099 66.7526C48.6826 68.3804 47.889 71.6657 48.5391 74.0916C48.8796 75.3623 49.5462 76.1371 50.3414 76.3653L50.3738 76.3743L52.6813 76.9955L53.0857 75.0484C54.3893 73.3562 54.9908 70.5486 54.4745 68.3675Z" fill="#37474F"/>
<path d="M54.4745 68.3675L54.8583 66.5213L52.6066 65.9152C51.8911 65.7255 51.0757 65.9862 50.3099 66.7526C48.6826 68.3804 47.889 71.6657 48.5391 74.0916C48.8796 75.3623 49.5462 76.1371 50.3414 76.3653L50.3738 76.3743L52.6813 76.9955L53.0857 75.0484C54.3893 73.3562 54.9908 70.5486 54.4745 68.3675Z" fill="#382626"/>
<path d="M56.7753 68.825C57.3358 70.9167 56.8239 73.6471 55.6273 75.3979C55.626 75.3987 55.6248 75.3999 55.624 75.4013C55.6232 75.4027 55.6227 75.4043 55.6226 75.4059C55.4403 75.6745 55.2343 75.9262 55.0069 76.1579C53.3797 77.7857 51.5313 77.1396 50.8838 74.713C50.3932 72.8819 50.7236 70.5569 51.6222 68.8275C51.6253 68.8232 51.6277 68.8184 51.6293 68.8133C51.8969 68.2843 52.2436 67.7991 52.6576 67.3746C54.2798 65.7536 56.1257 66.4004 56.7753 68.825Z" fill="#37474F"/>
<path d="M53.0447 68.8454C54.0801 67.8094 55.2713 68.2801 55.7045 69.8965C56.1376 71.513 55.6488 73.6638 54.6134 74.6998C53.5781 75.7359 52.3868 75.2651 51.952 73.6423C51.5172 72.0196 52.0097 69.8827 53.0447 68.8454Z" fill="#55656D"/>
<path d="M54.7112 71.0553C54.8416 71.8825 54.5515 72.8687 54.0668 73.271C53.987 73.3494 53.8854 73.4019 53.7753 73.4217C53.6652 73.4414 53.5517 73.4276 53.4496 73.3819C53.2105 73.2675 53.0198 72.9522 52.9463 72.4898C52.815 71.6642 53.1047 70.6767 53.5907 70.2741C53.6991 70.1777 53.8369 70.1206 53.9818 70.1121C54.3234 70.1064 54.6156 70.4544 54.7112 71.0553Z" fill="#F0F7F7"/>
<path d="M54.4821 71.0072C54.6134 71.8328 54.3224 72.8206 53.8377 73.2228C53.7288 73.3184 53.5913 73.3754 53.4467 73.3848C53.2076 73.2704 53.0169 72.9552 52.9434 72.4927C52.8121 71.6671 53.1018 70.6797 53.5878 70.2771C53.6962 70.1806 53.834 70.1235 53.9788 70.1151C54.222 70.2297 54.4121 70.5424 54.4821 71.0072Z" fill="#F0F7F7"/>
<path d="M56.7753 68.8248C57.3358 70.9165 56.8239 73.6469 55.6272 75.3976C56.2786 74.1485 56.7822 72.2157 56.6919 70.5265C56.6122 69.0497 55.9624 67.0718 54.6269 66.8862C53.2914 66.7006 51.9944 68.1936 51.6229 68.8148C51.8905 68.2858 52.2372 67.8006 52.6511 67.3761C54.2798 65.7534 56.1256 66.4002 56.7753 68.8248Z" fill="#55656D"/>
<path d="M54.8558 60.3516C54.8558 60.3516 54.5075 60.3782 54.5077 60.069C54.5077 60.069 52.803 61.4791 52.4312 61.7231C51.6203 62.255 47.9557 61.9621 43.8377 60.9735C43.005 60.7376 40.7542 60.262 38.2725 59.3621C37.2236 59.0057 36.3097 58.6445 35.4813 58.2726C34.7805 57.9627 34.1125 57.5832 33.4875 57.1398C33.3357 57.0306 32.9949 56.7093 33.0506 56.3579C27.2805 63.3397 23.9342 66.4864 26.3212 72.0453C26.3212 72.0453 26.4629 72.4622 26.8458 73.2763C27.4319 74.518 28.7228 76.5502 30.855 77.3354C32.8182 78.0542 32.949 78.1104 35.5045 78.7168C38.0601 79.3233 41.3032 79.3954 44.2088 78.5174C47.4842 77.5254 50.0352 75.4921 49.9204 74.7029C49.8692 74.3498 49.8397 73.9938 49.8323 73.637C49.8156 72.7109 49.9196 71.7866 50.1415 70.8873C50.4793 69.5097 51.078 68.2215 51.8778 67.2772C51.9807 67.1529 52.0856 67.0363 52.1998 66.9185C53.9937 65.1249 56.0065 65.6425 56.8835 68.0157C56.9474 68.1879 57.004 68.3689 57.0551 68.5595L54.8558 60.3516Z" fill="#7591CD"/>
<path d="M38.7367 78.2492C36.5444 78.2918 34.8333 77.8786 33.144 77.4092C31.4546 76.9398 30.2902 76.391 29.5647 75.854C28.8834 75.3446 28.3417 74.5936 28.6907 74.6254C29.3538 74.9448 30.782 75.6191 31.6444 75.8688C34.2266 76.6206 37.0271 77.6585 40.6744 76.748C40.9056 76.6757 41.1446 76.6309 41.3863 76.6144C42.348 76.64 40.2278 78.2228 38.7367 78.2492Z" fill="#55656D"/>
<path d="M45.7724 74.5945C45.5629 74.6207 45.0945 74.8906 44.304 75.3666C43.5136 75.8426 43.3113 75.9213 43.0522 76.225C42.8338 76.4824 42.2724 77.2594 41.9735 77.5315C41.5005 77.962 42.1043 78.0195 43.6422 77.6087C45.1802 77.198 45.5754 76.5991 45.8074 76.0316C46.0395 75.4641 46.2469 74.5355 45.7724 74.5945Z" fill="#55656D"/>
<path d="M26.46 72.4023C26.5448 72.6071 26.6673 72.8916 26.8457 73.2728C27.1396 73.889 27.4957 74.4736 27.9084 75.0174C28.0048 75.084 28.1204 75.1172 28.2374 75.1118C28.4944 75.0239 28.1496 74.6314 27.781 74.0083C27.4125 73.3852 26.7657 72.8571 26.46 72.4023Z" fill="#55656D"/>
<path opacity="0.85" d="M30.1886 69.405C32.62 70.3313 35.141 71.0028 37.7111 71.4086C38.0916 71.4714 38.3699 71.8341 38.233 72.1922C38.0215 72.7263 37.7007 73.2103 37.2912 73.6131C37.011 73.8789 36.4065 73.9864 36.0177 73.9435C33.8615 73.724 31.9801 73.2293 30.3736 72.4594C30.0252 72.2926 29.5624 71.8868 29.4512 71.5175C29.274 70.9428 29.2013 70.3409 29.2365 69.7404C29.283 69.3548 29.8294 69.2642 30.1886 69.405Z" fill="#F0F7F7"/>
<path d="M36.6578 73.4698C36.4645 73.5216 36.2639 73.5409 36.0643 73.5267C33.964 73.3131 32.112 72.826 30.5584 72.0805C30.2598 71.9371 29.9185 71.6036 29.8556 71.3944C29.6969 70.8785 29.6293 70.339 29.6558 69.7999C29.6853 69.6558 29.9414 69.7574 30.0358 69.7948C32.4952 70.7318 35.045 71.412 37.6443 71.8244C37.6827 71.8303 37.7194 71.8443 37.7521 71.8653C37.7847 71.8864 37.8125 71.9141 37.8337 71.9466C37.8432 71.9608 37.8489 71.9772 37.8504 71.9941C37.8518 72.0111 37.849 72.0282 37.8421 72.0438C37.6531 72.5202 37.3671 72.9521 37.0024 73.3121C36.9009 73.39 36.7831 73.4439 36.6578 73.4698Z" fill="#7591CD"/>
<path opacity="0.35" d="M36.6578 73.4698C36.4645 73.5216 36.2639 73.5409 36.0643 73.5267C33.964 73.3131 32.112 72.826 30.5584 72.0805C30.2598 71.9371 29.9185 71.6036 29.8556 71.3944C29.6969 70.8785 29.6293 70.339 29.6558 69.7999C29.6853 69.6558 29.9414 69.7574 30.0358 69.7948C32.4952 70.7318 35.045 71.412 37.6443 71.8244C37.6827 71.8303 37.7194 71.8443 37.7521 71.8653C37.7847 71.8864 37.8125 71.9141 37.8337 71.9466C37.8432 71.9608 37.8489 71.9772 37.8504 71.9941C37.8518 72.0111 37.849 72.0282 37.8421 72.0438C37.6531 72.5202 37.3671 72.9521 37.0024 73.3121C36.9009 73.39 36.7831 73.4439 36.6578 73.4698Z" fill="#010F10"/>
<path d="M33.22 73.2115L32.8008 73.223C32.7939 72.3465 32.8965 71.4725 33.1062 70.6215L33.5107 70.7283C33.3137 71.5412 33.216 72.375 33.22 73.2115Z" fill="#7591CD"/>
<path opacity="0.85" d="M33.22 73.2115L32.8008 73.223C32.7939 72.3465 32.8965 71.4725 33.1062 70.6215L33.5107 70.7283C33.3137 71.5412 33.216 72.375 33.22 73.2115Z" fill="#F0F7F7"/>
<path d="M37.9978 72.0902C36.3766 71.8781 34.7721 71.553 33.1962 71.1172C31.378 70.5788 29.5316 69.8791 29.5137 69.873L29.5384 69.8078C29.5564 69.8139 31.3996 70.5118 33.2165 71.0505C34.7865 71.4858 36.3852 71.8097 38.0008 72.0199L37.9978 72.0902Z" fill="#7591CD"/>
<path d="M37.8469 72.3328C36.2507 72.1281 34.6712 71.8099 33.1203 71.3806C31.3018 70.8409 29.5811 70.1783 29.5654 70.1757L29.5902 70.1105C29.6072 70.1182 31.325 70.7802 33.1419 71.319C34.6877 71.747 36.262 72.0643 37.8528 72.2686L37.8469 72.3328Z" fill="#7591CD"/>
<path d="M37.6951 72.5775C36.1237 72.381 34.5688 72.0692 33.0432 71.6448C31.2246 71.1051 29.6277 70.4774 29.6123 70.4707L29.6383 70.4051C29.6538 70.4119 31.2465 71.0393 33.0634 71.578C34.5838 72.001 36.1333 72.3115 37.6993 72.5069L37.6951 72.5775Z" fill="#7591CD"/>
<path d="M37.5449 72.8213C35.9976 72.6355 34.4671 72.3308 32.9667 71.9097C31.1482 71.37 29.6763 70.777 29.6647 70.7692L29.6911 70.7049C29.7049 70.7108 31.1739 71.3032 32.9917 71.8404C34.4869 72.261 36.0124 72.5653 37.5545 72.7507L37.5449 72.8213Z" fill="#7591CD"/>
<path d="M37.3942 73.0645C35.8719 72.8861 34.366 72.5878 32.8907 72.1723C31.0713 71.6343 29.7257 71.0755 29.7106 71.07L29.7382 71.0054C29.7504 71.0103 31.0944 71.5681 32.9097 72.106C34.3799 72.5202 35.8805 72.8176 37.3975 72.9955L37.3942 73.0645Z" fill="#7591CD"/>
<path d="M37.243 73.3093C35.7458 73.1383 34.2649 72.8469 32.8145 72.4379C31.7785 72.1372 30.7595 71.7805 29.762 71.3695L29.79 71.3061C30.7852 71.7152 31.8016 72.0707 32.8348 72.3712C34.28 72.7794 35.7559 73.0703 37.2479 73.2413L37.243 73.3093Z" fill="#7591CD"/>
<path d="M37.0926 73.5528C35.619 73.3903 34.1615 73.1057 32.735 72.7019C31.7398 72.4157 30.7624 72.0709 29.8079 71.6693L29.8372 71.6056C30.7887 72.0062 31.7631 72.35 32.7553 72.6352C34.1759 73.0371 35.6273 73.3211 37.0947 73.4841L37.0926 73.5528Z" fill="#7591CD"/>
<g opacity="0.85">
<path d="M37.9978 72.0892C36.3766 71.8771 34.7721 71.552 33.1962 71.1162C31.378 70.5778 29.5316 69.8781 29.5137 69.872L29.5384 69.8068C29.5564 69.8129 31.3996 70.5108 33.2165 71.0495C34.7865 71.4848 36.3852 71.8087 38.0008 72.019L37.9978 72.0892Z" fill="#F0F7F7"/>
<path d="M37.8469 72.3328C36.2507 72.1281 34.6712 71.8099 33.1203 71.3806C31.3018 70.8409 29.5811 70.1783 29.5654 70.1757L29.5902 70.1105C29.6072 70.1182 31.325 70.7802 33.1419 71.319C34.6877 71.747 36.262 72.0643 37.8528 72.2686L37.8469 72.3328Z" fill="#F0F7F7"/>
<path d="M37.696 72.5775C36.1246 72.381 34.5698 72.0692 33.0441 71.6448C31.2256 71.1051 29.6287 70.4774 29.6133 70.4707L29.6393 70.4051C29.6547 70.4119 31.2475 71.0393 33.0644 71.578C34.5848 72.001 36.1343 72.3115 37.7003 72.5069L37.696 72.5775Z" fill="#F0F7F7"/>
<path d="M37.5449 72.8213C35.9976 72.6355 34.4671 72.3308 32.9667 71.9097C31.1482 71.37 29.6763 70.777 29.6647 70.7692L29.6911 70.7049C29.7049 70.7108 31.1739 71.3032 32.9917 71.8404C34.4869 72.261 36.0124 72.5653 37.5545 72.7507L37.5449 72.8213Z" fill="#F0F7F7"/>
<path d="M37.3942 73.0645C35.8719 72.8861 34.366 72.5878 32.8907 72.1723C31.0713 71.6343 29.7257 71.0755 29.7106 71.07L29.7382 71.0054C29.7504 71.0103 31.0944 71.5681 32.9097 72.106C34.3799 72.5202 35.8805 72.8176 37.3975 72.9955L37.3942 73.0645Z" fill="#F0F7F7"/>
<path d="M37.243 73.3093C35.7458 73.1383 34.2649 72.8469 32.8145 72.4379C31.7785 72.1372 30.7595 71.7805 29.762 71.3695L29.79 71.3061C30.7852 71.7152 31.8016 72.0707 32.8348 72.3712C34.28 72.7794 35.7559 73.0703 37.2479 73.2413L37.243 73.3093Z" fill="#F0F7F7"/>
<path d="M37.0926 73.5518C35.619 73.3893 34.1615 73.1047 32.735 72.7009C31.7398 72.4147 30.7624 72.0699 29.8079 71.6683L29.8372 71.6046C30.7887 72.0052 31.7631 72.349 32.7553 72.6342C34.1759 73.0362 35.6273 73.3201 37.0947 73.4831L37.0926 73.5518Z" fill="#F0F7F7"/>
</g>
<path opacity="0.5" d="M32.7192 58.0713C32.3802 58.0872 28.514 62.9586 28.0547 63.7504C27.5953 64.5422 27.8619 64.4544 28.6714 65.3557C29.6613 66.4525 29.2033 67.7629 29.6376 67.5484C29.8518 67.4434 30.2911 65.1587 31.1975 62.8075C32.124 60.4045 33.3023 58.0417 32.7192 58.0713Z" fill="#F0F7F7"/>
<path opacity="0.85" d="M44.6283 71.6281C44.8144 71.2296 44.8971 70.7811 44.5751 70.4942C44.2531 70.2073 43.6586 70.1541 43.2465 70.146C41.9671 70.1271 40.732 70.6137 39.8093 71.5001C39.5931 71.6965 39.4168 71.9329 39.2903 72.1963C39.2271 72.3281 39.1906 72.4712 39.1829 72.6173C39.1753 72.7633 39.1967 72.9094 39.2459 73.0471C39.7617 74.3063 41.7402 73.9587 42.6864 73.52C43.301 73.2325 43.8353 72.7979 44.2419 72.2546C44.3924 72.06 44.5219 71.8499 44.6283 71.6281Z" fill="#F0F7F7"/>
<path opacity="0.85" d="M27.4995 70.2451C27.5853 70.261 27.6731 70.2623 27.7594 70.249C27.8729 70.2248 27.9801 70.177 28.0739 70.1087C28.1678 70.0403 28.2462 69.953 28.3041 69.8524C28.4198 69.6514 28.5021 69.433 28.5476 69.2056C28.8024 68.1689 29.3352 65.4098 27.5441 65.4607C26.9713 65.4779 26.5229 66.1429 26.3327 66.6324C26.0585 67.3514 26.0521 68.1449 26.3148 68.8682C26.4901 69.3497 26.9118 70.1356 27.4995 70.2451Z" fill="#F0F7F7"/>
<path opacity="0.15" d="M45.1953 71.3926C46.7603 71.1073 48.3754 71.4115 49.7294 72.2465C48.2722 71.7257 46.7421 71.4375 45.1953 71.3926Z" fill="#010F10"/>
<path opacity="0.15" d="M34.1851 58.2311C34.1851 58.2311 31.5109 62.3159 30.1487 68.1302L34.1851 58.2311Z" fill="#010F10"/>
<path opacity="0.15" d="M38.3787 70.3341C38.3787 70.3341 43.1235 66.0118 50.9292 62.7844L38.3787 70.3341Z" fill="#010F10"/>
<path opacity="0.15" d="M26.0996 71.2568C26.8604 72.3782 28.8833 73.8533 31.4908 74.5725C34.0983 75.2916 37.5068 76.3314 40.8487 75.5518C44.1905 74.7721 45.8152 71.7013 45.8152 71.7013C45.8152 71.7013 44.8388 74.8789 40.9756 76.0053C37.1124 77.1317 34.2493 76.0534 31.5606 75.2702C28.7616 74.4566 26.7938 72.7597 26.0996 71.2568Z" fill="#010F10"/>
<path opacity="0.5" d="M48.7463 71.5819C48.9982 69.3706 50.0705 67.3998 51.2007 66.6312C49.8785 67.0999 48.4595 68.9661 48.3858 71.4715C48.3861 71.4727 48.6205 71.5393 48.7463 71.5819Z" fill="#F0F7F7"/>
<path opacity="0.5" d="M48.389 71.9908C48.432 72.8552 48.6182 73.7065 48.94 74.5099C48.7276 73.7114 48.6479 72.8833 48.7041 72.0589L48.389 71.9908Z" fill="#F0F7F7"/>
<path opacity="0.5" d="M44.4949 69.682C45.5403 69.8881 45.8131 70.4688 46.3581 69.7275C46.9032 68.9863 50.9641 64.0437 52.017 63.2154C53.2012 62.2825 51.9621 62.5328 49.1733 64.2934C46.3844 66.054 41.4916 68.8986 41.3501 69.2702C41.2086 69.6418 42.4758 69.2832 44.4949 69.682Z" fill="#F0F7F7"/>
<path d="M41.2658 49.2615C40.4187 48.9269 39.5898 48.548 38.7825 48.1263C38.4461 47.9522 38.1167 47.7681 37.7941 47.574C35.9069 50.3114 34.2963 53.2294 32.9859 56.2852C32.7862 57.0293 34.7787 58.1012 37.5781 59.1299C43.3898 61.265 52.6855 63.2171 53.0974 61.6739L54.7249 52.1124C49.5971 51.6654 45.0453 50.7658 41.2658 49.2615ZM52.5655 61.4882C52.501 61.5245 52.4316 61.5513 52.3594 61.5679C50.4533 62.0786 43.2329 60.6083 37.7748 58.6032C34.2454 57.3056 33.6412 56.555 33.5482 56.3961C34.6828 53.7642 36.046 51.2369 37.6221 48.8431C37.7172 48.7001 37.8619 48.5973 38.0283 48.5547C38.1948 48.5122 38.3711 48.5328 38.5232 48.6126C39.3448 49.043 40.1886 49.4298 41.051 49.7712C44.4345 51.1242 48.4653 52.0367 53.3471 52.5415C53.4411 52.5515 53.532 52.5806 53.6143 52.6271C53.6965 52.6736 53.7684 52.7364 53.8255 52.8117C53.8825 52.887 53.9236 52.9732 53.946 53.065C53.9685 53.1568 53.972 53.2522 53.9562 53.3453L52.5655 61.4882Z" fill="#37474F"/>
<path opacity="0.5" d="M52.5682 61.4942C52.5036 61.5305 52.4342 61.5574 52.3621 61.5739C50.4559 62.0847 43.2356 60.6144 37.7774 58.6092C34.2481 57.3117 33.6438 56.5611 33.5509 56.4021C34.6855 53.7702 36.0486 51.2429 37.6247 48.8492C37.7198 48.7061 37.8646 48.6034 38.031 48.5608C38.1974 48.5182 38.3738 48.5388 38.5259 48.6186C39.3475 49.0491 40.1913 49.4358 41.0537 49.7773C44.4354 51.1239 48.4663 52.0364 53.3481 52.5412C53.4421 52.5512 53.533 52.5803 53.6153 52.6268C53.6975 52.6732 53.7694 52.7361 53.8265 52.8114C53.8835 52.8867 53.9245 52.9729 53.947 53.0647C53.9695 53.1564 53.9729 53.2518 53.9571 53.345L52.5682 61.4942Z" fill="#010F10"/>
<path opacity="0.2" d="M37.7767 58.6091C38.6559 58.932 39.5805 59.2413 40.5229 59.5308C41.4544 56.3992 42.9499 52.1549 43.5636 50.6585C42.6917 50.39 41.8569 50.097 41.059 49.7796C40.5482 49.576 40.0577 49.3669 39.5832 49.1413C37.7452 52.0718 36.4055 56.0891 35.8794 57.8467C36.3916 58.0759 37.0153 58.3296 37.7767 58.6091Z" fill="#F0F7F7"/>
<path opacity="0.2" d="M45.3112 51.1512C44.9659 51.0621 44.6261 50.9716 44.2918 50.8795C43.1237 53.7818 42.1195 56.7474 41.2838 59.7622C41.6622 59.8733 42.041 59.9806 42.4202 60.0842C43.0199 58.0372 44.0852 54.5714 45.3112 51.1512Z" fill="#F0F7F7"/>
<path opacity="0.3" d="M47.1237 60.9762C49.7438 61.4578 52.3626 61.5733 52.4177 61.0014C52.4729 60.4296 53.2601 56.5917 53.3847 55.12C53.5093 53.6483 53.5829 53.4706 53.1559 53.1478C52.7289 52.8251 50.7955 52.6444 47.5807 52.0634C44.366 51.4825 41.059 49.7794 41.059 49.7794C44.4347 51.1236 48.4655 52.0361 53.3474 52.5408C53.4413 52.5508 53.5322 52.58 53.6145 52.6265C53.6967 52.6729 53.7686 52.7358 53.8257 52.8111C53.8827 52.8864 53.9238 52.9726 53.9462 53.0643C53.9687 53.1561 53.9722 53.2515 53.9564 53.3447L52.5712 61.4929C52.5067 61.5292 52.4373 61.556 52.3651 61.5726C50.459 62.0833 43.2387 60.613 37.7805 58.6079C38.9041 59.045 44.5081 60.4812 47.1237 60.9762Z" fill="#F0F7F7"/>
<path d="M56.8358 59.9264C56.9082 61.254 55.5924 61.8939 54.5374 62.1399C53.9805 62.2727 53.4996 62.2926 53.3409 62.2493C52.877 62.1244 52.9335 61.593 53.0746 61.2556C53.314 60.6848 54.6976 59.2966 55.7172 58.9894C56.3102 58.8087 56.7838 58.9951 56.8358 59.9264Z" fill="#7591CD"/>
<path opacity="0.3" d="M56.8358 59.9264C56.9082 61.254 55.5924 61.8939 54.5374 62.1399C53.9805 62.2727 53.4996 62.2926 53.3409 62.2493C52.877 62.1244 52.9335 61.593 53.0746 61.2556C53.314 60.6848 54.6976 59.2966 55.7172 58.9894C56.3102 58.8087 56.7838 58.9951 56.8358 59.9264Z" fill="#010F10"/>
<path d="M56.8358 59.9264C56.9082 61.254 55.5924 61.8939 54.5374 62.1399C53.9805 62.2727 53.4996 62.2926 53.3409 62.2493C52.877 62.1244 52.9335 61.593 53.0746 61.2556C52.9747 61.691 54.1116 61.6438 54.9766 61.0443C55.8415 60.4448 56.3559 59.5129 55.7172 58.9894C56.3102 58.8087 56.7838 58.9951 56.8358 59.9264Z" fill="#7591CD"/>
<path opacity="0.35" d="M56.8358 59.9264C56.9082 61.254 55.5924 61.8939 54.5374 62.1399C53.9805 62.2727 53.4996 62.2926 53.3409 62.2493C52.877 62.1244 52.9335 61.593 53.0746 61.2556C52.9747 61.691 54.1116 61.6438 54.9766 61.0443C55.8415 60.4448 56.3559 59.5129 55.7172 58.9894C56.3102 58.8087 56.7838 58.9951 56.8358 59.9264Z" fill="#010F10"/>
<path d="M56.8354 59.9271C56.9078 61.2547 55.592 61.8946 54.537 62.1406C55.5661 61.8335 56.233 61.0133 56.3709 60.2776C56.5088 59.542 56.1023 58.9753 55.7129 58.9911C56.3098 58.8094 56.7833 58.9958 56.8354 59.9271Z" fill="#37474F"/>
</g>
<rect width="76.0768" height="14.6597" transform="matrix(0.707492 -0.706721 0.707492 0.706721 0.0556641 54.4248)" fill="#F0F7F7"/>
<path d="M6.83006 53.9746L8.57916 52.2274C8.84318 51.9636 9.09986 51.7629 9.34921 51.6252C9.59709 51.486 9.8369 51.4047 10.0686 51.3812C10.3004 51.3578 10.5219 51.39 10.7331 51.4779C10.9458 51.5644 11.1467 51.7021 11.3359 51.8911C11.4635 52.0186 11.5699 52.1556 11.6549 52.3021C11.7385 52.4471 11.7965 52.6003 11.8288 52.7614C11.8625 52.9211 11.8691 53.0874 11.8486 53.2603C11.8266 53.4317 11.7752 53.6075 11.6945 53.7878L13.5427 54.1394L12.689 54.9921L11.0653 54.6625L11.0455 54.6822L9.98724 55.735L10.9663 56.7129L10.2689 57.4096L6.83006 53.9746ZM10.4537 54.0647C10.5857 53.9328 10.6854 53.8024 10.7529 53.6735C10.8218 53.5431 10.8614 53.4171 10.8717 53.2955C10.8834 53.1724 10.8658 53.0552 10.8189 52.9438C10.772 52.8296 10.6994 52.7233 10.6011 52.6252C10.4089 52.4332 10.1948 52.3512 9.95864 52.379C9.72103 52.4054 9.46948 52.5512 9.204 52.8164L8.13473 53.8845L9.38441 55.1328L10.4537 54.0647ZM10.9531 49.856L13.8815 46.9308L14.4931 47.5418L12.2622 49.7703L12.9486 50.456L14.9243 48.4824L15.4986 49.056L13.5229 51.0296L14.4799 51.9856L16.757 49.711L17.3665 50.3197L14.3919 53.2911L10.9531 49.856ZM14.2577 46.555L15.0189 45.7946L18.1717 47.0803L18.9242 47.4012L18.5568 46.6957L18.0903 45.5441L16.0618 44.7529L16.779 44.0364L17.7031 44.454L17.2675 43.5485L17.9847 42.8321L18.7768 44.8584L19.9538 45.3353L20.6843 45.643L20.3191 44.9529L19.0276 41.7903L19.7888 41.0299L21.7095 45.9814L21.0187 46.6715L20.0308 46.2957L19.12 45.8825L19.5336 46.7924L19.9054 47.7836L19.2146 48.4736L14.2577 46.555ZM21.4939 39.3267L22.2332 38.5882L27.3353 40.3618L26.6026 41.0937L25.749 40.7904L23.7403 42.7969L24.0527 43.6408L23.3178 44.3749L21.4939 39.3267ZM24.8997 40.4915L22.594 39.6739L23.4322 41.9574L24.8997 40.4915ZM24.4311 36.3927L26.1802 34.6455C26.4442 34.3818 26.7009 34.1811 26.9503 34.0433C27.1981 33.9041 27.438 33.8228 27.6697 33.7994C27.9014 33.7759 28.1229 33.8082 28.3341 33.8961C28.5468 33.9825 28.7478 34.1203 28.937 34.3093C29.0646 34.4367 29.1709 34.5737 29.256 34.7202C29.3396 34.8653 29.3975 35.0184 29.4298 35.1796C29.4635 35.3393 29.4701 35.5056 29.4496 35.6784C29.4276 35.8499 29.3763 36.0257 29.2956 36.2059L31.1437 36.5575L30.2901 37.4103L28.6664 37.0806L28.6466 37.1004L27.5883 38.1531L28.5674 39.1311L27.8699 39.8278L24.4311 36.3927ZM28.0547 36.4828C28.1867 36.351 28.2865 36.2206 28.3539 36.0916C28.4229 35.9612 28.4625 35.8352 28.4727 35.7136C28.4845 35.5905 28.4669 35.4733 28.4199 35.362C28.373 35.2477 28.3004 35.1415 28.2021 35.0433C28.01 34.8514 27.7958 34.7693 27.5597 34.7972C27.3221 34.8235 27.0705 34.9693 26.805 35.2345L25.7358 36.3026L26.9855 37.5509L28.0547 36.4828ZM28.5542 32.2742L29.8148 31.0149C30.183 30.6471 30.5423 30.3673 30.8929 30.1753C31.2434 29.9834 31.5815 29.8728 31.9072 29.8435C32.2328 29.8112 32.5445 29.8574 32.8422 29.9819C33.14 30.1035 33.4201 30.2955 33.6827 30.5577C33.932 30.8068 34.1198 31.0808 34.2459 31.3797C34.3706 31.6771 34.4219 31.9921 34.3999 32.3247C34.3764 32.6558 34.273 33.0009 34.0897 33.3598C33.9049 33.7173 33.6284 34.08 33.2602 34.4477L31.993 35.7092L28.5542 32.2742ZM32.8224 33.6763C33.0307 33.4683 33.1869 33.2595 33.291 33.05C33.3937 32.839 33.448 32.6324 33.4538 32.4302C33.4612 32.2265 33.4216 32.0287 33.335 31.8368C33.2485 31.6449 33.1194 31.4632 32.9478 31.2918C32.7791 31.1233 32.6009 30.998 32.4132 30.916C32.224 30.8324 32.0296 30.7966 31.8301 30.8083C31.6307 30.8171 31.4268 30.8742 31.2185 30.9797C31.0102 31.0852 30.802 31.242 30.5937 31.45L29.8588 32.1841L32.0876 34.4104L32.8224 33.6763ZM34.1733 26.6612L35.9224 24.914C36.1864 24.6502 36.4431 24.4495 36.6924 24.3118C36.9403 24.1726 37.1801 24.0913 37.4119 24.0678C37.6436 24.0444 37.8651 24.0766 38.0763 24.1645C38.289 24.251 38.4899 24.3887 38.6792 24.5777C38.8068 24.7052 38.9131 24.8422 38.9982 24.9887C39.0818 25.1337 39.1397 25.2868 39.172 25.448C39.2057 25.6077 39.2123 25.774 39.1918 25.9469C39.1698 26.1183 39.1184 26.2941 39.0378 26.4743L40.8859 26.826L40.0322 27.6787L38.4085 27.349L38.3887 27.3688L37.3305 28.4215L38.3095 29.3995L37.6121 30.0962L34.1733 26.6612ZM37.7969 26.7513C37.9289 26.6194 38.0287 26.489 38.0961 26.3601C38.1651 26.2297 38.2047 26.1037 38.2149 25.9821C38.2267 25.859 38.2091 25.7418 38.1621 25.6304C38.1152 25.5161 38.0426 25.4099 37.9443 25.3117C37.7522 25.1198 37.538 25.0378 37.3019 25.0656C37.0643 25.092 36.8127 25.2378 36.5472 25.5029L35.478 26.571L36.7276 27.8194L37.7969 26.7513ZM38.2963 22.5426L41.2247 19.6174L41.8363 20.2284L39.6054 22.4569L40.2919 23.1426L42.2676 21.169L42.8418 21.7426L40.8661 23.7162L41.8231 24.6722L44.1003 22.3976L44.7097 23.0063L41.7351 25.9777L38.2963 22.5426ZM43.218 17.6263L43.9573 16.8878L49.0594 18.6614L48.3267 19.3933L47.4731 19.09L45.4644 21.0965L45.7768 21.9404L45.0419 22.6745L43.218 17.6263ZM46.6238 18.7911L44.3181 17.9735L45.1563 20.257L46.6238 18.7911ZM46.1552 14.6923L46.8526 13.9956L49.6798 16.8197L51.6797 14.822L52.2914 15.4329L49.594 18.1274L46.1552 14.6923ZM49.5324 11.3188L50.2298 10.6221L52.7336 10.6265L52.7292 8.12548L53.4266 7.4288L56.8654 10.8639L56.168 11.5605L53.6951 9.09028L53.6488 11.5408L51.1957 11.5869L53.6686 14.0572L52.9712 14.7538L49.5324 11.3188Z" fill="#010F10"/>
<defs>
<clipPath id="clip0_1604_18113">
<rect width="65.7796" height="65.7796" fill="white" transform="translate(12.7998 34.8975) rotate(-15)"/>
</clipPath>
</defs>
</svg>
