<svg xmlns="http://www.w3.org/2000/svg" xmlns:xlink="http://www.w3.org/1999/xlink" viewBox="0 0 500 500"><defs><clipPath id="freepik--clip-path--inject-66"><path d="M318.47,308.32s-7.1-4.44-39.52-15.1S225.65,279,193.68,279.9s-75.06,12.88-83.05,16-11.55,4-9.77,6.21,11.54,10.22,10.21,13.77S88,339,86.64,342.07s4.45,13.77,5.33,16.44,5.78,3.55,9.77,4,288.24,0,288.24,0,4-4.88,3.11-11.1-1.84-14.42-5.85-19.67c-3.24-4.26-6.59-8.75-15-9.64C366.91,321.53,319.81,308.77,318.47,308.32Z" style="fill:#3A8DB8;stroke:#263238;stroke-miterlimit:10"></path></clipPath><clipPath id="freepik--clip-path-2--inject-66"><path d="M318.47,308.32s-7.1-4.44-39.52-15.1S225.65,279,193.68,279.9s-75.06,12.88-83.05,16-11.55,4-9.77,6.21,11.54,10.22,10.21,13.77S88,339,86.64,342.07s4.45,13.77,5.33,16.44,5.78,3.55,9.77,4,288.24,0,288.24,0,4-4.88,3.11-11.1-1.84-14.42-5.85-19.67c-3.24-4.26-6.59-8.75-15-9.64C366.91,321.53,319.81,308.77,318.47,308.32Z" style="fill:#3A8DB8"></path></clipPath><clipPath id="freepik--clip-path-3--inject-66"><path d="M296.27,308.32s-7.11-4.44-39.53-15.1S203.45,279,171.47,279.9s-75.06,12.88-83,16-11.55,4-9.77,6.21,11.55,10.22,10.21,13.77S65.77,339,64.44,342.07s4.44,13.77,5.33,16.44,5.77,3.55,9.77,4,288.23,0,288.23,0,4-4.88,3.11-11.1S369,337,365,331.73c-3.24-4.26-6.6-8.75-15-9.64C344.71,321.53,297.6,308.77,296.27,308.32Z" style="fill:#3A8DB8;stroke:#263238;stroke-miterlimit:10"></path></clipPath><clipPath id="freepik--clip-path-4--inject-66"><path d="M128.31,291.94l17.77,18.77H276.7v-4.26s-26.77-10.51-55-16-35.28-5-48-4.76S128.31,291.94,128.31,291.94Z" style="fill:#8f8f8f;stroke:#263238;stroke-miterlimit:10;stroke-width:4px"></path></clipPath></defs><g id="freepik--background-simple--inject-66"><path d="M408.91,205.78s-31.65-59.9-97.74-83.12-96.63-2.94-130.49,19C154,158.93,133.16,184,111.33,206.09c-20,20.28-49.3,36-58.55,64.07C41.09,305.66,67.59,344,99,364.65c43.88,28.78,86.42,11.17,132.24,4.41l.26,0a138.75,138.75,0,0,1,20.1-1.6c53.22.11,91.41,37.69,130.18-1S426.74,252.4,408.91,205.78Z" style="fill:#3A8DB8"></path><path d="M408.91,205.78s-31.65-59.9-97.74-83.12-96.63-2.94-130.49,19C154,158.93,133.16,184,111.33,206.09c-20,20.28-49.3,36-58.55,64.07C41.09,305.66,67.59,344,99,364.65c43.88,28.78,86.42,11.17,132.24,4.41l.26,0a138.75,138.75,0,0,1,20.1-1.6c53.22.11,91.41,37.69,130.18-1S426.74,252.4,408.91,205.78Z" style="fill:#fff;opacity:0.75"></path></g><g id="freepik--Buildings--inject-66"><rect x="96.6" y="235.7" width="8.16" height="8.22" style="fill:none;stroke:#263238;stroke-miterlimit:10"></rect><rect x="87.79" y="240.67" width="3.31" height="3.24" style="fill:none;stroke:#263238;stroke-miterlimit:10"></rect><polyline points="422.86 287.6 391.94 287.6 391.94 222.38 394.01 222.38 394.01 215.62 321.58 215.62 321.58 222.38 324.09 222.38 324.09 319.37 305.09 319.37 305.09 111.28 239.94 111.28 239.94 268.65 216.13 268.65 216.13 251.23 222.36 251.23 222.36 243.86 170.28 243.86 170.28 138.28 173.65 138.28 173.65 132.76 110.42 132.76 110.42 138.28 114.96 138.28 114.96 244.04 64.99 244.04 64.99 319.67 38.75 319.67" style="fill:none;stroke:#263238;stroke-miterlimit:10"></polyline><rect x="237.04" y="109" width="70.64" height="2.26" style="fill:none;stroke:#263238;stroke-miterlimit:10"></rect><rect x="120.61" y="144.42" width="7.96" height="8.52" style="fill:none;stroke:#263238;stroke-miterlimit:10"></rect><rect x="132.28" y="144.42" width="7.96" height="8.52" style="fill:none;stroke:#263238;stroke-miterlimit:10"></rect><rect x="143.95" y="144.42" width="7.96" height="8.52" style="fill:none;stroke:#263238;stroke-miterlimit:10"></rect><rect x="155.63" y="144.42" width="7.96" height="8.52" style="fill:none;stroke:#263238;stroke-miterlimit:10"></rect><rect x="120.61" y="157.93" width="7.96" height="8.52" style="fill:none;stroke:#263238;stroke-miterlimit:10"></rect><rect x="132.28" y="157.93" width="7.96" height="8.52" style="fill:none;stroke:#263238;stroke-miterlimit:10"></rect><rect x="143.95" y="157.93" width="7.96" height="8.52" style="fill:none;stroke:#263238;stroke-miterlimit:10"></rect><rect x="155.63" y="157.93" width="7.96" height="8.52" style="fill:none;stroke:#263238;stroke-miterlimit:10"></rect><rect x="120.61" y="171.43" width="7.96" height="8.52" style="fill:none;stroke:#263238;stroke-miterlimit:10"></rect><rect x="132.28" y="171.43" width="7.96" height="8.52" style="fill:none;stroke:#263238;stroke-miterlimit:10"></rect><rect x="143.95" y="171.43" width="7.96" height="8.52" style="fill:none;stroke:#263238;stroke-miterlimit:10"></rect><rect x="155.63" y="171.43" width="7.96" height="8.52" style="fill:none;stroke:#263238;stroke-miterlimit:10"></rect><rect x="120.61" y="184.93" width="7.96" height="8.52" style="fill:none;stroke:#263238;stroke-miterlimit:10"></rect><rect x="132.28" y="184.93" width="7.96" height="8.52" style="fill:none;stroke:#263238;stroke-miterlimit:10"></rect><rect x="143.95" y="184.93" width="7.96" height="8.52" style="fill:none;stroke:#263238;stroke-miterlimit:10"></rect><rect x="155.63" y="184.93" width="7.96" height="8.52" style="fill:none;stroke:#263238;stroke-miterlimit:10"></rect><rect x="120.61" y="198.44" width="7.96" height="8.52" style="fill:none;stroke:#263238;stroke-miterlimit:10"></rect><rect x="132.28" y="198.44" width="7.96" height="8.52" style="fill:none;stroke:#263238;stroke-miterlimit:10"></rect><rect x="143.95" y="198.44" width="7.96" height="8.52" style="fill:none;stroke:#263238;stroke-miterlimit:10"></rect><rect x="155.63" y="198.44" width="7.96" height="8.52" style="fill:none;stroke:#263238;stroke-miterlimit:10"></rect><rect x="120.61" y="211.94" width="7.96" height="8.52" style="fill:none;stroke:#263238;stroke-miterlimit:10"></rect><rect x="132.28" y="211.94" width="7.96" height="8.52" style="fill:none;stroke:#263238;stroke-miterlimit:10"></rect><rect x="143.95" y="211.94" width="7.96" height="8.52" style="fill:none;stroke:#263238;stroke-miterlimit:10"></rect><rect x="155.63" y="211.94" width="7.96" height="8.52" style="fill:none;stroke:#263238;stroke-miterlimit:10"></rect><rect x="120.61" y="225.45" width="7.96" height="8.52" style="fill:none;stroke:#263238;stroke-miterlimit:10"></rect><rect x="132.28" y="225.45" width="7.96" height="8.52" style="fill:none;stroke:#263238;stroke-miterlimit:10"></rect><rect x="143.95" y="225.45" width="7.96" height="8.52" style="fill:none;stroke:#263238;stroke-miterlimit:10"></rect><rect x="155.63" y="225.45" width="7.96" height="8.52" style="fill:none;stroke:#263238;stroke-miterlimit:10"></rect><rect x="120.61" y="238.95" width="7.96" height="8.52" style="fill:none;stroke:#263238;stroke-miterlimit:10"></rect><rect x="132.28" y="238.95" width="7.96" height="8.52" style="fill:none;stroke:#263238;stroke-miterlimit:10"></rect><rect x="143.95" y="238.95" width="7.96" height="8.52" style="fill:none;stroke:#263238;stroke-miterlimit:10"></rect><rect x="155.63" y="238.95" width="7.96" height="8.52" style="fill:none;stroke:#263238;stroke-miterlimit:10"></rect><rect x="120.61" y="251.3" width="7.96" height="8.52" style="fill:none;stroke:#263238;stroke-miterlimit:10"></rect><rect x="132.28" y="251.3" width="7.96" height="8.52" style="fill:none;stroke:#263238;stroke-miterlimit:10"></rect><rect x="143.95" y="251.3" width="7.96" height="8.52" style="fill:none;stroke:#263238;stroke-miterlimit:10"></rect><rect x="155.63" y="251.3" width="7.96" height="8.52" style="fill:none;stroke:#263238;stroke-miterlimit:10"></rect><rect x="120.61" y="264.81" width="7.96" height="8.52" style="fill:none;stroke:#263238;stroke-miterlimit:10"></rect><rect x="132.28" y="264.81" width="7.96" height="8.52" style="fill:none;stroke:#263238;stroke-miterlimit:10"></rect><rect x="143.95" y="264.81" width="7.96" height="8.52" style="fill:none;stroke:#263238;stroke-miterlimit:10"></rect><rect x="155.63" y="264.81" width="7.96" height="8.52" style="fill:none;stroke:#263238;stroke-miterlimit:10"></rect><rect x="120.61" y="278.31" width="7.96" height="8.52" style="fill:none;stroke:#263238;stroke-miterlimit:10"></rect><rect x="132.28" y="278.31" width="7.96" height="8.52" style="fill:none;stroke:#263238;stroke-miterlimit:10"></rect><rect x="143.95" y="278.31" width="7.96" height="8.52" style="fill:none;stroke:#263238;stroke-miterlimit:10"></rect><rect x="155.63" y="278.31" width="7.96" height="8.52" style="fill:none;stroke:#263238;stroke-miterlimit:10"></rect><rect x="120.61" y="291.81" width="7.96" height="8.52" style="fill:none;stroke:#263238;stroke-miterlimit:10"></rect><rect x="132.28" y="291.81" width="7.96" height="8.52" style="fill:none;stroke:#263238;stroke-miterlimit:10"></rect><rect x="143.95" y="291.81" width="7.96" height="8.52" style="fill:none;stroke:#263238;stroke-miterlimit:10"></rect><rect x="155.63" y="291.81" width="7.96" height="8.52" style="fill:none;stroke:#263238;stroke-miterlimit:10"></rect><rect x="120.61" y="305.32" width="7.96" height="8.52" style="fill:none;stroke:#263238;stroke-miterlimit:10"></rect><rect x="132.28" y="305.32" width="7.96" height="8.52" style="fill:none;stroke:#263238;stroke-miterlimit:10"></rect><rect x="143.95" y="305.32" width="7.96" height="8.52" style="fill:none;stroke:#263238;stroke-miterlimit:10"></rect><rect x="155.63" y="305.32" width="7.96" height="8.52" style="fill:none;stroke:#263238;stroke-miterlimit:10"></rect><rect x="120.61" y="318.82" width="7.96" height="8.52" style="fill:none;stroke:#263238;stroke-miterlimit:10"></rect><rect x="132.28" y="318.82" width="7.96" height="8.52" style="fill:none;stroke:#263238;stroke-miterlimit:10"></rect><rect x="143.95" y="318.82" width="7.96" height="8.52" style="fill:none;stroke:#263238;stroke-miterlimit:10"></rect><rect x="155.63" y="318.82" width="7.96" height="8.52" style="fill:none;stroke:#263238;stroke-miterlimit:10"></rect><rect x="120.61" y="332.33" width="7.96" height="8.52" style="fill:none;stroke:#263238;stroke-miterlimit:10"></rect><rect x="132.28" y="332.33" width="7.96" height="8.52" style="fill:none;stroke:#263238;stroke-miterlimit:10"></rect><rect x="143.95" y="332.33" width="7.96" height="8.52" style="fill:none;stroke:#263238;stroke-miterlimit:10"></rect><rect x="155.63" y="332.33" width="7.96" height="8.52" style="fill:none;stroke:#263238;stroke-miterlimit:10"></rect><rect x="120.61" y="345.83" width="7.96" height="8.52" style="fill:none;stroke:#263238;stroke-miterlimit:10"></rect><rect x="132.28" y="345.83" width="7.96" height="8.52" style="fill:none;stroke:#263238;stroke-miterlimit:10"></rect><rect x="143.95" y="345.83" width="7.96" height="8.52" style="fill:none;stroke:#263238;stroke-miterlimit:10"></rect><rect x="155.63" y="345.83" width="7.96" height="8.52" style="fill:none;stroke:#263238;stroke-miterlimit:10"></rect><rect x="166.2" y="251.3" width="7.96" height="8.52" style="fill:none;stroke:#263238;stroke-miterlimit:10"></rect><rect x="177.87" y="251.3" width="7.96" height="8.52" style="fill:none;stroke:#263238;stroke-miterlimit:10"></rect><rect x="189.54" y="251.3" width="7.96" height="8.52" style="fill:none;stroke:#263238;stroke-miterlimit:10"></rect><rect x="201.21" y="251.3" width="7.96" height="8.52" style="fill:none;stroke:#263238;stroke-miterlimit:10"></rect><rect x="166.2" y="264.81" width="7.96" height="8.52" style="fill:none;stroke:#263238;stroke-miterlimit:10"></rect><rect x="177.87" y="264.81" width="7.96" height="8.52" style="fill:none;stroke:#263238;stroke-miterlimit:10"></rect><rect x="189.54" y="264.81" width="7.96" height="8.52" style="fill:none;stroke:#263238;stroke-miterlimit:10"></rect><rect x="201.21" y="264.81" width="7.96" height="8.52" style="fill:none;stroke:#263238;stroke-miterlimit:10"></rect><rect x="166.2" y="278.31" width="7.96" height="8.52" style="fill:none;stroke:#263238;stroke-miterlimit:10"></rect><rect x="177.87" y="278.31" width="7.96" height="8.52" style="fill:none;stroke:#263238;stroke-miterlimit:10"></rect><rect x="189.54" y="278.31" width="7.96" height="8.52" style="fill:none;stroke:#263238;stroke-miterlimit:10"></rect><rect x="201.21" y="278.31" width="7.96" height="8.52" style="fill:none;stroke:#263238;stroke-miterlimit:10"></rect><rect x="166.2" y="291.81" width="7.96" height="8.52" style="fill:none;stroke:#263238;stroke-miterlimit:10"></rect><rect x="177.87" y="291.81" width="7.96" height="8.52" style="fill:none;stroke:#263238;stroke-miterlimit:10"></rect><rect x="189.54" y="291.81" width="7.96" height="8.52" style="fill:none;stroke:#263238;stroke-miterlimit:10"></rect><rect x="201.21" y="291.81" width="7.96" height="8.52" style="fill:none;stroke:#263238;stroke-miterlimit:10"></rect><rect x="166.2" y="305.32" width="7.96" height="8.52" style="fill:none;stroke:#263238;stroke-miterlimit:10"></rect><rect x="177.87" y="305.32" width="7.96" height="8.52" style="fill:none;stroke:#263238;stroke-miterlimit:10"></rect><rect x="189.54" y="305.32" width="7.96" height="8.52" style="fill:none;stroke:#263238;stroke-miterlimit:10"></rect><rect x="201.21" y="305.32" width="7.96" height="8.52" style="fill:none;stroke:#263238;stroke-miterlimit:10"></rect><rect x="166.2" y="318.82" width="7.96" height="8.52" style="fill:none;stroke:#263238;stroke-miterlimit:10"></rect><rect x="177.87" y="318.82" width="7.96" height="8.52" style="fill:none;stroke:#263238;stroke-miterlimit:10"></rect><rect x="189.54" y="318.82" width="7.96" height="8.52" style="fill:none;stroke:#263238;stroke-miterlimit:10"></rect><rect x="201.21" y="318.82" width="7.96" height="8.52" style="fill:none;stroke:#263238;stroke-miterlimit:10"></rect><rect x="166.2" y="332.33" width="7.96" height="8.52" style="fill:none;stroke:#263238;stroke-miterlimit:10"></rect><rect x="177.87" y="332.33" width="7.96" height="8.52" style="fill:none;stroke:#263238;stroke-miterlimit:10"></rect><rect x="189.54" y="332.33" width="7.96" height="8.52" style="fill:none;stroke:#263238;stroke-miterlimit:10"></rect><rect x="201.21" y="332.33" width="7.96" height="8.52" style="fill:none;stroke:#263238;stroke-miterlimit:10"></rect><rect x="166.2" y="345.83" width="7.96" height="8.52" style="fill:none;stroke:#263238;stroke-miterlimit:10"></rect><rect x="177.87" y="345.83" width="7.96" height="8.52" style="fill:none;stroke:#263238;stroke-miterlimit:10"></rect><rect x="189.54" y="345.83" width="7.96" height="8.52" style="fill:none;stroke:#263238;stroke-miterlimit:10"></rect><rect x="201.21" y="345.83" width="7.96" height="8.52" style="fill:none;stroke:#263238;stroke-miterlimit:10"></rect><rect x="74.39" y="251.3" width="7.96" height="8.52" style="fill:none;stroke:#263238;stroke-miterlimit:10"></rect><rect x="86.06" y="251.3" width="7.96" height="8.52" style="fill:none;stroke:#263238;stroke-miterlimit:10"></rect><rect x="97.73" y="251.3" width="7.96" height="8.52" style="fill:none;stroke:#263238;stroke-miterlimit:10"></rect><rect x="109.4" y="251.3" width="7.96" height="8.52" style="fill:none;stroke:#263238;stroke-miterlimit:10"></rect><rect x="74.39" y="264.81" width="7.96" height="8.52" style="fill:none;stroke:#263238;stroke-miterlimit:10"></rect><rect x="86.06" y="264.81" width="7.96" height="8.52" style="fill:none;stroke:#263238;stroke-miterlimit:10"></rect><rect x="97.73" y="264.81" width="7.96" height="8.52" style="fill:none;stroke:#263238;stroke-miterlimit:10"></rect><rect x="109.4" y="264.81" width="7.96" height="8.52" style="fill:none;stroke:#263238;stroke-miterlimit:10"></rect><rect x="74.39" y="278.31" width="7.96" height="8.52" style="fill:none;stroke:#263238;stroke-miterlimit:10"></rect><rect x="86.06" y="278.31" width="7.96" height="8.52" style="fill:none;stroke:#263238;stroke-miterlimit:10"></rect><rect x="97.73" y="278.31" width="7.96" height="8.52" style="fill:none;stroke:#263238;stroke-miterlimit:10"></rect><rect x="109.4" y="278.31" width="7.96" height="8.52" style="fill:none;stroke:#263238;stroke-miterlimit:10"></rect><rect x="74.39" y="291.81" width="7.96" height="8.52" style="fill:none;stroke:#263238;stroke-miterlimit:10"></rect><rect x="86.06" y="291.81" width="7.96" height="8.52" style="fill:none;stroke:#263238;stroke-miterlimit:10"></rect><rect x="97.73" y="291.81" width="7.96" height="8.52" style="fill:none;stroke:#263238;stroke-miterlimit:10"></rect><rect x="109.4" y="291.81" width="7.96" height="8.52" style="fill:none;stroke:#263238;stroke-miterlimit:10"></rect><rect x="74.39" y="305.32" width="7.96" height="8.52" style="fill:none;stroke:#263238;stroke-miterlimit:10"></rect><rect x="86.06" y="305.32" width="7.96" height="8.52" style="fill:none;stroke:#263238;stroke-miterlimit:10"></rect><rect x="97.73" y="305.32" width="7.96" height="8.52" style="fill:none;stroke:#263238;stroke-miterlimit:10"></rect><rect x="109.4" y="305.32" width="7.96" height="8.52" style="fill:none;stroke:#263238;stroke-miterlimit:10"></rect><rect x="74.39" y="318.82" width="7.96" height="8.52" style="fill:none;stroke:#263238;stroke-miterlimit:10"></rect><rect x="86.06" y="318.82" width="7.96" height="8.52" style="fill:none;stroke:#263238;stroke-miterlimit:10"></rect><rect x="97.73" y="318.82" width="7.96" height="8.52" style="fill:none;stroke:#263238;stroke-miterlimit:10"></rect><rect x="109.4" y="318.82" width="7.96" height="8.52" style="fill:none;stroke:#263238;stroke-miterlimit:10"></rect><rect x="74.39" y="332.33" width="7.96" height="8.52" style="fill:none;stroke:#263238;stroke-miterlimit:10"></rect><rect x="86.06" y="332.33" width="7.96" height="8.52" style="fill:none;stroke:#263238;stroke-miterlimit:10"></rect><rect x="97.73" y="332.33" width="7.96" height="8.52" style="fill:none;stroke:#263238;stroke-miterlimit:10"></rect><rect x="109.4" y="332.33" width="7.96" height="8.52" style="fill:none;stroke:#263238;stroke-miterlimit:10"></rect><rect x="74.39" y="345.83" width="7.96" height="8.52" style="fill:none;stroke:#263238;stroke-miterlimit:10"></rect><rect x="86.06" y="345.83" width="7.96" height="8.52" style="fill:none;stroke:#263238;stroke-miterlimit:10"></rect><rect x="97.73" y="345.83" width="7.96" height="8.52" style="fill:none;stroke:#263238;stroke-miterlimit:10"></rect><rect x="109.4" y="345.83" width="7.96" height="8.52" style="fill:none;stroke:#263238;stroke-miterlimit:10"></rect><rect x="335.08" y="224.83" width="7.96" height="8.52" style="fill:none;stroke:#263238;stroke-miterlimit:10"></rect><rect x="346.75" y="224.83" width="7.96" height="8.52" style="fill:none;stroke:#263238;stroke-miterlimit:10"></rect><rect x="358.42" y="224.83" width="7.96" height="8.52" style="fill:none;stroke:#263238;stroke-miterlimit:10"></rect><rect x="370.09" y="224.83" width="7.96" height="8.52" style="fill:none;stroke:#263238;stroke-miterlimit:10"></rect><rect x="335.08" y="238.34" width="7.96" height="8.52" style="fill:none;stroke:#263238;stroke-miterlimit:10"></rect><rect x="346.75" y="238.34" width="7.96" height="8.52" style="fill:none;stroke:#263238;stroke-miterlimit:10"></rect><rect x="358.42" y="238.34" width="7.96" height="8.52" style="fill:none;stroke:#263238;stroke-miterlimit:10"></rect><rect x="370.09" y="238.34" width="7.96" height="8.52" style="fill:none;stroke:#263238;stroke-miterlimit:10"></rect><rect x="335.08" y="251.84" width="7.96" height="8.52" style="fill:none;stroke:#263238;stroke-miterlimit:10"></rect><rect x="346.75" y="251.84" width="7.96" height="8.52" style="fill:none;stroke:#263238;stroke-miterlimit:10"></rect><rect x="358.42" y="251.84" width="7.96" height="8.52" style="fill:none;stroke:#263238;stroke-miterlimit:10"></rect><rect x="370.09" y="251.84" width="7.96" height="8.52" style="fill:none;stroke:#263238;stroke-miterlimit:10"></rect><rect x="335.08" y="265.34" width="7.96" height="8.52" style="fill:none;stroke:#263238;stroke-miterlimit:10"></rect><rect x="346.75" y="265.34" width="7.96" height="8.52" style="fill:none;stroke:#263238;stroke-miterlimit:10"></rect><rect x="358.42" y="265.34" width="7.96" height="8.52" style="fill:none;stroke:#263238;stroke-miterlimit:10"></rect><rect x="370.09" y="265.34" width="7.96" height="8.52" style="fill:none;stroke:#263238;stroke-miterlimit:10"></rect><rect x="335.08" y="278.85" width="7.96" height="8.52" style="fill:none;stroke:#263238;stroke-miterlimit:10"></rect><rect x="346.75" y="278.85" width="7.96" height="8.52" style="fill:none;stroke:#263238;stroke-miterlimit:10"></rect><rect x="358.42" y="278.85" width="7.96" height="8.52" style="fill:none;stroke:#263238;stroke-miterlimit:10"></rect><rect x="370.09" y="278.85" width="7.96" height="8.52" style="fill:none;stroke:#263238;stroke-miterlimit:10"></rect><rect x="335.08" y="292.35" width="7.96" height="8.52" style="fill:none;stroke:#263238;stroke-miterlimit:10"></rect><rect x="346.75" y="292.35" width="7.96" height="8.52" style="fill:none;stroke:#263238;stroke-miterlimit:10"></rect><rect x="358.42" y="292.35" width="7.96" height="8.52" style="fill:none;stroke:#263238;stroke-miterlimit:10"></rect><rect x="370.09" y="292.35" width="7.96" height="8.52" style="fill:none;stroke:#263238;stroke-miterlimit:10"></rect><rect x="335.08" y="305.86" width="7.96" height="8.52" style="fill:none;stroke:#263238;stroke-miterlimit:10"></rect><rect x="346.75" y="305.86" width="7.96" height="8.52" style="fill:none;stroke:#263238;stroke-miterlimit:10"></rect><rect x="358.42" y="305.86" width="7.96" height="8.52" style="fill:none;stroke:#263238;stroke-miterlimit:10"></rect><rect x="370.09" y="305.86" width="7.96" height="8.52" style="fill:none;stroke:#263238;stroke-miterlimit:10"></rect><rect x="335.08" y="319.36" width="7.96" height="8.52" style="fill:none;stroke:#263238;stroke-miterlimit:10"></rect><rect x="346.75" y="319.36" width="7.96" height="8.52" style="fill:none;stroke:#263238;stroke-miterlimit:10"></rect><rect x="358.42" y="319.36" width="7.96" height="8.52" style="fill:none;stroke:#263238;stroke-miterlimit:10"></rect><rect x="370.09" y="319.36" width="7.96" height="8.52" style="fill:none;stroke:#263238;stroke-miterlimit:10"></rect><line x1="246.08" y1="116.19" x2="246.08" y2="362.94" style="fill:none;stroke:#263238;stroke-miterlimit:10"></line><line x1="253.97" y1="116.19" x2="253.97" y2="362.94" style="fill:none;stroke:#263238;stroke-miterlimit:10"></line><line x1="261.86" y1="116.19" x2="261.86" y2="362.94" style="fill:none;stroke:#263238;stroke-miterlimit:10"></line><line x1="269.75" y1="116.19" x2="269.75" y2="362.94" style="fill:none;stroke:#263238;stroke-miterlimit:10"></line><line x1="277.65" y1="116.19" x2="277.65" y2="362.94" style="fill:none;stroke:#263238;stroke-miterlimit:10"></line><line x1="285.54" y1="116.19" x2="285.54" y2="362.94" style="fill:none;stroke:#263238;stroke-miterlimit:10"></line><line x1="293.43" y1="116.19" x2="293.43" y2="362.94" style="fill:none;stroke:#263238;stroke-miterlimit:10"></line><line x1="301.32" y1="116.19" x2="301.32" y2="362.94" style="fill:none;stroke:#263238;stroke-miterlimit:10"></line><rect x="79.73" y="358.64" width="141.5" height="7.98" style="fill:none;stroke:#263238;stroke-miterlimit:10"></rect><rect x="308.07" y="358.64" width="127.06" height="7.98" style="fill:none;stroke:#263238;stroke-miterlimit:10"></rect></g><g id="freepik--Car--inject-66"><circle cx="336.52" cy="359.03" r="26.76" transform="translate(-72.76 85.83) rotate(-13.13)" style="fill:#263238;stroke:#263238;stroke-miterlimit:10"></circle><circle cx="149.1" cy="359.03" r="26.76" transform="translate(-210.2 210.59) rotate(-45)" style="fill:#263238;stroke:#263238;stroke-miterlimit:10"></circle><path d="M318.47,308.32s-7.1-4.44-39.52-15.1S225.65,279,193.68,279.9s-75.06,12.88-83.05,16-11.55,4-9.77,6.21,11.54,10.22,10.21,13.77S88,339,86.64,342.07s4.45,13.77,5.33,16.44,5.78,3.55,9.77,4,288.24,0,288.24,0,4-4.88,3.11-11.1-1.84-14.42-5.85-19.67c-3.24-4.26-6.59-8.75-15-9.64C366.91,321.53,319.81,308.77,318.47,308.32Z" style="fill:#3A8DB8"></path><g style="clip-path:url(#freepik--clip-path--inject-66)"><path d="M318.47,308.32s-7.1-4.44-39.52-15.1S225.65,279,193.68,279.9s-75.06,12.88-83.05,16-11.55,4-9.77,6.21,11.54,10.22,10.21,13.77S88,339,86.64,342.07s4.45,13.77,5.33,16.44,5.78,3.55,9.77,4,288.24,0,288.24,0,4-4.88,3.11-11.1-1.84-14.42-5.85-19.67c-3.24-4.26-6.59-8.75-15-9.64C366.91,321.53,319.81,308.77,318.47,308.32Z" style="fill:#3A8DB8"></path><g style="clip-path:url(#freepik--clip-path-2--inject-66)"><path d="M318.47,308.32s-7.1-4.44-39.52-15.1S225.65,279,193.68,279.9s-75.06,12.88-83.05,16-11.55,4-9.77,6.21,11.54,10.22,10.21,13.77S88,339,86.64,342.07s4.45,13.77,5.33,16.44,5.78,3.55,9.77,4,288.24,0,288.24,0,4-4.88,3.11-11.1-1.84-14.42-5.85-19.67c-3.24-4.26-6.59-8.75-15-9.64C366.91,321.53,319.81,308.77,318.47,308.32Z" style="opacity:0.15"></path></g></g><path d="M318.47,308.32s-7.1-4.44-39.52-15.1S225.65,279,193.68,279.9s-75.06,12.88-83.05,16-11.55,4-9.77,6.21,11.54,10.22,10.21,13.77S88,339,86.64,342.07s4.45,13.77,5.33,16.44,5.78,3.55,9.77,4,288.24,0,288.24,0,4-4.88,3.11-11.1-1.84-14.42-5.85-19.67c-3.24-4.26-6.59-8.75-15-9.64C366.91,321.53,319.81,308.77,318.47,308.32Z" style="fill:none;stroke:#263238;stroke-miterlimit:10"></path><rect x="373.1" y="339.41" width="16.88" height="4.44" style="fill:#263238;stroke:#263238;stroke-miterlimit:10"></rect><path d="M365,331.73h2.69a8.6,8.6,0,0,1,8,5.4l2.71,6.72h-8.8Z" style="fill:#fff;stroke:#263238;stroke-miterlimit:10"></path><path d="M389.77,336.27c-.1.28-.19.56-.27.86l-1.81,6.72h4.22A40.69,40.69,0,0,0,389.77,336.27Z" style="fill:#fff;stroke:#263238;stroke-miterlimit:10"></path><path d="M318.47,308.32s-7.1-4.44-39.52-15.1c-7.41-2.43-14.2-4.49-20.67-6.22H235.42l-4.88,1.34,65.73,20Z" style="fill:#263238;stroke:#263238;stroke-miterlimit:10"></path><path d="M79.1,301.2v30s18.26-15,16-19.27S79.1,301.2,79.1,301.2Z" style="fill:#8f8f8f;stroke:#263238;stroke-miterlimit:10"></path><path d="M296.27,308.32s-7.11-4.44-39.53-15.1S203.45,279,171.47,279.9s-75.06,12.88-83,16-11.55,4-9.77,6.21,11.55,10.22,10.21,13.77S65.77,339,64.44,342.07s4.44,13.77,5.33,16.44,5.77,3.55,9.77,4,288.23,0,288.23,0,4-4.88,3.11-11.1S369,337,365,331.73c-3.24-4.26-6.6-8.75-15-9.64C344.71,321.53,297.6,308.77,296.27,308.32Z" style="fill:#3A8DB8"></path><g style="clip-path:url(#freepik--clip-path-3--inject-66)"><path d="M365,331.73c-3.24-4.26-6.6-8.75-15-9.64-1.4-.15-5.73-1.15-11.36-2.55-26.84-.27-41.79,10.58-81.89,14.26-52.22,4.78-88.35-8.27-131.87-13.5-18.15-2.17-32.8.5-43.73,4.34-6.85,6.92-15.88,15.47-16.72,17.43-1.33,3.11,4.44,13.77,5.33,16.44s5.77,3.55,9.77,4,288.23,0,288.23,0,4-4.88,3.11-11.1S369,337,365,331.73Z" style="opacity:0.15"></path></g><path d="M296.27,308.32s-7.11-4.44-39.53-15.1S203.45,279,171.47,279.9s-75.06,12.88-83,16-11.55,4-9.77,6.21,11.55,10.22,10.21,13.77S65.77,339,64.44,342.07s4.44,13.77,5.33,16.44,5.77,3.55,9.77,4,288.23,0,288.23,0,4-4.88,3.11-11.1S369,337,365,331.73c-3.24-4.26-6.6-8.75-15-9.64C344.71,321.53,297.6,308.77,296.27,308.32Z" style="fill:none;stroke:#263238;stroke-miterlimit:10"></path><path d="M128.31,291.94l17.77,18.77H276.7v-4.26s-26.77-10.51-55-16-35.28-5-48-4.76S128.31,291.94,128.31,291.94Z" style="fill:#8f8f8f"></path><g style="clip-path:url(#freepik--clip-path-4--inject-66)"><path d="M192,302.5a82.72,82.72,0,0,0-49.8,4.11l3.88,4.1H276.7v-4.26s-4.33-1.7-11.35-4.09C250.66,308,221.52,309,192,302.5Z" style="fill:#263238;stroke:#263238;stroke-miterlimit:10"></path></g><path d="M128.31,291.94l17.77,18.77H276.7v-4.26s-26.77-10.51-55-16-35.28-5-48-4.76S128.31,291.94,128.31,291.94Z" style="fill:none;stroke:#263238;stroke-miterlimit:10;stroke-width:4px"></path><line x1="187.37" y1="313.21" x2="187.37" y2="354" style="fill:none;stroke:#263238;stroke-miterlimit:10"></line><circle cx="118.9" cy="359.03" r="26.76" transform="translate(-78.14 36.21) rotate(-13.07)" style="fill:#263238;stroke:#263238;stroke-miterlimit:10"></circle><path d="M118.9,339.72A19.31,19.31,0,1,0,138.21,359,19.32,19.32,0,0,0,118.9,339.72Zm13,15.44-11.25,2.11,3.19-10.85A13.61,13.61,0,0,1,131.88,355.16Zm-12,2.9V360h-1.93v-1.94Zm-4.83-12,2.11,11.25-10.86-3.2A13.57,13.57,0,0,1,115,346.06Zm-9.11,16.84,11.25-2.11L114,371.64A13.52,13.52,0,0,1,105.93,362.9Zm16.84,9.1-2.11-11.24L131.52,364A13.57,13.57,0,0,1,122.77,372Z" style="fill:#fff;stroke:#263238;stroke-miterlimit:10"></path><path d="M124.89,359a6,6,0,1,0-6,6A6,6,0,0,0,124.89,359Z" style="fill:#fff;stroke:#263238;stroke-miterlimit:10"></path><circle cx="307.21" cy="359.03" r="26.76" transform="translate(-163.89 322.39) rotate(-45)" style="fill:#263238;stroke:#263238;stroke-miterlimit:10"></circle><path d="M307.21,339.72A19.31,19.31,0,1,0,326.52,359,19.32,19.32,0,0,0,307.21,339.72Zm13,15.44-11.24,2.11,3.19-10.85A13.58,13.58,0,0,1,320.18,355.16Zm-12,2.9V360h-1.94v-1.94Zm-4.84-12,2.11,11.25-10.85-3.2A13.55,13.55,0,0,1,303.34,346.06Zm-9.1,16.84,11.25-2.11-3.2,10.85A13.53,13.53,0,0,1,294.24,362.9Zm16.84,9.1L309,360.76,319.82,364A13.55,13.55,0,0,1,311.08,372Z" style="fill:#fff;stroke:#263238;stroke-miterlimit:10"></path><path d="M313.2,359a6,6,0,1,0-6,6A6,6,0,0,0,313.2,359Z" style="fill:#fff;stroke:#263238;stroke-miterlimit:10"></path><path d="M365,331.73s-19.92-1-20.81,0,6.66,9,9.33,10.79c2.11,1.41,12.05,1.14,16.07,1C368.78,339.22,367.47,334.93,365,331.73Z" style="fill:#fff;stroke:#263238;stroke-miterlimit:10"></path><path d="M190.64,285.82c-1.31-.09-2.54-.15-3.74-.19l-3.35,25h8.88Z" style="fill:#263238;stroke:#263238;stroke-miterlimit:10"></path></g><g id="freepik--Floor--inject-66"><line x1="52.86" y1="385.81" x2="461.74" y2="385.81" style="fill:#fff;stroke:#263238;stroke-linecap:round;stroke-linejoin:round"></line></g></svg>